<mxfile host="app.diagrams.net" modified="2024-01-01T16:14:23.588Z" agent="Mozilla/5.0 (Windows NT 10.0; Win64; x64) AppleWebKit/537.36 (KHTML, like Gecko) Chrome/120.0.0.0 Safari/537.36" etag="RWIORQpInmCfKchVUxfs" version="21.6.8" type="device">
  <diagram name="Page-1" id="NrbLGYmJSXIOoNFU80TP">
    <mxGraphModel dx="1481" dy="771" grid="1" gridSize="10" guides="1" tooltips="1" connect="1" arrows="1" fold="1" page="1" pageScale="1" pageWidth="850" pageHeight="1100" math="0" shadow="0">
      <root>
        <mxCell id="0" />
        <mxCell id="1" parent="0" />
        <mxCell id="baAecIUNaESLLziyIisz-7" style="edgeStyle=orthogonalEdgeStyle;rounded=0;orthogonalLoop=1;jettySize=auto;html=1;" parent="1" source="baAecIUNaESLLziyIisz-1" target="baAecIUNaESLLziyIisz-6" edge="1">
          <mxGeometry relative="1" as="geometry" />
        </mxCell>
        <mxCell id="baAecIUNaESLLziyIisz-15" value="&amp;nbsp;S3 put event trigger" style="edgeLabel;html=1;align=center;verticalAlign=middle;resizable=0;points=[];arcSize=12;" parent="baAecIUNaESLLziyIisz-7" vertex="1" connectable="0">
          <mxGeometry x="-0.1182" y="2" relative="1" as="geometry">
            <mxPoint as="offset" />
          </mxGeometry>
        </mxCell>
        <mxCell id="baAecIUNaESLLziyIisz-1" value="" style="sketch=0;outlineConnect=0;fontColor=#232F3E;gradientColor=none;fillColor=#7AA116;strokeColor=none;dashed=0;verticalLabelPosition=bottom;verticalAlign=top;align=center;html=1;fontSize=12;fontStyle=0;aspect=fixed;pointerEvents=1;shape=mxgraph.aws4.bucket_with_objects;" parent="1" vertex="1">
          <mxGeometry x="220" y="80" width="76.93" height="80" as="geometry" />
        </mxCell>
        <mxCell id="baAecIUNaESLLziyIisz-4" style="edgeStyle=orthogonalEdgeStyle;rounded=0;orthogonalLoop=1;jettySize=auto;html=1;" parent="1" source="baAecIUNaESLLziyIisz-2" target="baAecIUNaESLLziyIisz-1" edge="1">
          <mxGeometry relative="1" as="geometry" />
        </mxCell>
        <mxCell id="baAecIUNaESLLziyIisz-2" value="" style="shape=image;verticalLabelPosition=bottom;labelBackgroundColor=default;verticalAlign=top;aspect=fixed;imageAspect=0;image=data:image/jpeg,/9j/4AAQSkZJRgABAQAAAQABAAD/2wCEAAoHCBYUFRgWFRUVGBgaGBocFhwYGRkcHhgeHBwZGRwaGRkcIy4lHB4uHx0cJjgmKy8xNTU1HCU7QDszRy40QzEBDAwMEA8QHhISHzQrISU2MTE1PT0xMTQ2NDQ0NDQ0MTc0PTExMTQ0MTQ0NDY0MTExNjUxNDQxNDQxNDQ0NDQ0NP/AABEIANQA7gMBIgACEQEDEQH/xAAcAAEAAgIDAQAAAAAAAAAAAAAABgcCBQMECAH/xABJEAACAQICBwMHCAkDAQkAAAABAgADEQQSBQYHITFBUWFxkRMiMjWBsbIUM1JydKHB0RcjQmJzgpKTs1TS8DQVJCVDRFODhKL/xAAZAQEAAwEBAAAAAAAAAAAAAAAAAQMEAgX/xAAlEQEBAQACAQQCAgMBAAAAAAAAAQIDEQQSITFBUWFxoRQiQhP/2gAMAwEAAhEDEQA/ALmiIgIiIGJkY0jpFnJCkqvK26/afym/0g1qb/VPukSaaODEvdrJ5O7OsxxE2nZw+laqcGLDo+/7+I8Z1mnG013M18xkzrWb7VKcBppKlg3mt0J3HuM20rtpsdHabelZWuy9OY7j+B+6ZuTx/vLVx+T9aTOJ18Ji1qrmQgj7x2EcjOxMtnXtWuWX3j7ERCSIiAiIgIiICIiAiIgIiICIiAiIgIiICIiBwYmnmRl6ggeEh7SbSI6ToZKjDkTcdx3/AJj2TT4+vexk8rPtNOk042nI042muMTiaYNM2mDTpDLDYtqTZkax59COhHMSYaK0ylYW9F+ann2qeY++QhphmINwSCN4I3EdoMq5OLO5+13Hzaxf0s+JFtEayjctY25B+X8/Tv4dbSUA3mDeNZvVehjedzuMoiJy7IiICIiAiIgIiICIiAiIgIiICIiAiIgfJp9PYbMoccV49x/I/jNxMGUEEHeDJzr02VxvM1myoO042nd0jhTScjlxU9R/zdOk09LNlnceXrNzeq4mmDTNpg07cuJpg0zaYNJHGZ39F6cqYfdYvT5pfevah5fVO48rToGcbSNZmp1XWd3N7ysrRuk6WIXNSYEcxwIPRhxBndlQFnpt5SizI44lefs4HuO4yRaL19sAK9Mn96nbf3oT7j7Jj5PF1PfPvG3j8nN9te1T2JpMPrThGG6ui9jXT4gJzNrDhR/6ij7HU+4zP6Nfir/Xn8trEi+L13wiDzWdz+6pH3tYSKaV2k1WuKFNUH0m89u8DcB7QZ3nh3fo/wDTP1VoswAuSAOd5psVrVg6Zs2JpXHEK2YjvC3tKV0jpWvXN61V37GbzR3IPNHsE6dpdnxvzXN5PwuxNeMCTby49qVAPErN3gcfTrLmpVEdeqMGAPQ24HslOaJ1KxOIo+WTyYU3yK7EM1iRcbiBw3XIv2DfNPo3SFXC1Q9JijqbMOTWO9HXmOVvCxkXgze5m+8T67Pl6Gnya/Qmk1xNCnWTcGG8fRI3Mp7iCJsJls6vSx9iIgIiICIiAiIgIiIGv0rgvKpYekN69/TuMh7C247iDYg8iNxB7ZPpG9ZMAQDWQXt84o5gftDtA49R3TRwcnV6rJ5PF3PVPpoGmDTJXDC4NxMWm5hcTTBpm0waSOMzjachnG0kYGa/G4e3nD2/nNg0wYTqIaSYO4UXM58agTeeHL8pqKtQsbn2DpFvS3GO/wCCtWLdg6TitMrRacNE6k6jG0WmVotCe0r0Nr1Ww2HFAU0bKCKbsSMoNyAygeda/USKO5YlmNySST1JNyfGdzReia2JfJRRnO7Nbcqg82Y7l/G26TnRuzK4BxFcg81pAbv52G/+mU3XHx237ruerSPan61NgmZGUtRc3ZR6SNwzJfcbi1weg4c7c0ZpOliEFSi4ZT04g9CDvB7DNBS2fYEDejt2mo4+EgTa6G1dw+ELGgjKXADXd2By3tuYkcz4zLy6xr3nfa7M1Pa/DcxESh2REQEREBERAREQE+T7ECvtZNGthnz0x+rY8OStxy93Me0cp0KWLVuw9D+Bli47CLVRkYXDC3d0I7Qd8qzHYVqLtTb0lNj28wR2EWPtno+NyeudX5jyvJ47xa9U+L/VbFpg01iYhl4Hd0O+cq47qvh+Rmj01TNyu0ZxtMPlSHnbvBg1l+kPGOqnuDTjdgBc8BMmqL9JfETU43FBzYHzR9/bJkS4Mc/lPZ6PZNVabLOOs1+MqKrc9+/h4xYu47fhjE6zYvoPGcT4hjzt3Thd1XcdwvEzfan6tVMe2bemHU2d/wBpj9BL7s3U7wPumu1Q1bfH18gutNLGs4/ZHJV/eaxt03nlY31gcGlGmtOmoVFACqOAA/5x5zNz83p/1z8rsY796w0do+nh6a06SBFHADmeZJO8k8yd5ncn2Jht7XkREBERAREQEREBERAREQERED5IZr5gdyVgN/ot95U+8e0SZzUa0Uc2Fqjot/6SG/CWcOvTuVTz5muOxVxmJmRmJnsvEjEzAzMzpYmvyHtP4Q7zO6wxNW+4e2cERDRmdQnU0il1B6H3/wDBO3ODGDzG7vxnN+HefmNROzo7AvXqrRpLmd2so5DmSTyUC5J6CdYmXRs31V+S0vL1VtXqDgRvpobEJ2MeLewct+bl5JjLVnPqqRat6ETB0Fo099t7taxdjbMx8LAcgAOU28RPNttvdaZOn2IiAiIgIiICIiAiIgIiICIiAiIgfJqtZamXC1j1Qj+rzfxm1kQ17xwCpRB3scz9wvYHvbf/ACyziz6tyKefUzx238IMZiZ9dgBczo4ivm3DcPfPZeLnPZicRyX2n8p05k0xhpzOoREQ6JwYxrI3/Oc55udW9V2x1QBrrQQ3quNxY8qaH6R5nkO0iV8m5nNtWYzdakjn2aaqeXcYqsv6pG/Vg/8AmOp9LtRT4sOw3uOcOGoLTVURQqqAqqBYKALAATmnk8m7vXbfnPUfYiJw6IiICIiAiIgIiICIiAiIgIifICJxVayqCzMABxJIAHtMjGltcqaArR/WN13hR+Lezxneca1epFe+XGJ3a3eltKJh0zMbngoHFj0H4nlKt0lpA1HZ2N2Y3NuA6AdABumGkdI1KzFnYkn7h0HQdgnQaejwcM45+3l8/PeW/qMarluM4mmbTBpe4y4mmMyaYzpbCJ2cDgKtdstFGdueUbh2sx3KO0kSwdXtQ1p2fEkVG4hB6C99/SPgOwynk58Yi3HHrXwjWq2qb4oh3ulDrwZ+xOz97wvytbCYRKSKlNQqqLADgJzKLTKeZy8uuS+/w28fHMT2fYiJWsIiICIiAiIgIiICIiAiIgIiIGDXtI/pHC44/N16VugTKfE5/wAJIonWb1e3G8TU6ts/iqw0joTGsb1EqP0OcP4C9x4TT18FUX0qdRfrIw94lzRNOfL1PqMevBzb3NVRzm04mYdRL0KA8QD7Jh8mX6K/0id/5k/H9uf8Gz/r+lF3vw3zsUdGV39CjVbtCOR42tLvCAcAB3CZSL5l+osz4nXzVSYTUjF1PSRaY6uw9y5j42kl0Zs9orY13eqfojzF9tjmPiO6TafZTvyeTX30uxwYz+3BhcKlJQtNVRRwCgAeAnYnyfZR32vIiICIiAiIgIiICIiAiIgIiICImr0rp7DYW3yivTpk7wHYBiOqrxI7hA2kSO6N1zwOIqpRo11eo98qhXF7KWO8qB6IJ9kkUBEjOE15wFWqtGniA1RmyquSqLtv3XK25STQEREBERAREQEREBERAREQEREBERAROrj8YlGm9WocqIrM7WJsqi5NhvO7pNTofW/B4up5LD1xUfKWtkqL5oIBN2UDiR4wJBERAREQETjquFBYmwAJJ6AbzIr+kjRn+qH9ur/sgcuv+s3/AGfhTUWxqu2SiDwzEEliOYVQT2mw5yktB6AxelKzspztcGtWqscoJ4AsAST0UDcByE2e0TXFNJGh5JKqLTFTMHy+cWyWIyseAU8es2uo20DDaPwooPh67PndnZBTysWO4+cwNwoVeH7MIbzVHZpWweMo4h69J1pl7qqsCc1N03E9rX9ktKaDVLWanpGi1amjoq1ChD5b3Co1xlJFrMPAzfwl5s1O9a4f7Sfe89JzzZqd61w/2k+956ThEIlc7Q9eq+j8RTpUqdF1elnJqByQczLYZWG6wEluquknxWEo4hwoaogZgt8oNzwuSfvhLcxEj+uumXweDq4imqsyeTyh7lTmdEN7EHgx5wJBEr/ZxrrX0jUrJWSkgpojLkDAksWBvmY9JYEBE1+l9K0cLTarXqLTReJPM8lUDezHoN8rDSu2I5iMNhhl5NWY3P8A8acB/NAt+JS+C2xVww8thqTDn5NnUjuDZgfulk6s61YbHoWoscy+nTcZXS/UcCO0Ejtgb+InBiMQlNWd2CKoJZmIAUDiSTwEDniVVpza+iMVwlA1AN2eoSintVAMxHflmpw22HEBv1mGoMvMIzofFsw+6EdrriRnVXXLD6QBFIlaii7UnsHA4ZhYkMvaDzF7STQlodePV2M+zVfgMqPY16xP2ap8dKdrW7aLiGbF4M06Hk89ehms+bKGenmvmtmsL8LX5SIasafqYCv5ekqM2Rks4YrYlST5pBv5o5wjt6fiVRqftIxOMxlHD1KVBUctmKhwwyo7i12I4qOUteEkSI62a+YbAHIc1Wta/k0tdQd4Lsdyg+07+EgNbbDiS10w+HVejF3P9QK+6Bcekfmqn8N/hM8nJ6I7h7pcujdq9Ksr08TSNFmUhXRi6XIIGbcGTf2EdSJTtLcAOwQipltE1RpaNagtKpVcVFqFvKZd2QoBlyqPpHj0E3epWznD43B08RUrV1d2qAqhp5RkdkFsyE8FHOdjbr85hPqV/ioyXbJPVlH61b/NUgbXVLVmno6i1Gm9R1aoXJfLe5VFsMoAtZR4mb+IhLzZqd61w/2k+956TnmzU71rh/tJ97z0nCIpDbd/1lH7OPjqSydnXqzCfwh7zK223f8AWUfs4+OpLJ2derMJ/CHvMH2k0h+1b1XiO+l/mpyYSH7VvVeI76X+anCUJ2GfP4r+HS+J5c0pnYZ8/iv4dL4nlp6xVSmFxDA2K0KpB6EIxEChdddYKmksZZMzor+TwqL+1dsocDgWc2N+lhyli6tbKsNTQNjAa9U72UMy017FC2Ld7ceglT6paWTB4mniHpmoKYYqoIHnFSoNz0zE+Esv9MtP/R1P7iflCG+0tsywFZbJTNB7bnpEix7UJKkey/aJT2Nw+J0RjbBgtWmQyML5aitwNuasAQR1BHK8sP8ATLT/ANHU/uJ+Uhev2tqaSaiyUHpNTDqSzK2dWykDcORU/wBRgXxoLSiYvD0sQm5aiZrc1PBlPaGBB7RKk2x6xM9cYJGtTphWq2PpuRdVPUKpU97fuiTHY8W/7NXNe3lauTtGc3t/NmlS64jPpPEq28NiSp7rqlvDdBU31F2Z06lJa+NDN5QBkohmUBTvVnK2YsRvyggAHfc8JZpDZto+qhVaHkmtuekzKR22JKt/MDJgBbhMoS80aZ0ZiNE4wKHs6EPRqKLB1NwGt0NmVl7xvB3+g9XdKri8NSxCi3lEBI45W4Mt+xgR7JW23SmL4Rrb7Vhfs/VGSLY+xOjU7KtUD+sn3kwhya66q4IYXGVxhqXlvJVqmfL52fKzZ79c2+Vhsu0ZRxOONOvTWonkHbK4uMwamAe/efGXRrx6uxn2ar8BlR7GvWJ+zVPjpQLd0fqngqFRatHDUkdb5WVbEXBU2PcSPbMNdtO/IsHUrrYvYLSB4F3NlJHMDexHRTJBKz24N/3SgOXykHwpVfzMJVzqjq5V0piWUuwUefiKrec3nE8L8XYg2vuFieVjceF2c6NRMnycPu3s7OzHtvfzf5bTQbDkHyXENbecRYnsFOmQPFj4yzoFJ7QdnS4Wm2Jwmfya/O0ySxRSbZkY7yo5gkkDfewlaz1RpikHoVlYXDUnBHUFSDPK1E3A7hJRVq7dfnMJ9Sv8VGS7ZJ6so/Wrf5qkiO3X5zCfUr/FRku2SerKP1q3+apIE0iIhLzZqd61w/2k+956TnmzU71rh/tJ97z0nCIpLbghGKoNyNAgd6uxPxL4ywdmWIV9GYbKfRVkPYVdlPuv7ROrtN1YbG4YNSW9aiS1Mc2BFnQHqQAR2qBKq1J1zq6NZ1KF6Lt+spk5WVx5pZL8HsLFTxsOFoHouQra1XVNGVQTvd6SqOp8ojED+VWPsnUO1nAZMwFct9Dye/uvmy//AKlYa4621tJ1UGQrTU2o0luxLNuzNb03PAADdew4kkdpXsMpnyuKa24JSF+0tUNvulqaew5qYaui+k9Goq97IwH3maHZ1q0cDhQrgeWqNnq88psAqX55QB7SZLoS8xamYGjicXRo4guqVLrdGCkMVJTeQeLAL3sJbn6I8D9LE/3E/wBkr7aPqs+CxBq0wwoVHzU3W48m5OYoSPRIbep6cN6mSbVna0FQJjkcsBbytMA5rc3S4yntW4PQSUN3+iPA/SxP9xP9k+0tk2ABBPyhhzVqtge8qoPgZz/pV0d/7lX+zU/KbnVrW3DY8uMOzMaYUvmRl9LNa2bj6JkJbnCYVKSLTpqqIoAVVFgoHAATzlrV60r/AGo/GJ6UnmvWr1pX+1H4xCK9KREQlUm3XhhO+v7qUkGxz1av8Wr8Zkf268MJ31/dSkg2OerV/i1fjMI+29149XYz7NW+BpUWxs/+I/8A16nxUpeWNwq1qb0nF1dGRx1VlKkeBnm9DiNEY7harRc+lcLVQ3F937DL4HtWCvTMrTbehOEoEDcMSL9l6dW07WidquErNTRqddKlR0QLlVlDOQo88NvW542HdJPrXoRcbhamHY5SwujfRZSGVu7MBfsvCUJ2H11OGxCX84Vw5H7r00VT4o3hLQnmjRGlMTonFscuV08ytTe+V1vexI5c1cd+8Eg2phdrWCZAXWuj23pkzb+xlNiO+0IiZ6cxK08PXdjZUpOSewKTPMWisBUrHJTF2C5iOwZQT4kSY697Qnxy+Qoq1LD3BfORnqWNwGtuVQQDa5vYXPKS7ZDqq1FHxddLPVULSVhvWncNmIPAsQpt0UdYGr26/OYT6lf4qMl2yT1ZR+tW/wA1SIgTSIiEvNmp3rXD/aT73npOIhEJDNb9SMJiw1ZkanVAuXpEKW+uCCG7yL9s+RCVJU9GL8p8jmfLfjcX91vul7ap6k4TBhalNGaqVH6yoQzC44LYBU9gBPO8+RCIlkREJdfGYZKiMlRFdGFmVgCCOhB4yoNoOouFwqGrQNVL38zMGQd2YFvvnyIFYy1NhfzmL+pQ+KtPkSXMXHPNetXrSv8Aaj8YiJCa9KREQlUm3XhhO+v7qUkGxz1av8Wr8ZnyIR9p5NHrFq1hscoXEJci+R1OV0+qw9xuOyIhKqE1So4fGUAr1mC16VsxTlVW18qiXnEQI/rLqrhccg8vT85R5rqcrr3MOI7DcdkofWTQlPDYjyKM7L1cqTx7AB90RCKtPUvUHBoiYhlaq+4r5UqVQ7t4UKAT33lixEJf/9k=;" parent="1" vertex="1">
          <mxGeometry x="50" y="80" width="88" height="78.39" as="geometry" />
        </mxCell>
        <mxCell id="baAecIUNaESLLziyIisz-5" value="logs/pi-land/yyyyMMdd/*.gz&lt;br&gt;logs/pi-airsea/yyyyMMdd/*.gz&lt;br&gt;logs/pi-vehicle/yyyyMMdd/*.gz" style="text;html=1;align=left;verticalAlign=middle;resizable=0;points=[];autosize=1;strokeColor=none;fillColor=none;" parent="1" vertex="1">
          <mxGeometry x="220" y="24" width="180" height="60" as="geometry" />
        </mxCell>
        <mxCell id="baAecIUNaESLLziyIisz-11" style="edgeStyle=orthogonalEdgeStyle;rounded=0;orthogonalLoop=1;jettySize=auto;html=1;exitX=0.5;exitY=1;exitDx=0;exitDy=0;exitPerimeter=0;" parent="1" source="baAecIUNaESLLziyIisz-6" target="baAecIUNaESLLziyIisz-9" edge="1">
          <mxGeometry relative="1" as="geometry" />
        </mxCell>
        <mxCell id="baAecIUNaESLLziyIisz-16" value="Extract and persist into DB" style="edgeLabel;html=1;align=center;verticalAlign=middle;resizable=0;points=[];" parent="baAecIUNaESLLziyIisz-11" vertex="1" connectable="0">
          <mxGeometry x="0.5581" relative="1" as="geometry">
            <mxPoint x="5" y="-27" as="offset" />
          </mxGeometry>
        </mxCell>
        <mxCell id="baAecIUNaESLLziyIisz-6" value="" style="outlineConnect=0;dashed=0;verticalLabelPosition=bottom;verticalAlign=top;align=center;html=1;shape=mxgraph.aws3.lambda_function;fillColor=#F58534;gradientColor=none;" parent="1" vertex="1">
          <mxGeometry x="440" y="84" width="69" height="72" as="geometry" />
        </mxCell>
        <mxCell id="baAecIUNaESLLziyIisz-20" style="edgeStyle=orthogonalEdgeStyle;rounded=0;orthogonalLoop=1;jettySize=auto;html=1;exitX=1;exitY=0.5;exitDx=0;exitDy=0;exitPerimeter=0;" parent="1" source="baAecIUNaESLLziyIisz-9" edge="1">
          <mxGeometry relative="1" as="geometry">
            <mxPoint x="560" y="283" as="targetPoint" />
          </mxGeometry>
        </mxCell>
        <mxCell id="baAecIUNaESLLziyIisz-9" value="" style="outlineConnect=0;dashed=0;verticalLabelPosition=bottom;verticalAlign=top;align=center;html=1;shape=mxgraph.aws3.rds_db_instance;fillColor=#2E73B8;gradientColor=none;" parent="1" vertex="1">
          <mxGeometry x="449.75" y="250" width="49.5" height="66" as="geometry" />
        </mxCell>
        <mxCell id="baAecIUNaESLLziyIisz-12" value="S3 Search Engine" style="text;html=1;strokeColor=#d79b00;fillColor=#ffe6cc;align=center;verticalAlign=middle;whiteSpace=wrap;rounded=0;" parent="1" vertex="1">
          <mxGeometry x="490" y="90" width="60" height="30" as="geometry" />
        </mxCell>
        <mxCell id="baAecIUNaESLLziyIisz-65" style="edgeStyle=orthogonalEdgeStyle;rounded=0;orthogonalLoop=1;jettySize=auto;html=1;exitX=0.5;exitY=1;exitDx=0;exitDy=0;strokeColor=#CC6600;strokeWidth=3;" parent="1" source="baAecIUNaESLLziyIisz-19" target="baAecIUNaESLLziyIisz-57" edge="1">
          <mxGeometry relative="1" as="geometry" />
        </mxCell>
        <mxCell id="baAecIUNaESLLziyIisz-71" value="Retrieve Related Data" style="edgeLabel;html=1;align=center;verticalAlign=middle;resizable=0;points=[];" parent="baAecIUNaESLLziyIisz-65" vertex="1" connectable="0">
          <mxGeometry x="0.1041" y="-1" relative="1" as="geometry">
            <mxPoint as="offset" />
          </mxGeometry>
        </mxCell>
        <mxCell id="baAecIUNaESLLziyIisz-75" style="edgeStyle=orthogonalEdgeStyle;rounded=0;orthogonalLoop=1;jettySize=auto;html=1;exitX=0.5;exitY=1;exitDx=0;exitDy=0;strokeColor=#CC6600;strokeWidth=3;" parent="1" source="baAecIUNaESLLziyIisz-19" target="baAecIUNaESLLziyIisz-70" edge="1">
          <mxGeometry relative="1" as="geometry">
            <Array as="points">
              <mxPoint x="875" y="520" />
              <mxPoint x="625" y="520" />
            </Array>
          </mxGeometry>
        </mxCell>
        <mxCell id="baAecIUNaESLLziyIisz-76" value="Retrieve Related Data" style="edgeLabel;html=1;align=center;verticalAlign=middle;resizable=0;points=[];" parent="baAecIUNaESLLziyIisz-75" vertex="1" connectable="0">
          <mxGeometry x="0.2518" y="-3" relative="1" as="geometry">
            <mxPoint as="offset" />
          </mxGeometry>
        </mxCell>
        <mxCell id="baAecIUNaESLLziyIisz-19" value="" style="shape=image;verticalLabelPosition=bottom;labelBackgroundColor=default;verticalAlign=top;aspect=fixed;imageAspect=0;image=data:image/png,iVBORw0KGgoAAAANSUhEUgAAA1EAAACaCAYAAABIQsJAAAAgAElEQVR4AeydB1RVV9q/8/9mvjLJzCSTTDKTGE0sMbHHGrtgL1hAsYFYUUGRDlIFpTcRpVtBEMUC0qUjoKJSLCgi2BB7b9GYef7r3AIXuAixRJMc1jrrXO45Z5+93/3be7/Pbvc9mvH3+MnPzbgLbtxo1m2I4Sm3k2g/5XYR9aLcLqJelNtF1Ityu4h6UW4XUS/K7SLqRbldRL0ot4uoF+V2EfWi3C6/F728pzx5db8VRVDXHvL/fi8iEPNXnqN1z2L+1rWH/D9RL3JL1D2LeqlrD/l/ol7klqh7FvVS1x7y/0S9yC1R9yzqpa495P+JepFbou5Z1Etde8j/e916kUBUdXU1wnH58mVOnz5NVlYW8fHxNUdGRobkuvw+4fqZM2fqfCe/9lbPl8spzorAYfgYVuVdojLPDfVxDmxKPsKZy9I0vtX4yewsj8PZs2epb1v5tT/mORqr78dh7rabtFNVHI/1wNXBiGVhRe+e1url5a+VXxcuXCA2NpbCwkKOHTsmHqINRA28DQ2UFHKsJBwDfXN8UtLJfhtxEN8pal/UQKMayMvLIzs7+x3yHS5SXb0Nw6+HsTwgjbxyRZ/0MGmbVzK/wwy8Dip+/3Y/Z2ZmUl5e/hZtWNcnrKqqQnpc5vJb8sEEX6+0tJTc3FyJXWogSgAo4UJ6enoNPMlBqr6jL/xfVlb2Fg2rXFiXyw+QGeHA8LHe5Fdf5lL1Afw0xuGwKZmcM5ffufgK4kxLS3vn4vVrAUHD9wgFpi0t/+tP/OnPf+bPLYcx2W47Ry5WvdUC0zCeyvX3a9wnQpQIjiI8vwMaKD7CsSxPJi02xVWEqEYdWVGr74BW/6CgJTi5Qof/r9EuN+8dzYGomXgfenv+Rf10CDzwdgdM6vmEgl/45w70He9B/FuEqJMnT5KTkyPRlgSiBIA6ceIEqampDQBKAKn6ECXcJ4xY1Tf42/3/MuX5uwm3nchItxwqKyslx36vCWjabiAyu+ydc8QFiEpJSXnH7Pg2C7Cs18E9hozT1VTnbcZljjZ9xrqy9x0cSXwbej9//jwxMTHiSNQf1DEQndJ3xSkVRoK3smyJGd7JaWSVvCvxEuMhlhFRA4IGfksQdbmqgH2bvNDrYc2utwgH9X2affv2vQMQNQ5zuU/4jthG4CU5oEsgqqSkhOTkZKUApQyiBMf/nYOoqgJSN5kw6k//w//95S/8peb4P/7nz8PQXxfPgaq3CQgN3y0QfmJioghRNQWjHkRV5bDDyRRdlWUEH21ov/oF/o/wvwBRe/bsESFKhCix9/+taqCYY8dS8VwxlgUbdxKdW0yxHKRKiikuLqKoWHRmRaARNfC2NCBAlDAd7d3xC5SPRF2+dJETKaE4m06ll23cOxTfagkXvN1ZZ/V8whpf8e36g8ePH68ZXJJAlHzaXmPn+iNRguN/6tSpdyqzqwp2sclhAZ21gymoY+jDbFjQi4U264g8UPVOxVkQp2Dzd6eQv11hVlcLBWYMRo6RxB0poywlEEedWfRX9yaxTp6+7Xi+vfeLECU6JW/LKRHfq0R7cSsYYzIGtbWb2Jh+iAOHD3EgdzexSVtYl6Tk/rcKfmJ8RA3/cTTw7kKUKiY+sewrKpMsiynY6YHZpP50G25EyDvWWZyQkPCWB0zq+YRlUpuVn63g/KW354cJ9YgwI0/w3V8KogTHX1g/9S45/0fj1uBuOIr5oUcbxKtwkz4TjZ1w3VXQ4NrbTIMAUcImAW8zDu/Wu/fgMOh7Onz0ER9Jju8Yqu1MZMnbKyzvln2qESBq9+7d4kiU6IyKI1HvigZyN2DiMJNeusP4VjgM5jPVfysZ70r8xHiIZeUPqIH9+/e/gyNR0Vh2/YZ2NT7OR3z07VimO+6i+B3sKI6Li3vLAyb1fUKpb9hJVZNViW/PLxRm78mX4rwURAmOv7Cw6l1zMH9r8RGmRApTs35r8Rbj+/YKrwBRu3btEiHqD+gUiL3of5xedDGvxbwWNfBqGhAgqv4sKtF3+WW+i7D++l2bdfYu5GFxcTFJSUkS3/09Yc90YT3Uiw75LhTyyAuOv7CwSv6/eP5lwpTbS4ConTt3inZ8B3tg5Hn0rp1FiHq1hlV0TET7iRoQNSBq4PevARGiXs4vVfR5hA7bd23WmWL83tbnoqIihKmOwvslI1G/NCKC4y9C1KsLVCD87du3ixAlQlSzNSBAlFD+xN+J+v07AaKjJ+axqAFRA6IGXk4DAkQJW3T/Uv9WvL/Wt42OjhZnnSnxTwX/S5jq+NIQtWPHDoTdKUSx1YrtZWwhEH5kZKRoRyUifRl7/hGeqTx3jtCIzaTszyA9P1s8RBuIGhA1IGpA1ICogXoaiEmJJzZZ3LjrVfyiqKgoEaKU+KdHjx6V/NSMYFvJSNS5c+dqfldJ/vtKFRUVyI+zZ8+ieAiO/+HDhyW/ZCz81pF4vJwNBJoNCwsT7SdqqNkaKCg5SmvTkeIh2kDUgKgBUQOiBkQNvEADM/xMmt22in5sQz9269atHDlyRLRhPR81Ly8PYZRO0IwEooQf1BLWRAlblws77wnDVMLmEcLaJ2FOpHCzMO1s27ZtREREEBoaSvCGLQRv3Coer2CDdcEbcHZxEW34Cjb8o2nQOziEL+cN4HubGfSwnyUeog1EDYgaEDUgakDUQD0NdDCdhKqZluhfvYJ/5eLiyrqg9aIN69lwjX8QXl5eEiZ6qTVRAkiFJB0jNKdaPF7BBtbBCXz82ReiDV/Bhn80DXrtKea9995DOP/R0i6mV6xvRQ2IGhA1IGqgORqYZe5J1/4jxHbyFfyrT1t8jcW6GNGG9Wyoax+AiooKwp8IUfWM05zC+bruESFKbAx+qZZEiBI180s1I94vakbUgKiBP5oGRIh6dc2LEKXchiJEvUVwUqzIRIhSLlBFG4mf69pIhKi69hD1IdpD1ICoAVEDogbqa0CEqFfXhAhRym0oQpQIUeLw7DuigfoVf1P/ixClvFJrym7iddFuogZEDYga+ONoQISoV89rEaKU21CEqHfEgRZHopQLVGzoGreLCFGN2+b3rJvg1NP4xhzCJe78W+wAuUBAynHcNuThnVZNcPYfMy9+zzoT0yZq+veiARGiXl3LIkQpt2EdiLpxg1/8O0V1N5a4wLq9BThviMMqUH4kYBV4AJ+MSwRLgOU8a3btxzFUfl16tg7dx8qYc4RkX8YvOgX7OtfTWbX9BOtyLhCQXIRTTdh1w7AKzMRpZyn+TYDRutg8VkUdwC2+ktCcSwQkH8NtU/2w4li56zRr05Ub7nVXLq8Xoi7in1iE68aGabLfcZK1cYW4hB/AedepWltlnScw8SiOwVl47ivFdX0ytkrtnIL95iP4ZpThuTkO6yDFd2Thsud0bZiyfAjJvMCaqDhsguNwijmLf4YSm2adJyDxMCsU37npEN7JJ/GKyq77fc098VgF5uOdeoGgRvO8imClcY3DIaoI31QhLufxTzz6Al0pplHZ5zy8Usrwjs7CITSOFduOsnpfvTRmVxGaeAi70ESsNh7CK6nyBXGu92wjaWsIUS8oW3sqCEk4iF3oAbxSzhEoDzPjDKt3HsQpPB+PuKbK1nFWJxzFpY6uGs+DwOTjeITHYbMhHbekRtIkvD96P3byPA1Oxia8GP/sU7itT8JG/n2d8z7stxTiJ09DY+f0M/juzK6ti4LicY67SGBmGZ5habXvrBN2Ejahh1iTU4nX1iRsgxXzO4NVO06yTva+4PQKVkclYhVVSmBGlQRo1sXksHJjHLbhh/BMulADOSGZ51m3JwvrqFICMi7VfB+aUYbPjpw6cbEOTcE1sTEwOYdXcAhzZ+ug6lp3Q5HAvfk47ijGJ/nXgKtSPDYGMv7bUYwPrcQ/83JtmhrLD/F70UaiBkQNvAUN1IWoy4RkV+Adnlivfo/DNuwAHrGlrNl1ALtNR+u2MekncN2yH9fdp1iXWU1AYhFuYYrtg8zXTb/YjLZdqC/P4RORgl2dNiYO+3ChjRbay4sEpR/HJTAO6zptlPyd6azcdoy1v5I9XwaiAhOO4Bx9ROZrN+ID/Erxf90+uzy8OhAl7C7xS3+Mqy5EHcfGVo9+7T7iw1bdaNu5N2069uHzf4xkQtAhvNME56EQo/lj6PbNl/zrm96Se4T7vu0/nuHOhQRlXcZ05he0bNuWFu17SK63bjOc3morWRSeycqN/qh1Fp7rSdv2rfjgv//OP1p2olVH4Tsd1Mz34NJEptiZT+T78VqMXpVDaE4ZbkE+jPru/3j/i6418WnbpgWdpzoz1/8oPskX33jF93oh6hSrvB0Y/t3f+EebWhsLdu67bCf2vj6MUZ1O75m+mOytkIBkYEI2ttZzaffVDOZH7mbq4JF0Fez83Td88tEn/O3jr/jiOyGssfRW88QsZhdTOv0//vZFR77q0FNity9bqNBfNxDzOCFMeYG5hH/CfuYN+IDPPv2ADotjsNtd61xK7ks/w5ptMSwx1qVL+9r4fvXDPKZ6BjNr9nwGCHHp2IkvPv8X7//fp3z2rXBfX9p2Xs7SnaV1K7uadwtxOMdaJXFt2+5rOo5ZyhSPfNwTCnEJ8mWsRFc9aNu+Je//6W/846sufCXRVW2c2nbszJdffs5f/udjPq2JqykLwxKYM2MA7f/1v3ypYshM/9O1oJJTTUhGJWtWTODrr7/kT98sYsaaPNbUiafcXs0/N4SoF5StlfkEBVrQ9gs1Rjon45wi5MEF/CI2MVtrFn3HmDJvdVNlaxNLXCwZ0v5v/K1lbVn54pMRjPXJxD1VsZxU4rLak3HdPuCf33Sn36rTCpqQpTGlBNegQKZO16SjRFu9adN1MO2GmbI0egdTBwyli0SD7fj4w4/5+ydf80UHIS/G8cPEddi9yH4CnIUGM2uKKh9LykBP2nXtwEDDHFwTkligMYVeQtgdvuWzf37KX//egn9L4jCUTv1Xsjwnjxn9P+azL9vR4ltpPdSq1WB6TnZhacxZSVrW7s5i4fgP+K/xm2saCRujEXRr97/8o5sO4xxzaxq4wMQj2C/px/9M2IhzrPT50JRiXAK8mKSuRvt2co11p33PvgxZmo9HqrzjSUETaZmYmFsw6AcTlsYqfJ9TjbutJu00nZgbcLShrV9kq5e8Fhibg63xOL6ck4j3vouEvGQ4tXVF3fSI34v2EDUgauB1aKAuRF0kOCMLrT5/44vWnWklaVOk9W+3yTbMcY/G3GgRX387F63t8nbrHD7rrBnSdwbjLWJYmVyNq48DY/t/yN9lvm7bTn1o9bk6E1ySWZWs0FGptF4UOt3ymaPagi9atuELma/btv03fDdIg1ErMnDaexK/mK1odO5Ne6Gt+rY1f//LR3z4eXu+lMRZk2Hzw3FUGv7r183LQJSXhzH9tUxkvvbrj9Pr0MarhvFGIGrY8DEMcyqUNOSBycdYrv0ZH4zywWrHKYJlEDVGx4ZF4cqNKkBUj4WhWERJnQ2/LUFMHTeWDv2tMJT3aGddIDTKmZ7/GszYFWk4SchdeXj1jaQMosb3bUcXs4O1zsdmX0YM7UErFTNm+BTU9D7XD+t1/f8mIGrS8P6MX6fMJiewsZpPH9UJDDSIwmNvESu9HBnStRv9nAoJkPWqS9K2ZwtTRkxhgLoHxjVOmxRMNLv8mW8WJ+EaL+35dlqhQ++Jcxhhn14LEJml+G71pOv7I1GbOZJPVZ3QX19IQE3Br2RteDgLp6rRsq85S3bX9sB7r7ZB0zEai6hyab4kpmJqtJiu385izg5l6VL2nfK4hkZuYYbmML7qq8UIm+waZzc08yyh2xzp8uEAxrvm4lZ/RCk5B1tbAzq2UEcrqjauoTmHWTJjAP37daNFdx0GzN2Mk3wUM/sigQm56Ki0Qm2aBv/4YfkbhSjlZUuotI9iMK0nXw5ajM7qfHxi0tDXncnAMfPQDDhRq/1Gy9ZJHFwsGTVkAAPsD0vuF0YZbea145PRzhiGHZONNlcTmip19n9oMxJVrSn8c2QIvjnVtddzzuDlYcOIoZPpPTsEq3hp3gUlFeHsuBBVxwJ898mgbM8m1FU1GKS5GtO9yvJYyXfx8SzR1aBzp/FMDRWunyc4M44Z00Nx3FNWq7+9u5g3Yxa9B1mgt1sejvDePGb1/5hOczZjtUNaD7l5WjBMfRI9jRIk+m4MooYM7UaLNmPpOs4R/d1S7TaEqDI8nc1QGTKI77W8MIqSv7scv5hdaPZYgUVSZYNRXf8tocycq0N7rXC8a8qQ9Nn6EBWUfAyPrYmYr92N+doYLPzTcd9XJZt6d47VUcJonHBNOJKwDyuSdUZUEZJVjuemGJxji3EKScJack8CKyKLWCMfSU45goeHAf9oZ4xJTAX+WfI0iOfX1S6I4YhaEjXw6hpoDKKG2mSxStb21Nr5LF6b16M58ns+GeGCU3w163ZHoT7ge35YGILZdml7IEDU5OnDUVkp7bQKTi/HY6UGLT8cySSfXNzl7X+9elr6nlqI6jorANNImY+zay9L9abQ+vth9NBLqtvRGr0GlY6jGL40CtvEV7dJbXqbF1ZDiLrIurjDOIXI25AYLNblyWadncMnch/GS6fSefhU+sxfy/L1mTgLU9CzLhCUVIDd2t1YSNqV3ThEl+L3Qns1L46/NE2v4/43DFFVBO8rwt1kOH/tvwqjbScIeAmICs3IxGjpbAZ0m8z0DTJjNuroNW3sZkGUIPytqxnWdzID5oRgXd+ZVlowmn53Y5n260JUNaEJyejP16C3yhRUF7kxdWR/WvXzxqaOo1tNaLMh6hyrfawYOHEJKhbxEodZSGtQ/AFWmo/j/wb6YR/uh0oHDSas2MvKFJmDnJGLpZUBA9qPY9qmJuz3OiFKyL/ocGaqz6TrUAeM5XD+ihA1SteA4eOXMGacCfMjpHAZknqC1WsMaPX5MpZY6/Dl0LcBUTLbxoQzsX8nekx3YrLObAb2m8wA3R04Keq50bJVH6KqCMksw8NyAp8NtmfRhsIap99/cwiz5s+ls7YfVqtX0fMLDWburGCdfNpX2h60RoxGVd0Fg+gm8v1lICo5HSODRfTqosFE92w8JdM2lbyn2RB1njWBnqhNm0c33e345FTTKETNWcwILV1Uho2jx/wIyZqhBhCVFIF6/yEMnrEa411K4qWYHzWfL7DK1YLhY4fQ3TStFnpl1+tAVMZpnL28mThyEF/1GMC3PVTp3H8JC3dcxD+zEu/wLUydPIbuPXrxbY8BfPPdcLqrWjAntIA1ORcI3JfKzJ5/oaeOKUP6qdG92wBaf92NLpNsWBAua/BzyvDduZ7hf+/IRP/T+KQ1Nx3ifY21A+L3ojZEDbx+DfwyiKomNK0Edz8H+rdrSVeTZHQn96J152Vo+x+S1P1CHtWHqNDs84Smrmfopy1RNU3GIe5F6WgEooS6PDYRY/25tP5mIYsTFMJ4xyDKPy4NI0s9+vXsJmlDvu02iLatpjDBbz8eqUcxM5xD/24t+fBfLfm4dQ+6TzRm5roiAuIzsDLRos2XPfi2W3++7dGFH+ZsxGzr2WZMg1SwR027+Ha/eyMQNaRfb7rPCcDYOxwDZ1dGD+pN58XbZdNYpFOOVMbOYJxlFMbewrEbi4B8VgvTnnKqJdP5FEei1m3bzKxpmnyvYoORvCe6UUevaYM2G6JyEpkzaiCDxzY+ava6Krw3AVFq/TvSd6ncxsI5HbfEyppRIr+wEKbNHMInn7fjm84T0VIGMS+CqM5/oqWaM/NWhWPsHcDUGVP4YZotOuuOSB28zEp8wrahOfgrvrc9im/qUQymdqfLZCcWhh6TFpi98RgsMqBr9xWYN1UoXjdE5WRjuGgag3tqMi1EpptXhihPtE1tUZ82hcFmaRKH1D82HYNJ/WmxYA9uzotp94Yh6kVlS9Crj68xvQf35NNP2tJ7iguG9Uf1Gi1bUoga3qcTnbTXYewdgZGnN+OGDaDrgs3Y7yyT5nt6KbZ2JoxV12T86qP4bt+OtkpL/q21F/fkC9LRqCh/xvTXZeSiiKanI7wMROWcwTXAHw3VPrTroMoI2+0Y+yThknSRQMURkyYgqt1oM6bbbsHYOwitebPpr2GAuke+JJ2NQ5Qls332YGSgT79+WkxeW4Jf/el8gbb06KKNitFOVgmdDcL6sbBYWX24A2OfbLwyLtVrVApZbrEA1SFqjPZQGDlUBlFxe9CdpcsPg20wrN9rmZrMDJV+dNR0QW+z9IfS122LYv50db7pZMqy1FqI+qK9JlN8DuCRWo2r6zIGq0+nv3mybCTvPGtjE9Du89/0szuKR5LgGDRd/4r3iDYSNSBq4NfUQGMQ1UvLi9mr5D5SAvYRtWuMAhMLWGE9gY++/oZ//60NI1dk46JQl9aHqJCMs6xePZf2LcYx2TNXUmc2nsYXQFTOYVa4mjC45feMXqOgk3cJotJLsbZexpAxExnskCup94P2ncDVUYPPv9Vn0ZYS/LKqaTCdL70QlzXWdP1rB/qsOsoayRKfDPRMwrEMLqidEfQbakfeCET1b/9PPv6mH5169qNDx/b8e8I2ViWdlzkEUojq3qENX3ZRoVMf4VCn73g/bBUgquN4QzSXb8TQMwKdhfMZNG4qI63ia3oBhCHBNzqdT5KJv22IGtHxIz7tILexcLZGb2txzRDxutid6C6cSNt/d+NbVVssGgxrNzES1en/8fevevJNjyF06tSWVioWzFSY+hicsB872wV81WI683dXS6b7+HgspEu/uUxwSMZDmBa0fTu6M7Vp8TuCKAO/7cydoU3HfpYs21uCZ4gzXT+ZxNzIStauNnzjEPWisiVU6r7bvBkzpDctWgxlqH6YZH53ncq+0bIlhagh337ER2370anXQDp925LPx23Aend5DZwHbt/CzKla9Bq9CtO4agITDmJvpsZfvlqCQfQZ1gkQE7KSfj216f/GIEra+KyJikdvngodew7hm6/7MNB4BzZ7KgiQg1QTEPWv1l1o020wnTp/R+uBuqg55tSsv3shRAWdxHtjMNOnDOKbIdYYbMmtuyaqHkSt2x7HMoOZdOrZl/ZtWvNff57Nwviz9RoVJdCv0NjUGYlKysTMYhGDVScx3CACI9/d2ERXSDbuCQ1fRc/Wc5nimoZ7zfOFrHB1ZFRXDWaG10KUql0ezvLe0C3+TNReRq9FUXjKnvOPP8zS8X/mW/3aab11tFQTvoIzIH4nwqaoAVEDv6IGGoOoL7/tQ7sech9Jl0mWMTVr6oNSi3Fea0DnTz/nk1ZTmR1whNUKU84EiJo0vjtdZ62V+KkGLuuZOOJbOk5ejXl0ae2UcaXp/I1D1N5oZmtOoUu3aYy3i5Ck39BzEwZuZnT/S18meh7EPVUJRO3NxM50Fu+3NMEsp7rGZ/gttxlvBKJq1kTtK8HH25zP/6qKeshRfNIF4UghSvm6DWlDK6yJatWhC226q9Cl7zC6jDZhilNazRQxicEbdfSabqybPRKVuA1N1REM0nBl2c6mw30VIbyJkajG10RVE5p+guUWegwaq0JXjXlM6K1CP8P9Ekits0D8RSNRimuiIgIYOViTgQsCsZCskbrImq3bmTuhK//XYS467mEscQ/DwGox3b7uSW+dIMx2XSA0Zi9LdOfwTRd99JRBnGIF9LpHopITWDR7Oj/0W8jcCFn+voaRKINtR7G1N2LkwAkMXR6DjZEaH44Iwjn1IkF+bx6iXlS2QvcdRlejD52nz0VFdTiqI5cxxaPeTneNlq160/nSywgMtKLNZyMYvzoH91Rh45hzuLqaM2TwYNqMNGeekOfO/ujqT+Xf77VjqOthPFOqCI1Yw/B+GgyYHYxVchNl66VGouqGGbzvJG4rZ9H60+8Y6ZKPq/ydTUBUzZqo7WFoTtCil7ozy2LPSRygpiAqNOcYzr5OjP2+P9+oB2C8pB//Ld9YYqsXg3tMYsiizdgqrudMPIibtfarQ5RQblLysXO2Z0jfwXQeOJjvJ6/Bbs8lAgPM+a6VDhPrQNRxVnqvYnx/VdSDRYh6lbpcfLZu2RPtIdrjbWugMYhSviaqmtDMCny2CFOuv+DzRU5M7tqOXtM2YrLtTA0cCRA1btAnfNx+oNRP7T+GLtPW45BQ0Qw4eAFEpe7HynYJPb4egabi7KB3aSRKAlETaf1ZR9oJPnrNMZwufXWZE1qCT3ojEGUxhw+6OmAvzMBQ9O9+o5/fLEQJW5InZrBk9Jd8NS4Iy+gyApsJUYrT+ZQWwEYdvaYrrGZBVOoRHKx06dFXl5GW8Qo9tk2HrzS+TQjk14WoSnxCvNCYpI2KdiA2Ufuxs15G69ZTmLTpGIFZCtsVNxeick5gazKTgWMXM2HlfvxSj+LgZkPvNp/zZc+RdBtQe3T8rhUtBxgw1eMAa3NKWOlhx5jufelvmIzrvmpCZL85478rlRVRhXjJt4p+nRCVVoKLqw3DhmnRSzu8dk3Qa4GoatZFRDB34TQ+7z2LMSq9GeReTEBmFaFvDaKEPD2Lm9tifuitg6ZTOm7hEczQmEW3Mbbo1uxCVC1Z+Kl8lLceROVcIjijAEP17/hmnA+G4ScJSEpl4Wx1On/7HW161+Z5174qfNf6Qz4fFSirB3JZpj2BQcN0mex6QLJuSCg3wrbhflF7sYg6U7vByUtAVGDCYdyisnHcI/yMgZCmSoJ2bWHYd18wzCEHZ/m0jOZCVM4pHB0NGTl2OipmqZIOnaYhSlh7KC1bX302gH7jOvJfahtk05pz0NccycCR85nsmoO7fE3eCyEqH1ODWQzpq476Wlm6FOqVVWajaTPZQcnufKfw2rqGEZ99xGDX8/ju2MTobhoMN4nAJk4aTlBSGibmRvTtacjS2OZC1CXWxeWgO/zPdDXJwi1BcXfGN1NPvkzdKj4j5oWogT+2Bn4ZRF3EPyYJU8OZfNd1KUv2VBOwwZke341jsPl27CQ/jX0bL5UAACAASURBVKNkTZRCXdy03hqBqPRSvALWoDlegzZD/VihGOa7BFFJSSyaswSVsXYskbexinGVfZZM59NcynC7NCl8JuXhaL+Yzz+cwNSoctka6ZO4bC7AK/ZMM+Dz3dPxG4aoakIzygldb8rXfx/GpNX5eKRLR6IGj5zMyGXr0VslPZa4R0p24xN+J6r+7nxKBfmaIWps93/TaqJrTXz0zIxRHamBit4GzOQ7pygRidK4vcR9bwKixvX9ll4Lam0s2Np4UyEekdHoTB5P/ynLmbdZ2MKzEt+o7ehM6MlH/cyw3HGegEyZWJsNUcLUvBAmjtCkj7oXhqHb0NUewT97mSjs6icN0zdoBSo9RjFAJ0gyCiHAkukyHbp0G85gk/Uslmli1txZjLGKwjJatiX0q0BU5z/RYpQtWtZB0jy2tGbsxGkM0nJl0YZTtVMrXhNEhe7LxcpGl/YffcE/vl8l2Y5b8jtpvwJEKS1bkaWsjQxiRJdO9Dfejl2MMJpymlXu1gwbOZJu2v6SXYgkem60bNWHKAFOLhG6yZoOn49i3KpUbD2WM2ioGj10grGTg4oAR2mn8XKbRqu/qsjqgWrWbAhmmvoEuo+YyzhLqU4X2q5mupYmQ12P4CsZ2RKmlP7y3fnWRkSw2NyIYbpe0vxesZZFsybSuq8+s0OP1U7LaDZEVRO6K4rZ07ToMmg5BvEv2ljCktlBJ2WakpWtUW15/0//y3tj1tdsce4bso5p00fQc8xcxhjIyqmNGzrTRvC39iswS6y/O18Z9o7LGDZyBAPshHVZFwhKO4zdqvUsWbWeScN603WuN8u2niQ0uRDn9Ttl9VkAcy2XM2iQCjNDLrA2/RgWxpp0VZnFqAUeknvmG1szdsYiVE1j8VHYWOLF0/nO4rc7kglff8pIz1K83vDmO6+rrhXDefccETFPxDx5kxpoDKK6T13JDOtaH2nZuhRWRGZj42BG/+6DGeZdIqvHSzBfPJpvBmqhsTIF75TXB1HfDFvIBCN/aV1tvZLJM7TpN0HYhKHeutd3CaJyTuPk64bmzJm1bazgtzltQM83B6995yVrn9cEODJstAbdxlsy3zcO+90lrN62kak/dKfNWGfm2Yegt8qZiXMCMQ468sZ3wX4TGnvNEFWG81o/5hjYMafGiRB+jyaFeWpT0fY8hHvSSexX2jFhvBo9VWqPH9TmMtG7RPI7UQ62Okxxipf8+G6jic66SGhMBJoTLdD1L8Crsd23lACNq48jk03dmR8kbMNegU9kNPOm18ZFGq/FzPJtanHg66v4Xi9EncVzUxg6U+unSY0RVvEsd/di6qwVzFiZXDvCll7K6s0BjBs+Ga2gSvzkO20lJLPE0Akti+2sqHGKL+CfmMVSnYmoueTjXfM7WodYbmWL9pK1LPbeyWJTfUauFH6Lq76d8jE1MkPbZCPLZTuTBcYdwM5Or44mek7zxTi8pGbHt9B9h3DwXIPGTI/mb3WdI4urtho/DFW0xzwm28cqWQ90jtA9YaiPNWVhSFHDHcdSC3FZ689EjZUYxSpucX4CGxtT5jttx3aPkN6zeG2JYPY8XVTts2ptEBbAuKXrMdxS/MoVRsPfiWq8bE1wP4SHuzGDRrtgEHmsZl1caPJ+rBztmaRjzxL5lMZGy1Y5biHrmadvipa/vIIXetTSWKSpg7ZzBsYrFcuWYr7Xrwek1/zCI9FdPLs230fMpN+CbXhkVtVuh56QiN7SVWhbReMgH7FpoCnFdwmfpXHVniLP80n0GmqMXlQFa+VbdAthJGVhbuvBNL1QrGumkwrTEoswXjSdSY5JOO2VTt8TpiKvcHNHe44jSyOr8U84gqXpFHqbJtX8wK2zpzU6Dutrt6wV3iErW2OGqtPLOB6vRHl4wvszMLVajqpCXdh7tBZqHsX4S6Y/102Xl787EzTH8Z3uLvxzKvBP2IO2iho/SJ63Z/GGI5INekJ3x2NgtqzWrqN16G+VRlCWkF9CmPsxXGTAMPl71YyYZJ8sfVbyI4+HMJynwex1xbIffqwmdGcMi+39meqcLp1anXEM79BVdPzTcGaGn8FX0a5N5k/ddDWsI8Trok1EDYgaeD0aqAtRlwjOPILRAk0GjpC3D9LzoHnuzHOPxtTcAtXpoXVHguL2MGf2AjStd2IfU433pjCW2FihEyjvMPslcRXq4WJMl+igMkoxDrMYu3QDNvJ1qIr16N5d6GjbMtc9DRfFKeCK97zBzw23OK/fxqrRU3UCPbXWYycfVUpMwcDYhCEqagzQknFBRhlrI0IYq6JGb0n78+v62q+7TNWBqMdPfn7FH9v9JSIS71XMzNcLUaJtFW37e/3cEKLEfP+95nVNumJj0TMwpNtod2zf8siP8GO7NvpD+a9WlpglVtSsFaiJ6xts0MV3iGVd1ICogeZqoC5EiXZrrt0U72sIUaIdBfvUgSjgNw5Rp/HYvBdju3XMb+RYGnwQT/kam3eokRch6mUKpNCbU4S9y3r0Gsnvhc5hmG2T/67Ny7zj3X3mjwtRlayNzcKikTwXyr7e6kQcXjBXW7Fx+G19Poajmzvqw+cyJVQ2zfWt1GPCb01Fotm3Pa2XpeGXKq6H+m3p6N2t10Q7innzujXw60PUcVatiWBpI23UAvtADLeUsk7JbIPXnfbXFZ4IUcrL5e8Moo5i7+LOpFFT6NvIMdo69p10rkSIUi7QF1cAwrSrDBZPn8/QRvJ7kOYypvkdr51O91YczpdJW9PP/HEh6jTeEeHMbCTPhbI/bPEalm6R/W7V7yjPhfLgvysNGy8ftAPkUyqb1sqLy9HLPF+GT9Qu5k6WTmut89tbvzN7v37bvYy9xWfEfBA18LIa+PUhKhfjpaaMbqSN6jd2JuPdDuO777fT+SRClPLy1wCijh07RklJCcXFxRQVFUmOwsJCjh49ypEjRzh8+LDkOHToEMKxefNmljn4MtvSWzxewQbjdAz54G8fiTZ8BRv+0TQ4dakD7733HsL5j5Z2Mb1ifStqQNSAqAFRA83RQL/RmnzZtqPYTr6Cf/W3jz5hjNZS0Yb1bDh4gjYDBw7k9u3bvCdM5ztw4AD5+fnk5uayf/9+cnJyyMrKIjMzk4yMDNLS0khNTSUlJYXk5GQ2btyIsbExCxYsEI9XsMHEiRP54IMPRBu+gg3/aBrU0tKSQJRw/qOlXUyvWN+KGhA1IGpA1EBzNCA4ua1atRLbyVfwr/7+97+jpqYm2rCeDVVVVenXrx9VVVVSiKqurv5F66IiIiIkDwsAJv69vAWEUb2WLVu+fADik384C1y5ckUCUcJZ/BMtIFpAtIBoAdECogUaWiAkJEQCAA2viN801wJt27aVDKw09/4/yn2RkZGoqKhIkisZiRIh6u1kvQhRb8fuv+W3ihD1W849Me6iBUQLiBYQLfBrWECEqFe3sghRym0oQpRyu/zq34oQ9aub/Df/QhGifvNZKCZAtIBoAdECogXesAVEiHp1A4sQpdyGIkQpt8uv/q0IUb+6yX/zLxQh6jefhWICRAuIFhAtIFrgDVtAhKhXN7AIUcptKEKUcrv86t+KEPWrm/w3/8LGIOpWWRbJWz0I2baXgurHPLhRRIqvHynlz3lckU14zEGKL93hx9+8BX5LCXjGT0/LSFvtQ0rJbW5XHCImKY/csms8/i0l40VxvZRLVNwBDp+7xZMX3VdzrZrjCdtJSTzIqYrzlB7KJDy1jHs11xU/XOFEcjQp8XmUVlyg7HAmW1JOc1fxlrf2+TlQSXbQOlKOVHOtopDk1FzSj1fzqEGcfgbOkRMSQErBJa5WFJGalktqcRUPG9wrfiG1wAUOhIeSklvOpYoT7M/KIb7gAg+UmucihyI2kJJTxoWKUvKyc4g9eL6Re5UG8Ja/vMe18lxSQsPJrnjM87Mp+EUVUHn3Mc/ecsx+y68XIerVc0+EKOU2rANRN27AgepqLvyCzSXqbyxxp+IA6RGuuLrKD09cXZM48eDHGqftWkkce5ISSCu9IYnV45vnKdwjv19+3sX+8muNNKj1E3OP8qwowv3kz0rP3v4b2FVym5+f36Bwuw9+norXw9iTeZprkqCe8ejWGXI3K14XPm8n/VgVdxRf9+wedyoy2ezqiltNGl0JSSzizHW5W/qE2xeOkLq+fngxHLx4W2mF/jog6mFlLkmR62psv3ZDBPsvKkT+bgmJG/xZLYv3prhcTkqzgJ/uX+Nc9saaZ4X823nwIldkLdXjyyXkxQTKrq9hjX8mFYDgPrzo76dHt6jK3Sx5bnNuFbce/VRz+6NLR8naFVDzztX+oaSdg5//U3NLww9Pb3PtZCobFWwfU3yb24IneqWQlOjQmvBqNeiFu0cypY+f8rReiE+qj3MgNgifkHDiTih33yR63eDK2oh4ciqUN92SYB+cIX9PGOtkcQsI383BKtkL//Mcbh9lj78v3rLr4SlHOHOrXoR+wb/KIeoa+9eas2zcMBb7RJJz8SaXT65n0d86YZXzlDtJlvSe4krw/gqJA3rrTDYp4Yo69cHTax+nn/5U02hfKdxNdPRuUoqa6+g9ovp4BrFBiuFKP9fXQNPJvceZjEjC6pftwE3sOda0C/30ziVO5+/GP/N80696hTvuluxiQ2ox5dcac4Uf8uTBbgw+aINFdCXnUtzRmLeSFTuLuSm8995FyvdH1WjXzd2DuNLHPJAJ9mpxDLuid5F09JLE2X529zJnDuzCL/3cy8X63kkyIkPxk5cjv3CissqbWd828srsFajOcMZn3+m6dWYjt0MBG3WmYKS/jvjMVCI9zPhh6U6U59RhwhZMx1B3NbFZmez0NqXn4h0N7q06GE54gCuNla3//PycO4XbCfLzJDTlOJU3a2uEH2+cpSS5bv2x98QD7smq9br1ayAbIg4hrV6FMJKwbNkF8w2FlKauY4H+Cow2HuR6g7QL9V8KNm2/xzzoEMdTA9E3sEc/JF/WFgE/PeDhxf1scXXFXZ4/oSkUVN5sJpw2eOlv/IsMXHoPwNRzHwVpYdha2KDllUG10lRl4T5gCKYuCRxIj2CllTVTXVO5LNz75A53j8XWlDGhfdiRf57qelX6oxsVHNntiudqP5LOwo+1TRbwkEtHk9gV4EpgRAyHJAHXi8ilfKK3+OMaGENqyWUJSD+4cpqDO13x9PUn8uhtnj2vbeQelGexNzOXbEljcJHiva7odxiHe94tnsYt5B9DvUmqvKkEyOu9V/y3UQu8CKLun95H9EbfGl0Eb4vjsFxcPz+D2wVEr/HGS1YWI9KPUSFzCp/erOR4St06I/bYXe7IepEenssnJUrukwUQGn6QC43GsvaCpN1KW4/H6rVsPXKbH38SOl+kfw8qcoiPWFsT33Wbosi9JL/a+FkeV0+/ILYX3uG5gqP14EwGe8L8asIUfJcDct9FFqQIUcptWweihFs0w/MpOXuh2Tv01YeoiiQ3bGd8S5/JBlhbW7Pc3AK9EZOYbR9N7pV7koqgZKMOUxbOxWh7qSRWN09nsH7OP2gzWp/lVtaS55ZOmsFc40B2FF6gaT/zEnFWo5g+dhRTFkufF97t4OHH1iPXef7sJIGjPqTrsGnMW2ohCX+h+mRmLltJcPFV4BHXz8Ti3P8vtBihh7H5csk9c0eMRstpA/Fnb0utd/8y57JCsDHQQGOGNVayuFovncT4yQuwDEyjuErw5u9QnrkWs4H/poPaEklYQny0BwxGOyCeAjmZKOTJK0PU/dMkBbljbWyIkbU1ZotmoDVuKJOWZ1PJc/7DWTJWajFlwjwW6ptjrTueqTP1MAk5wJlbt6gq3Iub3kL0rK2xsrZmiVoHVKevIaLgCne5Tkn8ZjyXLWWZtTWm+kuYrjKaeUlnefC0MYy6x/WK/ex2ccTFWZ8RLd6jv3N+LWg+rCAnwg87QwMMra2xWDqPOWN6oaK3j1M//VzjwCuYCLjLlZKdBC1SZ6hg1+WWWM/oxeBZvkQevsqtc4eIDfOtsbdgc1P9OYzv/hF/7u3DobuPa0AernJyXzRh7naYLBiD6oCB6GxVUr1dPkSw0zxG9vqMXhPmYJ/Y2E54lzi83gL9qbOYOccY6yVazJ8xhWkOiZTcfcpPP54gebk648YtYImBBdbzRqOuZYzd1kIqG/O76ya+wX/KIaqEXRb2OCxeT8594ZG7XCuLwabDKFaXPuPevroQVRZji/n0TvSfukxiN0sTMxaP1kTHMYaCWw8loySXD0UQFhZJbKO9v/Wjdp3D4eYsHd6FEXNry6OQH/4ZF7jxsI5XUv/hev9fJNZclanjxjJVrzYsRy+pM1Lv5gb/PqzYz07XKbS0zGhw7XV+cW6DOl2XhbK3WNot0zDsJ/z4MAuH9ip4ZV6iKkMBoh5XUZbgg732GFR0hDRaYGU9g0XW2Zy6Ju2Brj4cxdawreyR9ao/On+QWDd1/mWW1vBVTX1zPoONbpYYLDHD2FRqU1MjE8yd/IgqVd6R0FSQkuu/GKJKiTZahrNjOFkFTUHUaXabG+Nst5GMw41B1Hm2LxjNxB4t6LnIk8A8CZ7Kov6Ex3dLiHdywne1BZO6fsJA4zD2nZYUEnhczYnUcFYt1WOppN0yRm9EC/ppR5J2Xmi3LpO7aTWrZPXrsjnzmKExm+XZQp0hjBEcxL3PWDz3nqQi+0UQJdSXBXgNGI/H7mLKs+tB1MOrXM7bioPRYubrWde0hwZ6S3CIzODIleaN8TUrv34zNxUSMG4a7lv2czy3KYgqIlhdC7f1mRTnKUDU09tcL9rB2lmD6DHdGnNLQfezWGK9k4xiRTi9x/n8SOx6taB7vy70Wl1er766yn5/XbQ7/5V2A6czf/2pBqOhlyJns2B8Dz7po18D0leO7mTNlP/hyzZdaT85kmOPn9V06FXHWaFluRLbmDLgGqX71mM/bD4bSkWIel0SbRSi7h5jh5sd5qYmmFhbYzJ3ApoTpjDfQ+gg+ZEf7xWSYDyWEWMWsszIEuu5I5igZYFT9DEu3LrCqYxInJbosUTwmyxM0RvZigFa4SRX3OEh1RwI88PZSOqTGc6bz/RJWpi/sEPvFhcKU9juugJ7S22GdficwX7l3Hsi87PunyLe3wUrYyOMBT9v4TRmqo1kiu1+Gu9Ou0nlwQS2ua3AxmQaw7q2ZVRgRS3I3zvBntUrsTQxloRpukCD6ePHo7Uqv04nlQhRytXYAKI+H+1HatEZLjZzNEoZRLmaq2O0W4qxPz+9z818S4Z93B+72NOcewTKIGrL0roZe/fYWvQHjELfaTcHm6QoKURZrlyHpB6qk9ZnNRA12jGJIxelEyyuZ3phZrSQaWvyuC+DKNeh/6S/bzk3ZU5e1U59Ji20wn7XCR7xhBvFO1m/VJVeOqtIPKswYnL3GCnOOkyYaI59ZAnXZRBlM6Enmptq+1XPbZhADx03NudfaNCj+MoQda+UrJR88mXTQn68fIgkl9n0aL+U7Tce87x8DeM+H8ji9XmcvPUUruaxebk22gtsiDhxkytl+URGFUqAVegju5NpxfiOU7DcnM/pJ9coKyzmYM5ZBJfjwcUiYsw7899TIjh7/8dGRqOEaQlZ7PL0JDglAd/+7zHUVQGiHpRzKCufzAPnJCNzz26eoiBwDt98pM2mK894qIzN7hSRvtaIYV1n4VF4B4ReovJw5vzQjWWbD3Givk6e3uZifjgmKj0Yt+UM935UDLSa44mRRG7aTICfHcvVlUHUXU5tWISepSXTp45FZ3YtRD29f50Te11YtTGf8w9+5KeLkRipjkd7eThplx7BnVL2rzdn8nANvA/f5lGxB4Pe74PBjmOcu/cMLmewdslk5hh5sqeyjmCb/U/jEOWJu9F2iiQhPeJmZRa+I0bhe+oZ9wo8UFscwq6CSxINChC10lILqzhp19vzJze4lG5K/7/0wTHtIkKfQPWRHUTGJZBxWnBKhVHWkxzcvYO888XsdXTEydERR8dgEkuquSHptZdClMNiHXwLlCXnAge37iZrdzRhYUE4OgayeVc2xecOk+S9hf37Y1i1aiWOjrs4WHWMSHNVLJxDiC+vF9bzJzy7mk+Yy2ZyKu9xX/Bl75eRv3sPexNzOXg0h11O85k2vCMfDpzDylWrCN1/mTuPK8nfsovsPTvZvDkQR8cgwmKKqHp2h5unUwmVpEdIkyM7Cq5wXT4n69EFTqRHsU523d13LQmllzmwaRVWkzvwr74Tmalvgd/OHIoknSmK8X3K00fH8R+mim/uJaqOBKNr4Y9/wmke3TpIrNM8xg+cQ8Bx4Zln/Py8jMQtB7h4+5HERb9ydBdRcXGkll7i+pk89rjoMnNEB/46YLYknqHZl2T11n3OZm8nzEcaf0dHP4K2yBtDQf/lpBmOYvxMZ4KzznNV5pM/uXKSY/kJ7D0ujO495/mzqxSEueDpLA8nnISCc9JRMyGKglNamkKIxBZCXoWStsGQnlMUR6IeS+IaHyAPwwVHxziOPXgi68yoImWVOb6+4WQdyyVmoxvqtvsko1jPnz6mPMEJz81ZlF5/wFMuk+pqha/XRjKOHyBhiyvjlyfXHfE6v5H5Y5Zha7aAyXNssQrIqx3d4QmP7hQRs2IF67NzWDPpayZZKUJUFWWF+cQmlkqc4p+f3OVm/AK6faSBe1Yll59VUZh1lBJZ/XqjOAZ/w8G0X7qX25JOqnI2qKvhm3KSiqNhmK/ww3V7iZIpekKP8lk2aU7CN6GY8sIIbBzXsDKiiAfc5WphFEFaYximH8mBW/BM1gF970Q8SfnFHKsWOumasqtUA+kZscTFxREmySM3vNfu4sjt2nbr7vG9bAlwl+jH0dGXTbvzKbv/lPtXj5MXuVYyClPTAX4pjx2x2WSVXuURj7l2+igHE2LYX3qQXTUaiOHI9UscTVxPiKeQ52sIizvM2ZqRnp94+ugSBzc64uYk10QEKcUXkXZT3qHqeB7Ja8NJS4vG0dEJR8e9FN8tZdN8LXx37Od40W48PXwwDTokaYse37pAYYwnLmEFXH32nOecZ8fi2fhGZlJcFIuvtw/L1h3g/sMKTu60RPVffbA7BI8kc+POkRd/mNNnb9ROqb13kvzIlYzqtYC1/ov5sqcPh248rNP5JkCU6ZRejJhmxGQNL7IVB8TvFOI/Ux1Xk6n8MLN2NFKAqCDdFgyYacCotgPQ2nmcKw+lo6B1IeouFft34Ks1nw2n7/A0z4bO0zZRcPFOIx2LinWM+LkxCzQKUXeKiN+TT7FMA4/PJrLJWBtVVQfir13jRr4zPd/rgVFcOZcFv7AqBc9545m33J+E09WcLc5nT/wJST3089MH3EpcRK9PNXBJLePS0yqKcgopKpTOHrh1IoFgowG0Xhwj0XvtWKRirG9y/nACO9auJShqA87D60HUvROkJ+Vz8Jh0qvCPl/LYu1KH3p2NiJb19SuGJv18g7N5sWwPCCQozB/H0XV9bQT/NS6fI6eEsg1PzmWw3XoWA/osJ0ZhGpYIUQ0tK3zzxiGKnx/DzTBmf9YB07ATnLnTPIjibiJOo0agbxVBRr1hxYZJ+aUQ9YBze53QX/AiiLpL6XpdxujIIOpxJYe2OrBgmAb2dWpNWWwux7Bq6mKWLt/OoYfSkahaiBKKyy0KPdToOuMNQVR9o9woJs/fUAJRUVfuc33rZFp0tmBj0SVZg3WN/BB9zHTn4ZYl641VDKPIG/WuM2UQpXjhAddPx+I7titt9JKofPi0EYiSP/MjD2/mN4Qo+WX5+W4FZdtMXwhRT04nsMlyFl01QiiWPCd3SFqh45FA/oXaqTnC5QcXD0h6678f48ahW1DjEMjfKTnf5mSCu1KIuluyCTPjxXhui2azky76ChD14PJJts97nz8P8CL7yj2uJpoxasQyrCIKkMpVqgEHjR/QDSvlwnp13m9rxc5zNyWNP1ST4aWF0VJT1h2o8TLqxKypf5RC1JUk1pitwswhASlzPOPxnfMcDN/KwRvP+fFWIXszT3HhqnT4qz5E8fwejy+sZ9r7bTHfeY5z9+FooAZqC/VkPaVCI78Fh+HdUFu6HBtDRxwcHDHRGMGkeX5EHhb01RRE7cd35Eg0Oo9FY6EZSyUQFU96xmrmfPAdo8cuQsvBAbtmQNTTy9n4TlJhksNe8i5d4tgeW8zmL2NFcOoLICoDL5VhqHdVQ2OROQYSiMqmqDKPHa7eeMggyWhCewYtiyS5TFg/doWTMZ7Yak9HQ9scR0dLbFfos8Qqlvj1K7FsEqIEMLlGQdgWDl68x/1bJ0nPP0HpuTvwuJycUCu0ew1lrksMR5U0hkWh05m0UBeLXUUvhKiq/HXYmQmjzUYS59jGwAi9WQYYRxdx6+cf+c+trSxooYLjzuNUKB0BfcaTu2fICtRHbfIsrKxtJeGYa81m3iI3gtJOcZUn3CrfR5TNRIZONJY54VbYTBrEV4Msa6bz3Tqzj3BvXabOWii5Z4WtLYZjJqK1NpWSmw95iuDsp3LwYAnnb1VTUVZIYr609Dx9eIskvf/m0yEr2HnyCg+5T0VuOgfzizh36yrnzhQSn1d3DovQSTVmWSDbsxPZaKbHMkNvdtZ68LLiJNTFFYTNbFsXouoXtqf34aA13T+eIoMoxRtuU5ERiP2EYQyxz+Y2P/MfoX7fvo2DZ69z+9ZpcguOU6R0rq7w/tsURW/n4Jmr3LpVRv7h4xwVOiienKEgwhHtrjqENtqt/JCq4hgCVyix6/Iosqvv8hABTtWZNXYIGvNssDN3xNJgEdNHDGBy5FlpD/Tto4Tp6aFnaIKJRO9yiHpAVfE2PMa1xSAFnsgHjQ8ojJxyi+Oxq7EaPRhNIw+8HVfgsMKA8e36MNVgHibWNqywd8Ry7gy0F9rgFC+dJvrj3UscidJn5CRtbGztJJowmz6LubYhREngtJJDkQ7M+kc3xk7SR8fRCQcJRFVzZO9uDp68wLVbq++94QAAIABJREFUFRwtKiH/uHSi5O3yXNbP/ifvD/On+JEwXfsOJ+NjOHj8HFdvnaOopITckmvw9CqV2f7Mbd+JMcs2kH7pCQozy2sy996JvUSsnMpw+0TOl21Ht2UPzBNlDrTkLulIlJ3RHMzcglg1RR27rFpP83a6BaMnOLPFx4SpClM6JRBl2JXxqxPJch3HN33M2H3sBkJ/Wl2IkndS7aXw1o88v3GQrUll3Llft22ribD4oVkWaBSi6j99OZsddvoSiIo5V0lpwGTea2lDwrX7sg4RadkyMLZn/eF6FeizR3DIjj7/0pRBlGLgdzi3fz0OE1Tob5P1AoiSP/OQKyd3NoQo+WX5+fpRsnyXNQFR8pvvc/FIeEOIkl+Wn68cIMF1qQhRcns0cW4AUa9jOp/iSJSwJqZs4wi6dJxPcP5Frj9rHkSd37uUKcO1sQrNobzJldfKpvN54BOQRQW1I1G10/kMMTA0wMQzjNhGp/MtRW+pIcuD4skTpvPdKWSfjxVTBtqxV7HnqcbA0jn7RgtXE1tZfzqfFdbWeizUM8I2LIdTb2I6X008hA+PuV4UTYj+eAYtjqX8yT3O+A3m8+HOModEuOchxRGmWC6pHYWQBiEFvqNu4xgxxY2Nueel0xVunqYgLgRra0P0l0xn0EhDwgrqztWtE4Waf5oDUT9ytzyN7cuG0Wnadk49e6601+1O8U7WmmkqrIWQOiQxeq3RcNxGZrkijNzhbFYgVsO7ora+djSwJlo1HxqBqFsFbFiwEL2ABPZfKpdM4VCEKGEk6mScOy6bD3DhwY9UbpuP6mQLnGKPy6afPuFC/mY8Zvdkkm8uxZ6DeX+wJ2mX7sh6PR9wKHg+Rob6uKY2NgWsJpJKPzSAqEt5RIf4YO4VQVQzp97Vh6in96ooDhpJu3a6bC6+xq1nyiAqGFvV1ow0jKbgthRO7x7zZX7PGdiGZFP6WNl0vhVYW++h+P4TniBAVA9GDTDBJ/4s0mV5lzmd4cqsD1vWm9KpbDqfJ77BOQgDeP95/iO3jzgwoZcapjaWzJyug6H3dnIvSSsN5dP5svFS6cqIQRb4JVfKRlfucb2qlMy9x2tGN+6kmzG8rwVBmWe4fiUR3wWzUJ/uQpTEMX/E/TunSYk8ys3nP1PR5HQ+pVko+/Ix18py2b5iATOGdGPcEnts7ULIqqp19Goh6pTkGaXT+e4UE7pAjZnL/Yk+ISWxH28Wk7HBjDGDbEm59oifDwqN/GL8D1UqjNIoxO3ZLa4VhjG/zUB0dh/nqqy3/MGZCFZOmYu+6Vbyb16gaJc3i1W0cC8SHEihHFaSvXwSXYctl0LUw0oy/C3R1VqAbZp04YgwK+HWIWtGdtZlfd4Frr/ALxRGos4mueITls0pyUiUQhzrfxTWG946gNu43ugHpnH0yi1ORJqxZMEiDDaX1FvnJcS1KYj6iaf3z5Bn3p0uE4JIrrglXY9y5QjJkWuxtl7CnHkzGD9zZbPW5dWPbqP/Xytgn6cZA3u70Ojk04cnSPRcztwpJnjIFuTU2PXjyXhnVnD5qdTRmz1eE4sNBZKRoEcXD5PkNJKPtKKoFkZszm1gftfhmAZmUVLLAELXUzMhygmz4X2Y7pDLeZ7z809XSTXuTMtBk3GNLeXyfXh0eAMrFsxnrFE0pU9vI0wLNh7QjbFh5dx+LKWz+6c3YqW9hOWeiZx4KECUBTP+1UU2DV2qrEbtJbR0ty5StNcH961HZCNRjd39lAfXT5G2djmz+rRipK4pxpZriS2somYp8+MqDke6Yqw5jVW5t/jx7hkSF7ai4/wI8i7clU2/k0OUET5RyUTbTqT//F2US0Yjy9g+Uw1tnxQOxrjXWRcnhaieaG44zY9V2TgMaouazS5yL97jfJ3pfI3FX/z+VSzQPIh6SFWGP666WmjYplF+/Qz5rkN5r78v+Tflo5H3yVszHX0Tc3yzFFc8/sSzR5XkL+9N94n+xJ2+IYWuq4WkRq2T1Bnz5s9g3DQHdpUodSDrJa85EPWYa4cjCdCbhOrSuBdM55MH3RyIekR13gZWL9JkjFmyOJ1PbroXnBtA1KtuLCFdE9WeXupLsLS0xMzUFM0JahiHZHLqlnRqirLpfOvnfETrUYswt7CUPKc9TRN9961knLleO9TeaEKkEKU1aQKzTOWL2f0J3ixMY6mFqO5j5rJ0+Upcl2kwdpIhJiEFssWpsjVRA96nlZoZdo7OuC4aQb9xDqxJOSN1suQQNcCGGCU9xSBA1EyMF61h7zkpRJkPbkGXKZa4Oq/CdV4/Oo7yIfrYFdlIRN3EvPJ0PoXgbpWnstV5FlN1zNly/C7Pn9yjvAFEPaBoqykWenUh6uefnlAWa8D0sZOwizrImdsyT+d2OUWpWyULD1c5r8LMRlg7tYeSR0+5enQb/p4rJPlmaenP1sTjCot+m4aoexcPsdd3NhPVFxIoW/B4uyCM1a52sjCDiEo7RZlSiLrJ7kWt0XCoC1FPrhwkzm8xo0easPtFDEV9iBJGt25wyHcyCxdtIfH4De4jbTgVIUrB3JKPFxtA1GPO523CfVZjEHWPg0HzMFz2GiGq+jBxm3wxd9/CltwKpTqrH2/JmqhpHek3ZanE1ibGxkzV0MBkYx5n7z1BcHUajkQF4zqlN3WXGQlgMhQTxz3kVkshatnoHqgtkZdHxQ1mpBC10GQzScLuJJI/KUQtbNkBo1TFUUMpRM1QV2e2mTwsxQW6Qn5Vkm0xniGdWtNFew1bDtTuePciiFpoEUmqwlTKp7cvcDLBV6Y5SywXj6bzJ7PxTD7BpZKNWCwwZrpjAmflUVY4N70mSuHmRj4+vFZOwS5XnB3sMVUbyMgFq9l98hZ3nkKzIOrCVowGDmCIiiazDaX1qKXlEnRnTGBI25kEnn7I80Q9Wn66kNWNQdS9c1RGW9Dm/7P3HmBVJdned3/fe+e77+2+M3PnzvRM59ttZ7vpNrZZ24i2OWcQQTKKgiAYUFFETCiYEZWgYkIwgCggSEaQnHPOOYP+vmefAAc4KI7dfadnznkeOHX2rr1q1araVfWvFeotA27WN8uYo6XhuU0Dc0MbboYKi30jxvRc7Mv6RJU9wnnzcsZ9MY75elJejDE1XcwPb41lu0caOVIzyT7k0d/Lz9ubqbinw8ihmhzzTae4FRoTL2Gtp8Fyg/OEd3PzejmIaq7OI8JJg8mjZ2Htm0WZVGVRGou/+znRGLjTcifG5rvZd+gBaRIY2V9++8yXF4inhSZf9JSr7APZd7DXNWSRiiNdlrLCGB2O9dBvML+cQGq1GESZbbNG4nYMFSkkXtTnj8onSRQ2qYQgQ4e00FLRRUvHlH2OtwkUbQ70H0RZqs7CKljM3POONjJPKvOp/kWJ2S+Q5Ia1miaTBV4bc0jzMGf0f3zKZE1TNm2W9gkVfvp2CuqbnXlUJgZRmt/9iEWAbKV/vnRbUw1p9/ZxyGYfpkumMVd1Byd900Rmy03p93DcqsG0ZUcJroVnLTVUeWkx5Ou1nAzKpVQ0FXaBqLOPU4h0MWXKp/OxS2miI+UwysP0OBuYRWlId7+4ThB1Pgdhjs3y0WL2IGU2OQThf8FIxifq56urglKXBPoDokpj3ThmugLVDdbcTK2jRS6IqiXIdim6G7uDqJbaQqJcNZg2dhZW99MprpeocMviCfAQB+zaZbkL46272Gtzn9SONspCzrJv91bJfOOAe0imZENR4PvlIKoi1ZsLu1exbK0ZLgm1PGttpDzoBLt3mEtoOnLnSU6XCTYvB1HliR6c3r6SVdo7cevhH6sw5+vqT7KpXiCqqJ++UNJ88nyitq/+lnEq27CxscHmoC02Lk8obGoTLciEwuWBqHNr/8wXC7awz3q/+Lnzfq8QhvkVzflKg3AwUkdVz4pLIsdiMYjq5hOVfw+LRXPRsHLFV/Cjak4m8KwxK4cs4rDY2URWjpB/g52LtNE1u0pEYw9zPsF3J9sNzdET0HHwJ1bsONLt+Z8LRJXG3cFhtzqq+mYcl4QLftZSR9Wlxbw/0BiHaKn9udicb7OmOvsDxBqc1vpyYi9vYvmCuWw85UNcqeCL0PvTXpNNktM6BvxuAafS6siNvY3L2aPidrNxweNRqswu94tBlBAdzu2AFqs01mNzW2xbLCxzauLcOX/qiITmJe4EZ1CQeo+Lpip8N/cU0SK2usz51hy4J2POV07ynYNsXziX1afEPg69ayG90hNECTUOYe/3/83Y6Sqo6RljbKzL8infMeibbxmlsodj7rESk0gpDaj1MkF5sgFbXCIQGxmJ+8CuBSPQckkh/9xC3vrYlKtZ5ZKdcbE530YDY06E9TAL6CL7wlQvTZSQu9QH+817MLG4I1rcvZAAIIAok5WDmaS2XSzrw3YccYumVORfIH66/yBqKsaWHgQX98ecbwivAqLk+kSJ2BP6QCpeempozB3LyPlW2N7L6IyK1m8QVZNDwo1jqM9dhaYwbgl/WxYy9K9qHJSCqLWGLO1Drj8HiJK2lfC+loUdZvk3A9h0LZWMmlcBUXNZuFQPU2kdRN9HOX7mNk8rm3mWacecd0ezxS2ObopbaeF1OWTfMOOLXiAqhVtm6zA3PMitiEgeHNrMhJ6L/V4gSpMZQ5dg0I0XQbZO+KdXUSPyS5EW/Pd+d9DenMtd7c9497OxzFLVZoOxMca6S5g+9Dt+mKaPbTcU9WIQ1VCcgt8ZA5YsWY6JyxPyZeYtWQ5biyK4v1+NYV/ocbkCZIKtyWZ7tXRtPIFnjJiutIJTPf3/pJRy73FCbxNLe4EoYcz6nm1uCaTV9ANECfQEP9orjtjbbMJgnTqmO10IKfglQZQF4/5zAmttbLDq1ifOcsM/kbzGXx5EScUoqn6CM6YzR6F70J3HRQ2k37Vhw7SveX/oXLSEPrRpA8YaExnwHx+x0DaIeBGKkgFRT+spibvB0aXjGG0TSbzNEIbpXyEwu4bWyL5BFAhjVjaBW+YwYYYlu0yW81NnYAlZDhXpn0sCLwNRhWEuHDJVQd3EGucQsZ92e2UWKScX88Z7ZtzpYc63fpMFjk/Eu0DC5leAw3oWL1qCiVM4OQ0tnWtdWf5bS6LxPbSWwZ9o4lLaRlmUG6fsDkvWOG74dAui9mIQVRLjwemda1mzfptoE0DYJ3rW1kTVExfsbA9KaF7HL142uvSLQVTRk2vYbV3D2k27OSfxf5flXwGiZKXRlf5FQJSsOV9XUV0peSCqZ2CJrtz9Sb0iiBLClHpZY6a2DlUrf3LlBpaoJd1Jl1VLhWARMZRQQ06AA/vmjmWqrjNC4KfOCJHV0XhaLGfWPBN2ucVT0SuwhDBxV5Ngu4DJcyw5HZDVK+Lg64OoGlJ8HNlroMrazftwCs7q0kR0NEO2PXPfHSVePAkuUEUBnNuszVq9A9wtaaGm8Cke1vosmL8YU+dQsurEWgiR9IUgEJGRPJTE/WyryiTOQYUPf7eEs1l11MjGa+jVXH2BKMHHwY0jRmtR0d/aORD0elz2Qm0sfic2MnOICmcEdYAATlMcWTFsGha3YkiXYJHGnPtcMF7BzEnGuMkLQStLs5cmSthBEs58Oc7xQ4c4JPrbif6CkYwePpxp609wyTeNsppinl4xxeiYPxl1zbQVumE8aSY6u64TLNinVSYQcNqchcpaXMyqpjH+EBPfHMIO71yEuBPk+3BEWw1ts9P4SsLMd2OrHz/kgiiE6HyygSVeTKinOZ+83PJA1NbxHzF+rSOB5WLn96pIa1ZP18P6ciQ5zb8eiBImjpSby5k6fQuXr55jy7JFzDM8gqvEZ0IEonbN5f2110S7fMLyBcTmfN00UfkheFtqMuD73Ujj3aU5z2fcByrYCCCqzAd7rVXMX7wLJ9EOXQM1FfHcPB1MacczMgRzvpUHcAnP6wwaU5n+mLtXj700DHljTjihAXckQR2EuBL1tMWeZPaXX2F0I43M2j5AlOVs3lZx66pXbQh2yxexfq8LDyUBdLq3p/CiZuOh8QPT5plh/zCTIklgCeEIg+iAm1x7kk1prCvaXwxngXM0RRJfjNrE82xT12fjHk8SqtKJuLyLZV8tZpcQ9ef5M6gIxll3Kp9PMBGb8zWmcP/wFvRXGnGqH6Hou/MJHS2NJF83Zru9N7HFtTKO/T1yttbQFGXP9AGfM1tvBzuspe/sISw3LGPhjHksMPMWmX6Kn+wLRDVSkuSL0w5tlqloscc9TrRRIu4vol0dfAKjeZIsjvjXnB/K3T2rGPTleq7VvBhE1ebH4nd1P3uFaEQv/NRREOHKobkju71bwiM1MTe4FRBJdNpTkVzXLNRnlygyIDxrraU8YCMTvtflfFge5W39BFGdvGTz8OBajFR0ORnVSmnSPexXfMSIwyk0tj6DygiubZ7H9xM3SELyCz5Re3glTVRbOXlh59H9fgIbA8qpFej2+rw6iGoszyLs0jZMTwRR2CoElpD/aanIJCXABUfZKFWZV9n40wS0DnoQHBvCpR1qTB03nTU7uvqQMP5vXTyQbyZb4hSeR7XEKmG7oSFnn0JbZQpPnNbxqdJc5iqNwswnlXwhAMELQZSEx/zbbJk1g6nDP+a9JcYSn1P5/EuvFoQ64XjVjduCn1e3jyDPckLPbmOn62OJy4B4jnV0cMRJFK+6lYaKZB7YbcHILYEqUXSNauI9T3D0wk3uS8876Ub3n+NH3yCqipgbtmxZtxItixO4SwLHiGrdUkZFuDUj31BiV2C5OAhP7l2sVFehv9uJwArBDPsRLju1WbpKg103YkWm3Z09uyaeh4+jCZfItaUwkvv7VqH0iS5u1dAmDEV9fvoCUTUkeZ1lt54K6qY2uEoCc/VJptuNvkCUuA9s117Nuq22XI3Mk7FA6CKgAFFdspBN9QJRa9fu5OLjZFJyi/oV5lyeJup/C0QtnjqBmasNMDAQ/xnv2MfZ0BK50fmoDMTZVJ2lc81xy5GjiRKkVOKB5YIFqG9y4GGxEJAql+Q79lhqLmWiqgH6knIM1NTQM9rN0ZsRJIpC0PbQREklXuCE9rAprLf1IapHJLnXBlE5d9irMpIP3vmEr8cvQF3Km8kOTG8k0t6RTdCBtWgs1UJdwwCDFctR1bTi0O0USmsziXPbzPB3/i//9sGPLNfRQ0/6vP1tAmODuXdhL3rLV4hkq6u+llVTZ7DYwo/Exq5QrdJqir+rKUryxsFAF511ixn3zht8MHoxqzV02XsllMSoe5w0nMaAd97n4x/moCYtb6MxBpfiqGyQt01dS2mCB04blzF/gQEG+noYzJ3DYpMb+OUIIUWFTxFPLpihM3U+K/YGypgVducO8om+cZaDBpqsnDOGoZ++y1fT1DDcbMZh/zIauk3yvc35egaWaKaIWOdtmK1Zy2oVAwzWqKKxeiNGZ59QQBvtLSk82r2MVYt0WKdpgMGypazWOczJh7Iq/J48vvj3/yaI2j75PSZq7sBUxYD1+gasmbqUdYfdeZRbRYsksITuxK8Yt6TrfRTeywNeWZTW+4t8ol5FE7Vw2iRmC3KV9JPNO21wDMylKcqJJUMnoHEljPTqcrK89qKzbC3rre8iKJnbyuJ4fEqNrwZMRnWDIQfu51LRIASW+I5uIKq+iEQPe9ZOHsl8SRkbti1iyt/WYieAKMpJv2+HpdpSZs5RF/FhaLSDvefiRBNndeA2Zo1WZuYiVbaev09YTgM5/vaYa45h9P6QFzZkc3EkD5ws0FNfK66fjg76c+ew0MwZnwxx1MGe5nxt5YmEOazli48noWJggI1IrlVkBDhga66DvqZmp6wMNu9m18VwEdgS5m0h0pu9/nzmrVjNCi2xTLW09DG0PM7NtGpa6jMIc9Fk4uC5aGroiOioq+uxwcaVO6IDZOsoT77LxQ2LmDBZVVyOqinbTZcxaqYFZ0TnRDVRkuzD1cMb0VsrqZf0HT/g1aeWWyqo3oElpHe6fwtjcuSe7/mPcdvwTKxEakUj5GouDuDydlXmT9DjYlYTDZXhXDIwYKOBKlO/+CMDhk1l3iptLM7eJjA8CK8jqnz7zp/401fTUJXyKnw7BJCUHsDF/Sboq6iI6qu9aiUrZq9E55j43JcXrYcEU64DmgP5dOuj7szL+SWc/5V85xibF05gvIoBuvri9lFbq8fuKwHElFZTknyLk1tVmD5uiYgXfX0DVFT0MHMOJrVaMJnvB4hK8+CgpZm47Qw0WKy6lk2HLhFXKhynlE7YFQ3GfjcXPV19DNaYsG3ddL6ebvz3gyjaaKxOJdjZDD1Bhvr6krINMNh9kVsiH85XB1G9A0vIEaqwL1GTTbzXfvTWSPqr0K4LF7Dc8BjOobnE3bVmk/pCZm13l4kmKKZVE3+QVV+MYdOZIOKqZTVRwplelRRFOaA+4E3+31FHCC6uEwP+/oAoakm7acLyQe/x+zHSwD3y+Zde7TkOSK8j0n2kc2bWX3h/tR3eCYK/jpjXebPnsUxAfAiRWr3YO+4/+T8aHuRWCn6jYnPpkYvWs7tX+NMu6r/1VJ8gKsON9dO/4O13vmLY9GWsk773222w9kqmpS4O320LWLpAFy1hrFyymFV6dpwLzKGyIpYHdup8984f+eMXU7uPGWf9iU8NxPXgFvRXS8YMlVWsnLWMdUdCRGdFdYKtbsItIyP4OicMtFFf+ROjPnyT98aroKWrz37PRPKeXmfnimG8/84AvvlxUdc6b8tOtroLIfLlfUpI8buMnYE2akunMeKjP/LRRFX09A2wuZdOcYwbpvOVeOedzxk0ZQkaUhmY72WXTJ9QgCh5spUTnW/v3rPceZJORt7fB6JqcqOICr7HY/mhn0RclCc9wMvfl8fpYiTRXJVPcoCzaCf2Wad6Rz7D8q/Wkx3qyQ1He+ztu/5OX7zMvaRqnj2rJN7zDJ4ROZR2zrKV5Eb54n/rATElQgSzLKJuOXA9pppmaVxZSkh6cAt/3ygkrEJzFZXx3t3Ksbe/jF9CEV3nNrZQXRBH2F03vJNlI98VEHXjEv6hGRTIXhYs2sPD+fDDD+VXrz9XS2J4cMulB1/22J+9wNnHeeKD1WqT8Lt8kbMiGTlz+3ESIv/7xjKKou/2flbI5xFKXEEpJUmP8XaWyvY0Z88L5x/J+q70ZLKeytxIvGTaQ9o2rv5J5KTFEux1pXeZJ09j75dFXWdYqB5026opTwvETUT3OPb21wjLq6fr6KFKsiMe4HXdm+AXHsBUTvrju1zrwd+JMz37gFB+I0Vxfjx6+JBwiSOHsMhL9z3FiRtPKWxsFavvG7KI8r7OBRFNRy57hnaZTAnO7zVxeF904Izovgte4Rm8zrEvfYOo7VhoneVRN1+QHnKU/KzOCiMixIfQ7L5NCsvi73HH/xFhWYIHuhCdT/CJ+h5Dj2T87O05KaqPN1H5VRIgK4RADsans79I+429KGR4dVM+MR5u+Aclk9vpY9tAVX4U/hfEB0R3DQP1ZAW7c/1cFw2hH51xcsM7rpTWDH9On/QnsVo4hEAwJc/mqc8D/AISEClj2mqozHgs7i/HT3D1SSm1zXk8db+Mf3AqeTIyEsIlx3l1lXM1IoIH5wNJzq0UH5DdVERa6F1cRPU9g6OzD0JEcBGvMu+Ws3ckSZlJBJ7eh/4KQw5G9XW2mLRNmqnIisTPVVr2SY6fuMmT0lakx4OUJ97nrr+fOMiN8FhbHdVCNEERL1K5CvvwDeRG3uPWeSkte+zPOOPskyIKECNd7IsOV7x0tuv9c7yBZ+euZhvtrRkEnD4p6av22Lv4Ep5R3qllQ1au9sJ7+JD4nCju+8WQkicAaeHTTGVOFP6d9ZLwdDWCrGrx+VdSCfT87mhrJvfRCc7dDCdD4kvbM4/wu62xmgz/k5z0z6BaHLdaJlsNhQmB+F+7w5OiFprrZPtrl3wu3g0lLjmV5CD3LnlI5Coas7yEM2HKe8jVAedrASKgLlNg72RTPk+v2aE/W40dnSdv984me0UIxlQY7tadl0sBxHTKtYbi5CBuS3k8cQb76zEUN7dJNDHiPhAa1mPeSg7gjGc8lc+e8awghKsu57rKuPqAR6nSnT0hHHwiD+3tOSEqw5voaH9u+EZI+oC4v0Y+FOQq5vz5s2cIIdOdA5LJr5KoNyvTifL159aDJITTGIXQ+W3NxcRct+fMiS752zv7EJwi+DHWUpIajP9ld/mH2MoKSZJuriki8aEDp27FUd7etyZKODagsTKDcDeZcu2vEJBSiuD2K2iNff29eJAkzywgn4grTvhH5lJcL54Lwh4/lhxU305zbQ5PbpzmuOy8VRqHX0A4j5NKRD7djWUZJDzuuR4Q4nikE+p5Gccb0vFVTiWll6qjuWCgjd72k7hLz66U3hOZCFaTcMeB8w+E/ioAJDGvd+/clWiZ5PEqGV+9AonI7hyMO6n+syT6BFGF4bhfPt/1HkjfqQtuXIkoElu7VMdwx+EMp0T3XPGJyqFU6OK1eaQG3+r9rJDvbgxZ5eXkRXnjcUHa5xxwcvOn25Kwl4DFY5anlA+Z7yshOZRmRHL/pnPvMh2ccOwRrbSLdBV5T/24JUNLuhZzCy+kMjOcO9cu9qbp6IqzzJilAFFdEpVNddNENTU/65f2SeoPJXz31ETJElek+y+B1wZR/S9KkfOfRALyQVQFISc2YzB9BloHPOWGy3696ktBVM/AEq9H9Z/t6YbEa1zYvx3DgyGSBeQ/Ww0V9emPBBozH3DrqAlq2/14qWVxfwgq8vzLSqD6sRUmxracvJPaGUH0X1YYr1jxPkHUK9L5V86uAFHyW78biBKyyAKk/qR/eRBVwFP3M1hraKDRx5/F5QhSRFsD8iv5W7iqAFG/hVb6x+JRPoiC6qxwAm+5cNP7CS9Uxv1d1VGAqP6IrbkkmaT4SCJyf6YQdP0pVJHnH04CLRVZZMQHv9Ay4x+OaQVD/5ASaMgKJjQ+jQw5gan+IRmpZYOSAAAgAElEQVT+B2JKAaJevzEUIEq+DH8DIKqKnCh/7pw7x7k+/m6GZlIknFr3G/4oQNRvuPH+l1jvC0T9suy0UleSTKyvB5I4I79scQrqCgkoJKCQgEICCgm8hgQUIOo1hCd5VAGi5MuwF4gKDg4mKCiIwMBAAgICePToEf7+/vj6+vLw4UN8fHy4f/8+Xl5e3Lt3TwRs9PX1Wb16teLvNWQwY8YM3nzzTYUMX0OG/2p9cNGiRbzxxhsI3/9qdVfUVzHeKvqAog8o+oCiD/SnD4wcOZIPPvhAMU++xvrq97//PcrKygoZ9pDhuHHjGDVqFPn5+bwh4Kz4+HjRX1xcHLGxscTExIj+nj59SnR0NFFRUTx58oTIyEjR38WLFxH+XFxcFH+vIYNdu3bx5z//WSHD15Dhv1ofFJxDBRAlfP+r1V1RX8V4q+gDij6g6AOKPtCfPqCurs7gwYMV8+RrrK/+9re/sX37doUMe8hQT0+PsWPHUl1dLQZR/fGDks3zy/tEyVeh/bNdVZjz/bO16C9fn/8dc75fvl6KEhQSUEhAIQGFBBQS+LkkoDDne31JKsz55MuwlzmfLEDqT1oBouQL9lWvKkDUq0pMkV8BohR9QCEBhQQUElBIQCGBF0tAAaJeLJ/+3FWAKPlSUoAo+XL51a8qQNSvLvLffIEKEPWbb0JFBRQSUEhAIQGFBH5hCShA1OsLWAGi5MtQAaLky+VXv6oAUb+6yH/zBSpA1G++CRUVUEhAIQGFBBQS+IUloABRry9gBYiSL0MFiJIvl1/9qgJE/eoi/80X2BeIyg925Nimn1A33c/NlFoqc+9xbOFSjoW1URd5HkOrq9xLKKbhNy+B31IFmmltCubkwnkcu19IYeR19h65hEtQFrW/pWq8iNd4F8xsruAenU/9i/J13kvF55A5x45cIzDyKY+un2PjySBKO+/LJtLwPbqdYwcv4R8ZS9BNB9bbB/aRV/a5XypdQX7sVY6panMmspmOyOOobr9OUG4Vzb2KrKIw4QbHVqlzMrKV1siTqFtcJyCrgqZeeRUX4FXGrDqqC+9zbN5CjgU3UR3phLG1G7djC/9Bx7d/gXHgH7ALK0DU6zeKAkTJl2E3EFVeDtFFReQVFfX70N2ePlFFkW6c3qwsCoUohENUVp6DsvJR/CobkB47mXn/AHuOHuJUQK6Iq9q8GO7skX1GSO/COTSTMvl897haTth5czYt605j3mptdnkX8qw9lztbF7Bsjux9Q/Y4BJEpotRMdUEorgay94X0Nk77JFEkW1pLGcWRjqxXVma6qH7iZzSO3CU0W7osbaAw1oMTWj3pWXEtvpBKWXqS9M8BoqqeuGJruqJT9iu0TXCOkymsxJsj2qtZJOHbwMYVvxzxfeFQyOgLep3PCm1ncS2edAmzdSn3uWS1RnJ/KUtWnyMSaJchLy/ZVl1AkquB6DkD1yQKqrvO86pJuM35XSqdZS5cvY5T0dDxTB4lybWmQjIfnUBPRvZW3oUU1gHpd7DfodlJT9z/hDaYx08z7Qioa+61aKlL9eWqtRoLNYw44Cd/+SbqrzrKrNh8CKeIqr6ZqwjFba8hqyS8qW6y5GpS9+wlPnvRV52P+iGP1z6AUz6IyuT+XmOMFmtzyDuGrOoKChMd0frDSCwjW6m5b8rwRfs4/TiTGqAg5CJ2m2T76XxmzztBUFNr52Iw/Y4lO3ZYYn8vieru1enjVw2pvmexVpOlK0737AN9EJC5XEboWRMMe7zb81X12etTIpNPfrK5KIHHV/aw+lyM/Aw/09US711on/QiNLMvCTXQXO+OwVuDsLidQ97D/SxYuxuL6zFUCDyUxRPqbN7Zd2f8NJMDAXVUSFbZGV772GWxC9vbCQg9UDjMN9RtN8vOPv37alDmz1kTTZZJ36NlmzA/H0b530dN/FSABROX7+WwT0o/+0kEjiqr2bzhLD5BD7hkY8wI/etIhqQenETipLGGzbon8Ar25/ohI4ZqXyWHdtpbMvE0nctxX8k4IPNkQ3Yod49oSOTaexyoinDi0GbpmLkWPXN3EmSeL763g3Ur50qe38wht0jEs1YhKX7H0B0wi4PRDbTf0+HD6Qe4nihvc6KY9Mf26H6ozP6nzbR6GfDpTBsuxxR0gc26FEIvWaEhbY9ZC5lp7EFqQytdI6YMY//UyRePWd2rXklpuhNa/zGU3SENVN7fypilVtj5p4v7YGE4904Yd75X85asxi4SmntMXLkBpzi0Xpm1Ww7gntK9BOFXgqsueqtkxzNtNu/zIlmStb25jki7mSyZp4z26cckFHVB6YbMx3i4HmaTaDJ4yTjQu2jFlZ9BAi8CUeWPj7NDb0lnH+nWBzqaodCdHUvmM1fybm4+7dN5RmJjfhS+9t3XHNYPSimW7CJVR7thb75KQlsVzU1Xie1HfUTz1mltZi1cgbFHIQ2tXYui7mOWMqv0zHGVHbT6oC/ldc4yNbbeKaL92fPOnBWhZ9lruKxTBvLWLgoQ1SmuboluIEq4M3zXXZ4kZ//dICrTy5pdWmNYYHFZdKaUl6c753WmMma6NdfTS0ULt1hHFRZpqmHoJl5hVqT44aj5HsPWX+Se933Rc67mKiyYa8ahu3EUdGNZ3o98bpspo7VOn52OPqLnhfOsfANDiCmoo6MtkZPKf2S02l6Ou94W3XfYqsZqXX22ewswqpGyNA+sxv+BgTrnue7pJcpjp6PMvM3WnI+QwKiKFJ66GjNdeTxrrH3w8paU5WrOmpnTWbHlIt7Jwmq+mnR/O7ZM+Zzxxs6d/BxcMZgpFhd4mNYbRr02iCoPwnHfQfbsP8s1Hx9unbNmx4rJjFhwkSjaeUYEDvNHMVPVCruLnvicNkF7+SqWbbtGWEEB6YEXMVDdxUUfH7x9fHA2Hs/o8abYPkyjhGweX3XiiPkxLvv4cNPpFOYLvmf40QhqmnrMRp3NU052pAv7FixknZUVOgPfYLxVCGllLeIcVZFcP34UC4vjuPn4cNv1ODaqo/lywkmC2zqQ5OqkJk6UkOZvz9apk5kpyNXrDj775jJ4rA4HfDIpKM0nKTq4U95CH7jpdIzNP/03v5vjRFpdiwzoy+DRCQu2aumgqbualdPGouIiXh51KzTlJttN1Bk/YgCTl65hx73ibre7fiRwa/NSVi4xZOuxG/g4H8BKZwnjVtpyv0TYfXyM/eyf0Nu7H+1JA5ix3o7rMX0tuLuoviglH0TFcsNkD3v0nQgTCbGesnRv9v6gzJGkNmp9uoOo1Fvb2Ko1iWWWV0Ryu3fTjTNaM/hh2gHuFFQj9Oba/Biio2NIzq+m9UUMdd4rI9J5MyaLp6Jj1/U+Cu0RlllNo8yE0PlIn4k8PDZPZJ2WIZYXumj5Pg4jtvDl+/jCAub6vkV8aOrXZwk/x43sc/P5bv1ZPGPkA3FoobUxHJthEzkcmE+BnwyIqksm5JwR6j/NZK2tUMfbeHvtRU/tKk8LakXvQl1BHMIxE4l5VaLfjTlheFjP52/GD1+d/acO6C1TQWfXGS64i2Xq7niYgzY72f+of9tWcgt9ZRCViYfZRmysnXkU8TIQlcWdHZux2eOIX6QsiGqltTGG45PfRM8lvXPTR8xfAdE+bhwyPIirMMbcuMzuWf/DDza+ZIrQaTLuh+yxP3CO6z4+XLK1wGD1TJa6xIOop4djq7aTM5du4OnjwymjJSzdsIUDj4RxoorssKtYKa/gZEoDHS8EUTXkRd3AavJijqfKAVHZvjhbGrJ8rTkHL4vbw8vzBo7mi9C5mkbhb/wgebl95YUXXzxmdX+0gcrcB+wdMpkjcY1UP5ABUdVP8T6oyZoFK9C3F+R6k1vu+9FWdSe9XhacZnDXwhCNwQMZuWodK873RlGPd3/PPG0j9jjcEo2TN09YYbZKlaVG1xD2KVsbKvHS+R2jB3/O219u4qhvWqeWtDrmOna71zJmfygvHAe6V0zx62eUQJ8gquQBB02sOHDcmZvCesHelPWL5jJT5ybxNNBQ4cORMV8wUcMep6t38bHTYck8NXSOPiC2IJ1wj7MY6+3HRVg33bnFBT0lBo6wxCW+mCpSuXv8FMesznDVx4crx63YuGIKsx1fBKMKiLt7nN0rV6Fpvhn1H95l/LF0aps7xNIoD+TMngPslYxZtxz2sHX5NMYudSG6T3nlEXX9MDtV1qBpsh610Z+ifDKTtg4JiCrzw267Nda2F7jh44P7qR0YL5nJ5DVXugE+BYiSL+BeIOqNVS4Ex2W8Fojat3k+hjfF0Od5RyONeSdY+fbnbHSOJ60a5IGoi/rdG7a55Do7Jk9A28wFv5eiKDGIMt1tz63UnhVt6wRR03d58SRPrA9riDjDDpMNLLLxp1wCovZN+gujbdOpaBADg9oH21mqtQ2zK0+ppp684HMcUBmLsoUHAg56LgXyzSWkX9nC8pkGGNgHki0BUVvnDGXx+a591aqbGoxYsY8zgVldO5ASdl8bRLWUkZ2eR15xrWj6by+PIdBen3Gfq3Mhr5GO8O0M+9t8tnrGkt3UAfVJ3N6vjoGOEY4xjdRX5BEXXyTS1AjVan56kBXfzWfzmUAS6hsoLyomP6dSvIArjMN7+wh+N8OBhNrmPnZKm2moyCYxKICQOF9sR7/BpH0yIKq1gvzsPLIki8KOmkwSLm1kyB8XcCKrjTp52KwklDv79Bgx3AgXYafveTtU+mMx7Us2OIQQ03P911RExv2jrFSayHq/ChraunZzoI6StFjiokO462zJlvnyQFQpj/ctYIPFTnQ1lqKu2gWimiqy8T8wgykGV4mtbKQ14QQqY5ezztqTSGHR05xP9I096M9WZk9YB8/aS0l95E9UZjSOaoNYbPxLgqgD7Dd0Q6yjaKQi6xG2U5WxTW6jNs6OpUbOeEcViQClAKJ2m67E7LZ4o+BZWw2VybYsfPNjjK5nkV0HaZ47MD9ki2NQPtBAUdwjru/dyZVYbw5MnMi0iROZOHEdR31SEb9eYhC1U1sF24ie76PwO47rJlZc2LMLIyMNJk5Ux9DSifvRHhxbuBFXV2umTJnMxIl7uJ4UwYXNEzHZe4Y76T1otdfTkuGG0YwNOEeVUS6ARpE2cB8HbC9z/Y4L+5cO4dsBb/PvHw1m0pSp6LimUFQbxdWNllzctwtDQ3UmTtTASNhVbi4mP/gU2qL6CHWaiIV7OtlSrFsTh5/DdlZL7s9euoojgSlcWz+VqUp/4a0PvkJp+FhW7nbBK6mnkZ6w2I/n+OSJ2AblUxB/kQ07z3PBJ4O2yjA89mgzb7wujmlCHTt4/qyctKf51DS1IUyfgjZw+6FDnA5MJCfsMgeXDUXp07/w/304SMSntlMC+dUCxC0n0mkHRovF/E+cuBL1jdLdT+GlCueM8ncsN77EnYRq6iXvWXt9KSV5qaSUCjvognYng1tGM5inLKVjjK37U4QeIPo0FZETcBwtkSwmMXGiDmcOaPHtAllNVJ2I18NrpDSmM3HiIR5WNkhMrQq4b7kZW1tnHiWFc/fKMVT2BIg0oO1NtYTbTmO+4QUCcippopAH+8ywPeiIX3IkPlePsmKXP828CEQ1Ul1WQk56mYhma00RTyyV+MOMo/jlCGZ3tRRmFlJSUicaMytjb3HSaAYDta5ThDBWVJAek09NY6uoDfI8zVBbq4nGyRAqqSPviSe2i1ZwMq2Jjth9TNa+TERGpSivVEzi73oKYu5iO28xx9NaaY21YbreJUJSymknjYd71TFYvpF9njlI95ietbfSkBfF07w6mkTjVhnh580xXCSV5Wq0TK6LFvBCf4EC7pjPw87LnUNaWpI+ugzD/TcIl+zZtdUWkeKqw9QpQnsJdNQ5eDuOrIYqEu7Yct7OFk9R/xMmgCqagg7z08ZrRJXV00IZoQ52XPd04py9FRtEzy9DRec8wZWxXNWbyIwpAk3ZcUCo/cv6QDJe+w5zznwH27frIe6vF/B/wZiVH+SIrcV6TBxCKaOJ6vwgbCdOxja+keq4E6wyceJ2eAHtZX44GqqwdMEO3LIFXtppay0nJSqf+vYOUQuL2if9ChaGZqxbb4bVTjOWLD8vkau49YT/AohatceRu4ni97qtLgYfO12WDlmEbWwXiJpuuoc1Y4bx4wZ7rseJN1S6g6gXjANdxSlSP7ME+gRRzcWkJuVRXNkoWse0FT7i6nZNZkzYwvXsIkrvmvDeGzOxiSqkXNj8q43m4qa5rDc/gntyHZXFeSSllorGl+dtjTSGbWPS32ay+04yOU21FOcIVl3iNVlNsg8XTKbwseplCqGr/3WrayPVhakkhD3G38+VvVN6gKiWUjLT8siXjFntZVH42uoxYaAWzt1MpmSJChsNycRHBPHQy4Fd07uvtRHWryl5FJbVi2TQXhzKbSttpgwz5LLMnrECRMnKtCvdC0RNPZbE07T8nw1E0dEI+adZ/PYPmF1NJrOufyCK0ptsmzILfYtrPH6p1c6rgqhKnl7cxMrlq1l5KpIWuSCqhECreUxYvhlLzxTa6hIJOL2F5eNUsY3tUtV3irLOD7vVOhgZO/O4WqyJ6gJRwoRcwL0Nw/lqxX4uCQN854PixGuDqB70KIki4LAuX35lwq3qWvLOTue9kTtwjSuU+GCUEnJGF0M1VXbeFxkUdacQuodp367B7FI4Gd2YraIg5gJblD5l0I4Iihvb+hgMpORaaKgI6Q2ipLel31VpJJ/X590/aXKlpp1GWbwjyVOfcIvTm5czeLUT4r1CIVMG5xd/xJLdNwnM7K6ZqEp9yAXTMXy5xpmCJpDRXktLFe0oJ97dLxdElfjsYNnGHRy/9xDPQ+vQlQFR9YWJuK19k38bc5CA4lpyb+oxZdYmLK49RdxdxX1gx7zhqMiORORwVXvoLweiMq5iaWyBrvUDidlRB23N1RTExVHQ+Iz2pmJSs8upqRfrlHqCKNpraEqxY/abg9l2J5e8Bog6uYBZmjpsE+1Q1JD5+BxbRn7Id5M02HcpgIf+AVw1n8eUySYc9hbMX18Goh5jO20sY96eynLTEzgFPCEmKYoIvwOs+N0HDFTSZ5+vHz4ByeTXpnGtLxD1rJ326gy8jCYyYu0Z7qUm4Wuvho62KQfdEygoyiXWw57dmhP46wpbAgIDic6to7ntEQd/HMnovyqzauspnAOeEJsST2y8N8c2neZuQAABAQFcMR7F0JXHuBYjmGhl8OjYBrRmr0Lbxp2AgNt4uh9Cf40LIU8ecXXLOAYsNGGf4y3Ck3Ip7qU9eMazDsHMN5aCmhZamsrIyi+jvLoZ2gqIuGTBmu++ZsLy/dyRMxk+PbuMeZrrMLkRT2NlHnG3T2KlNY4/LTsi4jUqp5am1mckXdNH1UAX06OXRde9nI9jpa/CT7u9Kexo5nnBWVa8t4TDD1LJl6tWbKG+NAIX7ZF8vXIvVz3vi+jctNZHZb4Bpg6PyaSBwqduHFMfzwyTKwQEPCIg4AzbxyrxwdCNneZ8heEXsDFbxBzT0yIafvfv4mowhRE6FwnIq6aZFqpyMikoKKG6qZ6qimLS88WLVOnO/tsTLCQmci1U5WVRkF8syltdWUxanpD3RSBK5jWnnppCD3Z+9t8MNn5AQmlTD7BTSMyN3eiOmch8u7hOU9YuCkncMl7AwgUb2Xs3h1baaamroCAxmcKmZzxvKiAhs4KGnnZiIgIdtNRXUpCQKMr7rKmQxMxy6pvaoOI+x1T12WTkTKjUGryrUEmqhEdH1FiwRp+t9oK8A/C6eIw9qkuZoXaBJ6LZJJ0zs/7C998po7XHmWteAThbqrFKQ5UNN9KguZSCoHOoK63FWvRuCX38CalFNTS0i+eCHQa6nIySFNlQSv0tLd6acJiH+dU0Icyx85j3wyzUzBy4GXCPy/ZbUf3+I4ZOn8rGUwE88JOMA+qHuRCWK9Jiv7wPCCads5j43+OYp32YcwHhPInJpfwlY5bOwrEom90mnw7aW2ooEN6rhg7R+JaWU051XSu0ZuNnZ8Cy74cwU+cED/tQEqdd1sbQ3Jz9d8IIu7aPjXPnYdrDVLgniKIuDj97IxYPV+N0qgyIOnCfR9d3o66swhY7XwTM1R1EvWAc6NXuigs/lwT6BFE9C8h9iKupNqOmWHOvIJ3owz/xxjd78Suvl7gCCBs/89HSN+NEsHR3TUKkrQEeGTHwr6s5EJhBkUR5JL5bTJLXAQxGjGL6oZjOzeqexXf9bqA48XpvENWVQUI2nIf7dfnmOzPuyFmWds8ubPw49wZR3TNBwWNu7dRhyMhdeMvQVIConoIS/+4FokKSisjN//t9ogRzPllNVGt9GSE7P+GjYUZciimipqN/ICru7FymTF2DxaVICl5qFC4GUTMGDeCrIaMZPVr4W8AyDSei6NJEDfh8IN8PG8no0cOZqmrMnithpJUIM5fYnM9yxL/x+0+G8MPIUYwePYzpOvs45Z1AflUzVEfjc3g7S8fvxUeurZlgsz8XXTVrrqWKF9Abh73Fnz8bKuFnCDM3neRKcCblkgWsbJP8vCCqjtwgB/avmsQsqwgqmmtJPzaed6fslbHZbyXx2ha2bezSQoj5EQO+u+uHMUPnFO4x4l1c8oPxOKIrkt3Q8eNRWnOKuMKmbna1svXpSvcHRDVSmuCO/YqhjN4SRGn7sx4LHDE10WRkvFjiCyFcE+nM8N40gEWWl/FPl3VnLyHp/gE2DBuC+k3B+6evTxVyQVShB9um6mJxOZiE2jweH+8OojpaGylPCyE4toCa1nZyLqszcaEJezziJT5v7RSEX+KYVndtJL8kiEpyw3LnPjafuk9EYU2/TO96gqimymx8t33O24NMcU+roO6ZPBB1mt0zv2XNqSQEizoBnLaUumE2ejk77P2IrRODKPWhb/PJd9L3cRKjR+/nfkU9DQggaghLl9rgHF4l8ZUUfEz2sfavn7LcLouyjueSPiA255s26FO+7ny3F7FSW2y+8PxZG81F59D8ZjArF8xj+HQdTM/5kioBMfLN+QI4+ON3LFl5hMtPqiXlt9BYV05OmqS/C5vx0dYsGLSR4w+SKUq/iuUqNeatO8XDKgF9tNHaXEFmQjFNz56T9VJzvr76n3C9jYbKPCLcDrF5+l/5bOgExo3X5WJyAzWSsa8LRIm9MOSa85XcZ+/cuazbdYkHueLZr6MpncibVqwcpMvlnAY6/Dfx9V+1OBae1Wlu1I2zlhKKgo8z76+LsY4toqpVvBJorfTBXlWLTevPE5CfSriTNatHb8S1RChHeA+ryXXUZuScHWIQVf2UW3s2oLrEmBOxglEoCFYJTYWnUflkEUcfZFIgM0F340HYpe1ooyojmPC4XCokmqCeecS/XwKiSmJ47LCR0aNH8MPY4bw//zBBadU0S7XSaZ4c3bKa0aOHoDRxDj9tcesyORYKeGKP6qIZjB79HZ8pa2F+PphCaaPIZ+jVrsY7smmuLqrbbvXSfnQSKr6F+WR1TOzu8UQA3YJOpTGVUNddrBqoiVOhsMslBlErtl3lQWodje3QGHWBPWYbmLPnIWWNeWR5bWP877/EJKCV6m5zWH9BlDI6OhY4BFXQQDtVyfc5v+lH3lU7TUaV2Je1xceE8cN12XY1irx+9QEBRE1m+U+bsfcr72Wh0SkDmURTRQ4ZyXEkSCwjZG71SLZRV5JFwLmt6E19ny+GTUF5jhnX8qFFusAt88dWZSl65ufwzmuiPPoaxzfMYvh6T5G2QEqwJ4gqCnXASv1HxqmeI65FFkQFkJiTj9euOcxbpseeW4lkdzPnk1JUfP+aEugfiKom+dYetqouYe2JWMrK0gjZN4k3RtsSUtEgcTFoIfLUSjaYbsa2m+lzGy31CVxb8QFj9K4TnCPWPpHhxRkLNUaPHsr3E2cweaMLyaIx82W17w+IqiP70UmsVk9j3v7Ifvih9gdE1ZDufYidKnNYfiRa5H4j5VQBoqSS6P7dC0QNWXGSe3FpZPczuETPwBICiDKZ+Sfe+WIII0aM4IeR4/hysiGOIemUSExT5JnznVnx7/zxk0H8MGKE6LlvJmpgeeUxqZWNvbQ23asg/BKDKF1dI/a7hRIaKvxF8TSugBoZEDVO6zDnPfwJvWiGyjxd1u7zQWwhJPGJmvBfKBlew9s/iNBT6/hx/CZ2XXsq9skSgajNzB9lxBUZFWcXLwKIUsdE7xTehRKfqGlfMWmbO6FBAYTaLuaL77ZwJiJX7Eje9aAo9XOCqMIIZw7oT2PaumM8LmuhQy6IqiTCcT2G6t1BlAAOwg6O4ocpWtj5JVMstcVtrqIkO0Ek24D7Nzm3fQVjxtrwoKaJzHs7UF80WdRuI0ZoYGbvJ5GrULWXg6jyxHucNfqRkUuseFjSzLPnzynyNGXl3IkSmtrsPBdEtDAZdQNRYsB3afX/MHd7dxBVn/EAV8vVjF5ymLAXYSh6gihhds3jlv5gdPfcJyS7kVZKeoGoHs1HXi8QVU9m4Gl2L/4VQVR9Eek+pzDZfogdV6Ll9rOefAsgasP0v/Del+L3dfioCSj9tBmXqFwqWgRfOvkgat+i4XR3MxKAyQj0tl7FP08MokyXz8DwnPR9DCc0NJPy1nbaJSBKc9MFvMSRXQAxiNL88GsMH0C7ULDoIwZR2vpbOHhNSiuamASpRlW8gM9z1GTcwA8YpX8ej4SGThPTF4EoTZNLPMiSlgOCM2+g3SpJnxvBiEGf8Jf/u4x9wkZKrCMm+qas2v+AvK5HOlMv94nqzNpnoq2hiqKUUB4/vMfl9aP5ethajgYXIsy5/QJRuS4Yjh3E1x99ybfDxOPoiBFD+P7rbxn4qYzvztuaHOkLRFVnkuFswF/eMuBGfbNMhLNcvPeostVoN5f9Qri3R59Bw63o5mkm6xNV9gjnzQv4/k8f8MUQKS8/MGLEl7z7u5GYeaSRI4001KdE+nPjJSCqpZaq/CTRuPXY/yPvqwYAACAASURBVD5X9ixhwjhLbmaVixcIDaVkp8SK7j90d+CA4VoWSILmiEqvySE2OlJ0/66jBQarDDE58pBeVuP9YVVenqiT6M7SZNmLQFSYFT8N0sb8Ujhd3bWKzKCz7J4+mm1BXSDKwPEpCVKz5uQbHLbYwqwd9yjoaKG5LJ7wi/pMGziKUcNHsNLWjxhBRU//QZSsybzcdyvAgh+/08RE4LVffUAMojTVrJG4SMuT0mtda6ktIT8plIA7bpzRnsCAodo4Jok3KMq8zVmyWB+Tc8HktUFHeTT+xzcwadh63ASbK8lHAFFjhg7gy++GicaHQWPnsXjzafyyKkSLa6nmdPqBABKLm6kvduewykyWrLLkqKODjE+UlKLi+9eUQH9AVNbDA2xRn81SMyciK1tpkQuiyvDbv4h1+t1BVGN5Bj67hvHpmPW4xhVTLfX7bSwjLy1ONH74eTpxxHgNMxeeIrStmdzr+sxVHi+ZbwywuRYlsR4RJPNyEFUQ6oi1rjIzdI4TXN5CR1MNeVfWoTxpjITmRo7ekY0p8HIQlRtwnJ2aPzFv41nCKrrttKAAUfJ7bC8QNf1NdRxC40l5DRBlqfsjy23uEhERQURkFBFJJd1skOWBqPNaHzByizshYeHi5+JzKa1rkauR6F2VVzTna0zmlqUa6prG2IUKpmxiENXNJ6oumtPqU1ExO4G7oJNvTyfk4mbUvp+BVVhvDkg6z8bZmqjvcOdpWw9zvucdUBPM3hlKrLDxJFTilyVL5ecCUdm+x9ihPZdFJmd5JNmpe95aT7P7Gj74SJ/jkTmSCFziidNcV4ujYWK7nqbKPHx3j0Bp2gbOBCRT1McO8LP6fLJvmzLod8rYxtVSXJRBYmyUuN0iEknPk2oXhBq+GEQVhrtyaP1PTNc+wv2MctGEJCyLhQEsPuaJhGYSmYXVCMDostlavp1iS4hIeMJKW2zOp33Ml4gC6fZiHk9ct2I4eQ5GHuJJTlbW3dM9QZQwcPiybcCf+PzjgXwzaBjDhg3iq4/e5u0//5n3hi9ljY0vPXF0q78FP43VYdP5YMlCR9wHLBePwui+7GD0C5vzNYZwcfM+dpre7BZlrHudu34JIGqb3nTWHL4neV+jeZJSSuOzZ51mmr3N+U4jH0TNY+v+e0SU98ecbwivAqLk+kSJqiG0eSgnpizGZM1sho43Zqvzk87JSO5CD7EmqhuIKo0l6IQ5E8Zv5Lgwbgl/t8yZ+bE2tlIQtUKXhX3I9ecAUdJWed7RREP+XbaOfocNrkmkVr4KiFqLocU53KV1EH1H8TQ2g9KmFp7XXGbd+5+z/mwUib3j20BDHrl3dzPsLQPcu4GoOK5u1MHcwI578U/xt9vOTy8FUZtY/tN2LnTjRZBtInnVzV3aAGnF/67vl4AoGZrPW6qpC9nG2D8oY+Wb00sT1lEu1MuAiQM1uSizgJaSaMu6wQEVFVapH+eBHAtoab5X+m4I5LTGfNTX7ON6T58/KaG0M6wdvh6rbiCqiKQHxzEavJhjyf0AUQKtZ+10NBSSHBlBZMRJjCZNwuyYP09LfkkQ9bI+8MuDKKkYBX/P4jhXNg3+E+tvV1LcUIy32WRGDPgb7w4YyKBhwxg2+Fu+/vgd/vbhMFZd6eoEAohauH47tm7+4rHhaTKpBV2BdnqCKGERXP7giChK6ozZauh1BpaQcqP4/jUl8DIQlepujt6aJWjsu0KYxIrjWXUOOY4qvPGf67lWUisyTxXcMgRzPuMte3CJFZsJ1OREctV8PN/PNudqXCFVbTL+djKV7KhKJOysIWP/ZzUOec+oL04hJjpSssZJIaekVsaM+MUgKuvBYcw157PM7BwBueJgQ8872mkuSSI6SkozldzyehmaLwZR6Xf3YKS+CJWdzgTLCSKlAFEyjSmT7AWi/vS1GZcik8h4DRAla84nU1ZnUh6I6hlYojNzvxKvCKJooy7sLLvU1jHX8AYJ8kAUrVR7W7B6lj7rjweSJbjWRt/gpOoYvplkzrUCkAY3ocQb21UTmLRoB0d98gRXV1F0vi6fKBEsoOKaDhNGb8L6bkL3sOmCu3d4OB9++GG/ais/UykhZ41QnbcYtT2XCZc153rWArVX0Pzgc9afkSye0m9hs06TxXpnCGwUQOR97FaNYeAMM9xi86lsFWshRGVVReBx+w6OEs/+lrIUwg7M4o+/U8OpqJ7aTq2BPM76AlEVPL1qif7COSwycSAwr+rl5mctqYQ4mbBC6Sesnwj+9y0Qspsxny9jr0+SaCdR4KAm/iq2GguYMN0Kb1kLP3ns9dJECZWpIT82hpioKKJEfz6c2zKfxbNns+5EECl5VVSXZXJ/1yiGqzkRJaj6672xmj4BLRMnHgiqiqIw7lqvZ+xEczzF1kyS0n9hEIUQnU82sITcSnde7GnO13lDJiEPRG0e/hc+G7WJy3li05iiO+uZPsuIgx5xlLT/eiCqo7WBkP1KfLv8IF7BDzitN5spa8w57C8O6CICURazeW+Zs0iDJIbZckBUfgjelpoM+H430nh34daDUfrbMqwEENUUitOGpSyYsZ7DQcIKupqyAn9s9K6R3d5BumDOt8CScyHZnSZJwnEP9pZqqF14UTQmob96cNPVrss8pLmaVn9zvnlnGCaeGeTU9wGids3k7UUXuurVmoiT5jTWmh3npsQBXqYZJa7MtUTsmcrIYYtFAXOkFrB1qQ/xcrVhr3cGFememA/5gC8tHpBdKfYzLA+0QXeNPga2vuQ0ZxN9YycrBkxA81ahYKcHBdcwn/QN7wzbIDbna8/j8RkT1q9Yw64+jg7ozlv3X21NNQRb/cAkjVM8zHzReUovAFE18Tx66IHtlUQRcSF4RsaZmbz31krsnhZQVvyQky738Q4TL5Yb0h9yadNcvv5uK/camyDPlQ0HA8iVxCuuCDzEhhmLWGjgQsRLTMzT7+zGzHIb+7wyules169GMm5YsH7WNGavd0RqIdTeUEGWq7ooEEpB2VPOq01isqYV56S8ZvpxZY8KPyw6SUxLP0FUt7JTuLDiWwwPeRKY10bidTMMtOaj6pQs2OZSEnqUlZ+9y7+NtJHxiVLmlTRR/eoDrw6icvyPY2W8Fl27QIn/abeKdf4QQkE7uZ7HMUx6Tkc+BTeN+OiPQ9kZXEN5yDGWjJ7EYpMTuD6SjvVRBN+5yFH1cXww2JogSZzGnuZ8nYVIEr1BFNCUjtchHeZ+8V/899BJkuh8PZ/s/rs4+ganLFf3cSRDKUEn16NhbMlRXyFShhDkx4MjWrOZciRcQqiAezsWMN/8LJ6xghNYNcne9mzX12CdsxB18l/z0zeIKuKhtQrzZq1i04m7xEqCK4ik1FFFVdopFrzxZzZ5lFAorCUSLmA4V411e28S1VRHdqgLe5ZNYvRKK+6ml9H0/LnIuFn0fNkjHK944xEotl1ozA7C3WwuAwYY49kC7cKysM9PXyBK3AdWzV2ChvVVIiRBK/ok0+1GXyCqhEe2miyZsxy9I+5El9R1WnLIPq4AUbLS6Er3AlEXQ+JJzs2n4DcIoqZ98x7/86USSkrivxHTFmJ4M0dudD6ao3HftRbV6bqciZejiRJk1OiP3fIZrNO2xSNTWLPXUZX4AE/LJbwvU47SV5PR2n8Fr8QSKgVj9F4gSiLw+ttsHTkcHUtPgro2uUQ3XxtExZ9n/Rwl3nrz9/zpvQF8LZGB0phpjLUJoa29hqKHe1CfMJahXyuh9PkoFujZ4xZfRVN5AuGnVPjrm/+H/+c/3+Pzb7/lW+nzmse4HBJOwHkzVEd9LpLtt18PYtA3s9lyt4CSVvn+S1BCRtBpNip9yzcDP+XdN9/grXc+5cuB3zLP0p1ArwvsWTOKP7z5Fr//68d8JS1v6EiULPwpqpHnMNFKU1E4vkfXMWGA0MbfofTJj+g5PiGhskXy4mfgd1ib1eMXoXM+WcYcqavTi1PJeNtsYIXSQL74+B3e/sOb/OnDrxgycjyrnXOpFiIYdn56m/P1DCwhGD6VR5xl14qfGCH0ja9+YOo8E+yCSxFcUlsbH7BvxDBGKX3FR//9H/zxL+/x0effMEVrLw4ibWhnYf1O9B3i/JcHUZazP2GJ9TH0vlRiiJISX324BLOroSSKtMdiEKU26L9497Ou91F4L5ediiGn0lfkE/UqmqjJA9/nY5l3buSMpRhdiafBx4KB7y1mT3A6RS1N1MZdYPsKVbRNXRHE+qw6hSgXXb77wwd8NWgwy88mUFDjK/KJ6qaJamsgN9gNi1l/4xNJX5xlsYGF72pzRgBRNFGT5M6pDQsZ/vHXKCn9wNipOtgGVtD47Dkt8UdYPvR7vv70S5Q3n+FWXA05/vaYa45h9H6x3rSvhm1vzCbs2m60Jgp0lVD6dhDffzoVQ7cYkitbESxDeprzPatNJ+6KAd/9/n2+7JRrAzWFIVy2WMmi0QM7x0GlUTOZaeopiqwnzNutldkEHl6F8vjBfP6NuH2+GTWPZdsvE1XdQkdbGflxR1jx/hcM/fobEZ2vf1zHFkc/EisEb5hWmkqe4G+3jpFCREKl71H6UpuDDsbMWr6f86JzotpprErhsasFOtJ6Sd/xZafwF0Xc60siXT4mXYEl+srbBaI+/exLvhwo7W8z0Nptz3HH/WiN+Uwsi2++5+sPx2F4RQhw1EZ7WxrXd61iwQ9CHZT45oshjJuizaGAEuqft0FLFAcXDGLcYIkMPhnOfD17ricIgRZe/Ilz0mCZ5mp0+3GAS3t9GUkeBzFZMpz/EcZmQU6DRjBwtiW3s6tpaG+hpuAm1stmMP4TCa8jZzFnoyOPRJtP/QBR1dlkXDUS0xa1w1d8tHA7l4KzaWiFlpow3A9ooPz+Zyh9O5ZxP+hwynYJ/z7+0N8PouhPH3h1ECVs/HQFlui7HdrrU/F1MEZ1vOS9+mYwPwxeyP/P3nmAR1WsfRwURFHv/bCAioKKCoqiFAkC0osoSO+9hQ6hQ+i9k1CU3pEaeu89QEJIIX3TezZ10zbZ7O7ve+bsbrKbbCCKcC/ek+fZnDbnnZn/vDPz/mfemTPtTBAR6VruL/uBWn1msOlaMObNvS4nioCri+j2VjUm3QJVTuHd+QrGapVEkUtG8Bm2jm1B5U8aFItERdzczBzbuny/+E7BKAybU81uS+NOYoMZsTZSRdi97Uxu9qnZpw5C2NvvS6r2XMBOZ7GXZgIPD9jTt01jmqy05kJjJZp/4K0iSdQDRzr/UJlXy/4f71b6nK9MbVSL7nTZ6IpWHUPkqSl0qFGHmqKt/KwhvWfu57wiDXXUbY7N78DbZV/hlf/7SGqHpborZIzbw3VvF04uG0I3m6qG9qVqTX74cSBLrsZKs1rWOVQ4bk5LGf5Ndb78ojLvvVGK1z+oSvWvv6Gr4y18Lq1nxM9f8XrZf/HWB1Xy7bwf29B0VVHlG8Ld3fMY8k11qn32ERXeeIU3KlaVbLzuvz8g6LIj/Zp+Rtmy/+adDz/Lx6BpB34RH1Uz/skkyoSE5bEQiQqLiSG6mAQqJiaGgmuictITUMZa250qP2J1chQR0VHEphrcnHKzM0iJCSQsKQd93r7h+eGffCYWkIYR4u+Nt3f+zzdAQXhyNnp9NklhvoTFm7aLFRKzSU+IIjo0isQsHbnZaShD/QhOzDbbLCGL5KhQoqMSMCYVcrNRJ0VYxOPtrSA6KRPT8iGx5Wx2RiJx4UFESIvQTTnIICFEQXScSuq4THfF8alJVFYiUaGBBdLljbdvAH6x6dI6I3KSiVIE4CdhFEhYTDLSbu65WWQmhBd+V4QLjSMpI4vM5BgiAk3Y+uLrH05iTlE73okcaVCnK4kwKw9T2Siik0lLTSQuIqhwnD6+eEepyMlfFGMOE+iyUafGEJQnN5i4dA2mdeKgJk0ZSURwhJUd0sxFZZEaG05wnhxD3nx8C+qAeCeXzKRooqOiiDfuva7VqEmN8sE7JIEM03a5GhXKiGD8JZn+KMLijBsDiB2ZVMT4+uBbID7/0BiUpn2mzZNXjPOiSdRUZgxez8VifDk1WxWPMi6SuLSih9aFm2dYdDTxKlFfxe58wp2vNpMupBDl7Y2PlKcIlBkmIptLVkoskXn6YtIbb4KUmWTnppMYFkR0bAr5e6xoyM5QEh2gkD5UmN8MaFDFhhLsly9D6JFvQBARSVloVdH4+kSTnJ1rcP3VpJEQKQaBkg3bd+tyUKtijfriQ7Ayi5zcdBJCRT1MNYsfctXpJEbkxxOkVBLpH0NKunEb/9xMUuPCCZTy64t/oJixNX7qwKxuBUYoSY55wJll87DtuoRjCU9a/KNFrVISnYeXD94+ISiztHlrw7KSIwmPjiZOKgMxqZRDdpopXyZcxSyqhnRlOKHmbaFvIIFG9wxTx61JjSJU4Zdf//xDCMsbgbSir4FRxKvU+etTLXAVmEWRlJZAZFQiKekmN2wt2WkJRCvyMZXagCAlacb1dkWpuV6XS1q0D34h8ajUZrPihV7Qo9epSQr1wc/HPJ4AQmMSSEx+HK4a0uLN+w0/AkNiMXwPXCAldg/0wz9PbiDhsYLUFEqE5Y34q6wfPJGJs/7gptXBIMvg4kqbmYwywqz99vHFJySRLK3JrTaT5MgQFKb2wy+YkFiVceAoP60xyVn5H5LNVpEYHyf1expr/VZ4Iml5uwlmk5EUTagk3x9//2hUqmgpDemSe5Khj41TJpGvgpmolBEESJszGfMk1pgpoolLzTJ6FjxJB6z0sYXhsbgj2qzoCHN9tXhsdiFIXNH9Vka8gqBopfQZAbOXDFuhZyUS7ecvfcRdfPw9UxlEpDKZtLwdKSzfMOlrWEIGavO+KzcTVXwEgQEhhDypHUj15MLqBQzpsJAjSmtthlFfI0ztgJaczGRiQwPwN33dVXjQRCkIjFSSkina9FyyUuOIDAsh9EnxW2bpH3VVJImS9NU/vx001S//IKmvQq+D7ETC/HyN/ZyCyIQ0A+nOSSc1LrTwu0KGVLfUpCsjzNpiPwKCorEwCQuhnE1GcgxhpnSYHYPi0shSKYkMMWsnTM/9zHWgoNBs0hNNddu8jfQmKD4DtSqe8OCAwvnwVxg3XjPIk0lUQVwN1xYkKkutK/bW5oJAWSNR1qOR7z4JgacmUU+KQH7+j0PAOolS47l3CsMbfU2rIWs5/8TPA/xZWEwkquDGEn9Wzj87fMqDnWxeNYspewOfOGvxz0bify938RdmM2Pxb2y8EmXc0et/DwM5x38egdSHf7B9tT3jd/kbdwz98zLkN6wjUCSJsh5cvmsFAZlEWQEFsCBRIoiJHBX3WHAmyno0T3M3gEsOdnT/7DM+K+L384LT3Asr8iMbTxP5c3tXJlHPDep/TETWSRSI2eC4iGDCoxPzPqb692VaJlHFwVLslJSanEjCE6ctiiNNDvMiIZCbnkBCciqqfNeEFyn5clr/QwiIXXRTkxNI+IueCf+hZL8Q0cok6umLSSZR1jF8AUhUDhlJcUQHBxNcxC9SfAgt35/Lek7/y+/KJOq/vID+C5NXFIl6tknVoVGrSImLwrjnwLONTpYuIyAjICMgIyAj8BQIyCTqKcAzviqTKOsYFiJR58+f59y5c5w5c4ZTp05x4sQJjh07xpEjRzh8+DAHDx5k//790lqoPXv2IJTzxx9/lHaWE7vLyb+/hkGFChV4+eWXZfxkHSq2DlSsWJESJUogjnK9+2v1TsZNxk3WAVkHZB34Z+vAW2+9xauvvir3k09hX5UqVYry5cvLGBbA8O2335a+yxUQEEAJwbPCwsLyfqGhoRT8hYSEYP7bu3cvHh4eREVFyb+nwEAQ1g8++EDG8Ckw/F/TwYcPH0okShz/1/Iu51dub2UdkHVA1gFZB4qjA8uWLaNFixZyP/kU9lXlypU5evSojGEBDNevX0/jxo3RaDQGElXctVCmcM9+TZT1KbR/2l3Zne+fVqLPPj//GXe+Z58vOQYZARkBGQEZARmBvwsB2Z3v6ZGU3fmsY1jInc9Ejop7lEmUdWD/7F2ZRP1ZxOTwMomSdUBGQEZARkBGQEbg8QjIJOrx+BTnqUyirKMkkyjruDz3uzKJeu6Qv/ARyiTqhS9COQMyAjICMgIyAs8YAZlEPT3AMomyjqFMoqzj8tzvyiTquUP+wkcok6gXvgjlDMgIyAjICMgIPGMEZBL19ADLJMo6hjKJso7Lc78rk6jnDvkLH2FRJCrg+ExGNy3L1637s8YliRjfrYyuUJHRp3NIujCLRr1Xss05BNULj8CLlIEMstOPM7H824zeGUTQhdX0HL6Ehce9SHqRsvG4tN5eSJsBy1l3JYCUx4XLe/aA3UN/YfTwVRy5cJVDDvY0mXCMiLzn5idu7BvVntGDl3Dwwg2OrZ1Ow7FHCDcP8lzPYwi4sZLRVWsx5UIGuRfGUbWDA8f94ij8xcI4gu44MrrKN0y8kE32hYl808mBw17RpD/XNL8okf2ZNisZZdBORr9dntHH01FemEeLfivYeCOI1P+a7Ibjfmwuo2u3YN4FJemnxlK+9VquRqXIH+J+TmUkk6inB1omUdYxtCBRCQkwYF8Mj4Jiiv3R3YJrokIurGBKyzKUKWP6laNMmZHsj03NM9q8dg2m50hbJjn5SalKDLjOll6m8KZjVxac9iqiQy2YmSjOzmpLs8qmdw3Htz+vQ7edQWg1fmxuV55K5cyfN6Kn/TG8JFGZKBWnWVzf/Lk4b8+UPXcJMY8uK5LQCzNpWKYMr+XlsQzfjtjKKW+TWZpK0I0NTKhVUF4fVt8OItZcnvH87yBRcZcWM/KnT/Kw/7hOKxbcMossbCfD63zOe8Z01x+0mAM+hudZMV5cnVMv711Rfp1X3+ahMbFJLrtY2udL4/MP+fCzGVwAcszEWzvNViq4t7i+9F79xfdQKLPzgiXe2cjsrlXz4qzw2XdMvgK5urwghU/Sg/A6NIF6Ztj32RFEUDLgvplxHWvmycvXwbd5482xHE7KKGS0JD/Yx6r+1alQoxmD9xc236JPTKJbgw+NMj+mXsf5HI0qnCzTnfgrKxjXtgqVmw1g1tnCJR22uxc/VHvXKK8abcdt40q86e0/d7ROorw4Om0iU/uv5EREDrm6RKJ9djH8361Y5a1BdXEq33dZwqZbwZKREXhyLmObmuvpu/zf2+M5lq7OMwbdN3enY8eejNt2l+IlNYEH+6bTv7q5XMN5QR14co4jOTW9NY0qWcp6t9oP9Nod9sTXM0LucGx5Tz6bcf2JYZ8mQNjObtSZuJ3TXkUhlIE6/RhjXm/E0ksRRF1dRqdB85nj5EGiiDjiNqcXtM3T3bJvvMngw0nEGK1sj+196dqpKyM33iEOyAy7z+kV3ag07epfS3bkQaa3rkklUz2q3Iy2s87yGNV+cjw35tC05yJWX/QvJolyYXs/W2ZM2s31+5fYt3wSNqOdsF6qruweMgJ7UV9cruG0aiK1hx8ijBxysjzZ+FM57PYb2wErKU0JdWFP/zK89vobNFzmRmiSZctl6rcKtgOh2zry7advGculJbYrLmDotaLxv/o7o6v04He/DLRnR/DRTytw8onNqzf5yYhFcWsjoyp1Zp2/mpxzY6jyy3L2e0Tlt0dJLpxa2odvTeXxr/d4o8VvuKnUT2xj8+P5p5w9vs2yzGUS8Yq9DCvblJXumaRcnEGD7otZd01hoYPxXqdZ27UMb3/4GWMvQIZl8RtEJj/g/Kr+fGcqgzffpUyTddxLyiCbCE5MakaDDy3bofLVq9Nq5kwGlylDWdN7Fsf6dBy3nG1OqxhXy5bt3vGkHx/G641XczlSJlGWZfnsrh5HoqKO2tGxXsW8tvfrNoNZ52pMS24GBK2jY8V3ectYri2n7OGC0ShMC7jMvnGWNkf/PeGEGkeRTPaAwRapSs2mq7hZjGxK/dbkOvzrvY9p8VuQxYe7487PZ2jLj/PSW6VeWxbfebJQU1rLVfqKdptD0Gj1eS/FnJpO70aV8mRWbdqdlffyHksnMomyxMN0ZUGixM0+e2PwegoSFXxuKUsmtWfs4TBpy7+slDh8V9WnQrkh/OYeQQLgub0fXWwHYnfQV0pHov9Vdo2uQqv1AWSqc6T3QvYMptk3vbHbeguFKbVFHg2G1pQ5azjio5HeF9sNil+uToNW48OG1v+m9ZxT3AtJle577hvHQNtuDNjpKUwSlIEnWNL0Heqt8iU2JUsK47yqFS2GTWTZhWBDzNEuXFv2K+98XJ1x5zRkZRvjCtnDxGbf0LDnYnbeF+PKKSiurWNGu1p03qrIS8/l6Z/x9bCVHDExE7P8PDWJij7OwikOOOy6S4xGQ5L3WXaObEHlr+dxmRx0nMf+kwo0tzvI9YAUNA93MKNHBxr1Xc0ZhQKvs2vo1G0b/hoN2RoNiq2dqV2lLzOPPCQMH87s2MO6xecJ12hQBt5h25AKvDb6PElWeyORsSh8LixiQOXPabFkN6vqlaDpEmcCTSQq7iIbFjky1+EKERoNqSH3ODWlCf96dyInc3KLGKEL4+GRmfT9rA5dBK5ZaWjOjOSzD5tjd8ATRZoWba5l+RvS+i6lh50hIT2H/GbDg8MTO9OlZTd6jbNjcoeG9NtrOa4dsW8gjTtPZekpT+KN+qTJ1aLLF2JWgs783r4+v/YYi+3g7ozs25vpp2LynutyMgne0IpPW8/nD7cwkk36qdUVIS/v1SJPrJMoT45MWc5Su4M8lNKZSWLINRxatMbBtzCJErNW86b0ZOrxcElPM5ShPFjckDdft2WbIh7BTfXaXHJzc9HqdGb4FZksQInrnsnMse3DKmfL8sjV6tDrrQJYhMAITkxuyuT5Gzjuay4rl1zrBWEhJyP4Fk5LuvDR1L9INiykFX0hjO0aY7dw0qMoEpVDTqYX65s2xeF2pCWJSrrPycU9aWPTlgU3RB5VZGWewK7Neu6FJJEpykBnFmVx0gAAIABJREFULAOBn0Si7nFiaUcqTLpcdKKKenLNnh++bMmQDddxTzRgmvDgEHsdxjHycGRRbz35/p8mUVGcnz8ZB4c9XHd5EomK5tLi6Tis2M5V1wIkKtOD35qXZdReBQpr03rxntzfNox/1e/BoPqlabjMlZBEMyva9zDLZtlStX4jeuS1A2Kw5xxT2q3lhm80qRoND7b0pYvtICYcFv1WGhEPTuDQuRcb/J9EotKJ8jiNQ/uu/BZghUT57Gdh/06S8X803FAemUmReK1uTOs1HoUI35ML4kUP8fg2yzJ3WaRE3sKhSXMcHmWScskaiYrA8+QabMvXo8eQ1pQZZaXf8j3M8iGdsek0H6cwQxlItsvqBvyy5gGBSgVH7RoyadE2TvsbnufZGFotuab+IXATA7/5mYm/X+OhVLdyydUmEXB1Hw79hrPDRyZRluX3fK6KJFHhexg7xIFd57xRajTE393Jkl4/U6fNWm6jIjV2H8NLvUSjuTfxiU5H47yKvi1+of3UP7iheMilvY4MGXWQII0GdVoifg4/8sHbg1lzP5R4HrBn6XZ2brtDtEZDxP2DLBv6NV/MvvGYTCu4tdWO3jV+oN2sVSxo9j6N1irySVTUEeZOdGDtHy6SnZfoeZIttq2oUmshRfdw/lx2HE7P75vScfoi5rSuQusNwfkkKvIAU0c5sOmoO3EaDQkPDrJmwE9U/3EF5imVSZT1Yns2JGpyR+yMw/V6vRq9/gwTK5TDdr073sqiSZR5wer1t1nXti62Yzdz+oksykCips5fz/GAghnNJ1E/zTvHgwhhkoDe5yBLZk6n44ILRJlIVLN3qO+oIDEj1xDmvgP9hs1l8h5XlKTgf9EB+w429NwZKhm+ebagXo/OZR1DWtvSd/5pvE0k6tfadN2RP66qv2ZvdZRMRPbUJEqvR6/TSwaqMLL0af482D2d1lV6sVF08udGUundoay+F0KcSLg+jjubRjJrzEg2uBne04n3xbviF7qdYbV/ZdK6a3ikGOWKOAB1rA/XFzWndKO1uBY5UmqSmUV6wh0c65egmTmJErJMPxFfZgQhZ+fR+N8/sVoY+xqpCCz/hV3DaYYtXzVYxjUpDzrQK9jetTLjNt7CreDET0YwPkdm0+KDDqwJ1JNlNvIicqnX6dDpkvA+s4xpHQuSqCss+K4jC7bdxUdlyLd5YtKjfTg4+HVeabiKG7Eq1HnyDLiOtiBRYhbiOGPeaMwyMQuRVVieuezinhdNolawzO4g7pIgYZBcx7Flaxz9NKgCtzJ49hFuecRJZSlI1Pyp+YRPr89AnebE6Ndfw3arwSh129iZdsNGMuuEqFypBN86jGPfrqy4sYshJUvyasmSlCxZk9F73PBPE5EaSNTc4f1wdLGWm1usad2Xeb270aLFd5QsWYMmPeez++oGxrzfjMWLB1C6dClKluyN4/2bbJnclCmLrLQDOSlkeqykxRuNWXg5kqgsIOY0q/r0Z8ioZThuXcTQL0XaSlCiREleLv0KNouFAX2ZVU17Mb9/d5o0qUHJkt/Rov8OXDLDCDw5hbpSfsR7JelibLOkXCTc4sCMjlQ1Pn+r8ueMOOKKQ6NXeKuMIQ7xzmc9FrFDGkwxz7sgUY/4rXlTHAWJCjzI9BUHcboahj7pHicWjqFz00nskyZDTXXHWEfEJOuWnnQcZsvUI3fxPbucEdXz8yXirLvANEARxYUFnWjxoSH9JUt+xrd5o5+COJxnWuXyDF19F/c4Id+QRkNdFIRe3BBp9eC3Fm9Q/jWTnFaM/O0aec2rVLcmUEfC4mVKlrRh+rT+fN7BfCYq2SytQs7rlCw5jD/yvBJEWifj6LiH64FuXDyxlVEr70l6mZORxPmRZajQZC5HpNmdaC4tmY7jyu1cDfTg6uktDFvmjN6U1iJJlNDXTSzpUoOR+66zqmFpGluQqFhurBnIzIlDmbRkKVPz2gGpFURqE43tnjQCPHAYAxyvEyuRqJM4dunFhsAstIFr6TDxBN4hKVL6zUseBIk6g2OHrvwWmENO4Hq6Tj6OR2ASeoSbYltse8xkl6f18jAMOkRxbk47mlQ0lUdVardeg8HRQPRXCra0K8/YHesZVru2UUc/psnANZwztos5iSG4LrbhldKivIScbxm66RaPUuNx3jyKOWNHsdHNmPIMYewP582mphmTSE7bj8Nx43xmju9HY+n9j6lqM4eTsTdYVb8kr5cWMs3bASHrSTrgwo7+I5j1ayc6dqyPQV8XcvxxbdaJWYzs8iM/2Z8mEkGibuPYtDmOgkQF7mDYXCeuusXml0PETU46TqBGbwfuXl9Ow1dGcsTCK8GdQ+M7YNtlCts8iiqDcIlETV6yk3PGMVXLMjZehW5jcI22TJFwNYUQg6r7cOw/nB2BKWT6rKHZyFNExGfkp9EUVD4+EwSKJFHCdjO3m5JcOLNsHB0b2rHXO4LYP2wpUWIoe2JSUUk2hxj46cj0mUs56Gton/PsJm0WesUaOrzfgllOPgRnGJ5LbSuQHniV/TPaUanrDoIA6w434h1hl6QR4+3EohYFSFTB9Kp8uLttKm2+7M9mC5cpcxhNMlMJf7CHeT8VIFEFZaZ4cHXdRNrVGoaZ+YpMoswxzT9/9iQqNwN94Gp+eacZc08GEpZZTBIVvo9JTTszduEJCtkj+ek3nhlJ1Lx1HPMTCmj6CWM1n0S1nnsG17B0dLporjkOoF37rvTfYTkT9cPqAJRpOeh0oRyx+5G63Say7HwwpDzk4uoJtLcZjXUvIuFuMpIZ47ZzNT5/JqrL9hB0ulx0ukDJ2K/SZyVOhaz9v4FEWWCiRx99nytLhlLpqzlcUKsIXNuI91ssMnM3ER3nSCyNfSHEYDxIhK+6LTOc3AzuNcKQkHCNJejuagaU+4Am6yynmS2SkHeRTUaic2ESlffcEKc+0Q/vDUN5863xRc5EpXg4sW5SV6Mbj3hPNENB7OhaiV9n7OeawnyFgZ44jxM4DP2CStOuWcRmeZGMjzUSFbyJftXaUP+rclSoYDRcvulAj80PJcOzMIkySbWCq2Tsr6BZ2R+pX+s1/v1vo7wGI5h5zD/PkDVJKO6xEIkSjaHHdqZMnMnANTesuo0WlF2IRIm0ui+nWdlGecTEbUMn2tqOYKY0QmEwSsfXeINyH3RiXRCotRC2uzf1PuvFlH33CdEbZ6KG9cXhnqkuGo6GDuUWjq1q8UWJJgxceh7DfLRwj1pC1xL/x5tvm+uAYSZqysJNnAwwl2UgomKGL+i35lRuOZ997vfYP701/UbPYbOz5CSH9ZmoG6xsUoMqJZpju/oS/hIokXjfO8zMAX/kue+GbG7Ll23msP1eKCq9B05TutCp8UBmS1ZpItEhxxnXZiP+Gi2KJ85EFUTe/DqJRycE4XuLyjUGsSXYDCsjyXHf0oMOtkOZcsTgTJYZZmUmSq/nvkMrmttOYKlos8R8if9F9th34LOeuwjKzUKnWEuH90ey5X6IdddMfRYpEZdY2uA1Xh1yBEW8YYVPzGl7+jTsTM+Zx/HSCx3YyKxfatBxW6ixHl5i7leV+KD6SIM7n15P0LklTBjanNZGJp2bkYjCsT7vNl3CiYB4Mox5M0fCdF6YRJmeFDwaCZ81EqXXk+p1nI3z+1N3yVVUwthvWJomJhKl1xNzZjYDps2RyKnVdkAyaER53GNbv+b82m4ya24oCybir1/HnGJF76lMEbgWJUUfxuFRNtTqPpXVlwTeoPI9y/bhrfj02/lc1htI1Oa271Dx9e8Yvv0evirwPzKFobaizXI3DFKdW0qzcnaczM4lywJ7Q5s1WxpQMyZCIlHmbmeGPrbhew3oOesEj6TBlE2Mr1GC18tXZuR5g4uccFe2aT9d0oHkYumAcOlszrclbOgw/pBx4KcoIAz3AyxI1OPDisY1/OYmHCc0Y8h+haQDqyUi7UJIYraBxMSexXHANCZOOYKwBqz/GUjUpMXbOaso3A7lvWOVROU9lU/+QwgUSaIs0qNHH3SOHROGUqu1I1eUgTgvaUaJ+o44JwqXTvEnBn46MnD4ZByvm7cDevQ56ejPDqdSeVscTe2rRFCEvoTgetie3p+KJSb5A+sW0VtcZBDrY4VEWYTRo4+8w7kFQ/n0uwVcsXhm7ULMnlshURZB9ehDr3LYfqg0WG3uBC+TKAug8i6eDYkyc+dLT4jg5NCXeKfpQk4FKiXXlOK4891YWJd6bWxZfPJRMRZeGxr4Hz94iZdLlaKU9PuUr35YyjUzEvXe6y8bn7/MJx2ms/6G0jgSZHDnm1+nBCVfMr7/8kt8ZbuN096phjASiZpLzyYruWHRAZmwFCTqJ2z7zmeft4FEjf26JCVfzpdXc/pF3KMyjXGa3jMcn3omykycXpeE7/mVTOvwA332hKNVq1AUIlF6DK5c+bMQQoQ0CqL1Z2vXj2k/6wDXTcREcYatdk0N2L7/JR9PvYxGI1zbBLnKzXdn0Aj3BXO3ryeTKL0ulTCXncz56Qt+3mTw1RUyTe4SGqPM5EIkShSEnmv2Vei2yJJE6fXhuJ+YzZCqNkx/HIeiCBJ1eRLfftoszyAh4bY0C/Fz4x6svGtVAYwlYIVECYPkyGBef7UhMy1mTBrSXoxAez1OnlnBFjgtRKJc1zJw5Fwm775PnEUZFHjR7LKgO19KlB+HBr/GG41XcMXos2+NRC3p8j2WHnKCmPRg7uqLuCUbSFTvz0vykkn/S/2LUqWGs0+ahTCQKNsJ5qO6BhJl+9GX2F0yXxdnIFE/vGequ6I+fU6NxiuNrgbCgLzI7C8q0uLr6rzdYDJzj3ga1hnBY0mU7ZR9XDIbvTPovpmrTsAG+lQbw7rz3kR6bmdKV1s6jDfN8JmBCDzZnc8yvLWreM9TrOks8vc6Zco0YsHdJJRqMYooZqKKQaLC92LXsANjF5/kbrwpH+E8uriOUVXM3M7etcXB1MkXTEhWFJGXltHo9TEW6+KQZkzGYD9yE5cCvbi1cT6dv19s6UJi7s6nvM6eycPo0X4uh43uURpNOhrNScZXaMmSE4YBtYLR//nrokiUHl3CXY4vmM2AX3/HGXUBEpWNLvwgs9tNZq7DZfyLageuTqH2FxUM7V6zCSw5E1igffvzKbZ4w20DI9va0uNxJCpsF6Ns7FguBijyXo7C+/w6xn7Zl03B+SRqzHaDt4cUzO8Iq+dMo+3ss0RlRhJ63p4m//cOQ45mEKfSoJFciUXbU3wSZe7tYXWA4sYcmtSwNQymFEsHDCTKdqAY2c/L3N92ok+8y3Exy9tsCgciQaOKxdfhR/6v8VLOBCeSKbLvvgW7DrZ0KQaJqlvBvB2qSq0Wqy3XuMgk6m8ru79TUHFIlF4Xx/1dkxjXqzMTjkeTbZVE6fHY3o+JMyxJlF6fTWbyXRwalaHVkpv4xKoNyX+0lzm9vze0H5/9yI/LbufbTVpLG0dr0Wc/mUTpdYk8OrWEKZ0aMXBfhMGzp6BMCxf8J5MovU7Jw0OzmNitDSMKuHbLJMq6RhYiUT23h+AWEEVUdHSxNpcouLGEWBM1oelLvFzauADTYnGmIRHWSNTGriV5qdQreQvbytSZzNY7xd1B7E+683lsY2KnoXSdfIiHkouXcU2UuTvfnUW0qTOE8dtvoxBrLwSJcphAB5uR7DQMBloiqnNh5+CR2Nvt4KrSOBNlcufLVcMlO6pWHMyy6wFEW1nL8XeRKJ1WQ+C5FUzuXpeGdkel3asEiQpa15j3my3ksHescTGz0djv1xv70wZ/D2FE5qQncGrUv6nUcg4Hi9g9Srjz3ZzXlNKlh3MgIR2fvf1pVL28sezMN+wQED2eROm0uUQ472ZR72p82X+vZCSIfk1aqP/520aZzRm0+Cx3PY6wflI3atkewFAE+TNR7WceMJuJ0pHieYwNkzrzne3BIhaqm4qvCBJ1ZTI1Px3KgnPeREocJ4GHB+yZ0L0to50et/y+CBJ1dBhvvjqELYHxJEnyYri6sje2g0ey5FJR62hMabR+LESiRDCvnUwTM1EO18lfkWX9fXFXkKiRP5rV139XpNxPG/HMyslb0F58EvUttlP3cSn0ye58Yibqz5Aoq+58UrYEmFo0l6bT6Ov3aTHtEJfFTI4xy1YNPQwzURYkSq8jPfgORybUpLRpYfgrpXipZGcWmkjUhBn0LwLXv4NEmUpJkxaHr0Mj3n69HlPPhhCe+WdI1Fe8X/oVXjHlQTqWp9JX/dkckIH2wig+fncwq+8GEyfpoSlW4zFZgWLbMMq+PoYjZpuLQDRXVvRhxpRZ7Dl3i5Nzban6RBL1K1+8VKpAWkS/UJ/ppxWSV0KB2P/CZVEkKp5728Yxa9hAHO6oUatTUIZdYln9UjRadAe/GB/2j6jL+MW7OOMnnsfgfnwRk9rXp/cOBeqcXEmHzCGKu7iQYc070cHugHG94V9IbsFX3Dcxuu1Qes44iqdJaQuGuTmXpjVsmWpBolSE3t3GkvY1mXylGCRKyMxJQuW2jBZvvM6/ypTmu3EHuB6oQqd/liTqSTrwLEmUnsS721gwqgeNxx9GoVajTlOS5r6Mlv9qxJwzwYSL6VCPrUzoKOyBw7gXVQY8jTtfwQKVr583Ak8iUbrcHKR18p1b0XXxJaKF5aIM5O7S5pSot5o7BWaiBg0XM9Jihb9Yr6olNdydvQP/RdkmDtyKS8NIoSyyma64xgG7lnxQxZ6z2VkEbvyJzyv+22jj/MzYDTcIzHvj8SRK2HkBpxczvtsPNJ10QtqALTcjiaB1Taj47ptGmQU3Rns8iRIyfY7YM6JrE36xssmQTKLyCsfipBCJernMa9SeeJir7iF/mUQtMVsTZRGb8cIaiRIbS5ivibL2XtH3/iSJIo5b6wYzYuBQ5p6JRmt1TVQkJyc1oefYJey8l4COMFwPTGf4d02wv6hGI5bjmHpYXS45dxwY9NMw+i86i2+hNVGiZQ5mT69PaTdtL5f9VXlGnilPT0+idOTmqPE8MImhXVvSacEFqSGQ5OdkwMXRfPLuIFY5BxMr0q2L5uaGkcwcM4ZN7sIvOJeUcC/2DXqDcs1XW26/qtciZoNyjNvm6bNiiLk6nx9KN2HFAxUFNroyZcl4LIpE6dFqsvE/s5xJPWxoVOTWxmbiwq9zZKYt3zRYzBWt1HqB1o/NnT7BbvNtHopty8RtrT/XNoxmsE17lt41e9/qaREkKnQbA6v/xJStznin6kEXh+sf0xjX/VfGHo2WXBtzszPIyNKgNa6ZMIi3QqKEi5zXalq90YB5F8KJFMOf2kguLuvFkCGjWfYXt+ezSqIQG0uYr4mymum8mwXd+fIemJ1YI1GLO9Vm4rn8eqDLvcKypr2Y53gJ95TnR6L0+ly02SeY+sWvLJ0wgDo1hzBszSV8jLoqkajFnfloyhUzo9gKiYp05vwCW4N7lDHv2oD19Kk2mrWCRAly2nUoHcbuw1WSbagz2WqNNBsbItz5xmzmhHGtmRAhOqWc7CyycoSyFv2n14pZo5y8+oVeg1btwZqW5Riz2we/xCJI1JIOVJhwKT9fkfuZ2Ggci7bfItBi/Z8pbrEm6iIzq1Rg8PKbPIjO3yTFMJucTXZ6FJFXVtLszeEcSMwg3djI6XLvs3vEGKaP3sKVoEfc3ryALnXmc8HUEOo0qC/a07j7AoM7X8JN9k6ZwfB+W3B+7HabprRZHoXbp6F+iR0mzWe2LcPlrd8q5M7ny7klg2lVtixlTb/XXuWVl0rwUulXea1ePeq89x6VTM/KluW1MqUp/fJLlCpXhUqdtxOk05CeLVyxDQ29PuYs64YMpL9YZ2RsawqmxnSty81GnZ1N9hPz7s6Bsb9i22M629xEXg0SRP51mizUYrY/fC9jfxjL4t3OKLSGAHpdOF5nHBlZfSDbQotJokyJk47XWGLzBbZzTnIzQrRZo5g1ZgTrXbXCKkSXFoXywGBeb7zKuItc4T7W6gCF+UxUsXTgz5MoYfBmq7PyiK5FtswvdLHc2TKWrp+XpsxrZnogyvqVl/l20inuh2WgwxOniZ2x7TKRza5FlIH+2ZEorUYt6Yqpf83PgmEti0adQWa2Bq2khzqp31Sr1WSLuietxc0lJyuDDKGrUn3VkSvaHXV2fpuSL/R/8qxoEmXA6t7vPejUsSujNjvnuzmrIojdP5xSJQayOyoVYQagDefM3E5Mm7mcw356qY2P8TzHun4f8V77rfhptOQt5xZ2oSYXjbFS69MCePjHdFpU6s7vwZBjrOvWC6QoEmWw89z3jmNgl5/ovvRyvp1nXZDZ3aJIlJCZxYNtg+nZ6dcilwLIJMoMSrPTQiTqb9md7z9EoibNXMk+NxUqlfGXlk5mTk7e7nzmG0vgf5jlg4fSsu8WnLVWZqIESA/WMajFEAYuPsMjLaQFXuXAhGZ88lVPHDxVJKca4/HdyaRWtWnWfwV7XcV+ZgVmokyA35pDk+qDmH7QlZACFeipSZQ2jNNzfqVx3Z/ovfQsgSYMVGmkqbPQ6y8xp9qHDF1+DecgFaq7W5jeawSdxh/CQ6ci0m0Pk+q+zWuNV3InLpFE0/sZanJir7Jr1w4WbrkrYRsf6MK56Y15o9z4Agt0TRkVRx3a3GwyVUpiQy+xtG4JGs29xMNgJelZYgfGSK6tGcQvdRvSeqoTfqb4xDHLYJiaSzOch+N+fC6jajZi6hkVqiQlqmMjqfbpaBzvBElbP4tZCeXtLczr+gs/dNpIgV06zURq0agzyVCF43J4HuPb/UDPLT6oVGlkZIsF9qEcHPotnSdtwMklCpXrHpYO6YJN50UcjwZpTdSgspRqsNK4sUQuOZkZpKuCuLRmCLY9ujHxYAAqSQez0WR5sfmXcrSafRJn/3hUNx0Y1q4Dbe12cM3ctdoshU86/U+SqAnfvsm7H3fFwV1FfLIK7009adB1DuuuBpJi3Fhi9pCeLL1qVh9VKsko1er+vDvfxNlrOORuJkvCVUtuegLHhv0fH4/eyZ0gb87NaUuTziOY4eQrGaQZIbc5OvdXPmi7HnehW9mCOFghUdH3ubRkJNVqzuCkURfPTP6Iz9/uwiJBonjEiZm96N6sP9OdAlGpwgj0Poxd+20EarQE7ezKdz9PY815T6Izs8nR6gm7th572wbUX+b82KJMdt3D9jX2TBL6IuKOCyPhwCDeq9CK2RfDiMyyQqLC73NqflvK/7RGyldqttg9MYJT01rSb/xitt0Iz28HVemkZ4odOg0rHqV1K583ZNDaC9yNNGAa4byPXavHM/ZoEKlR13BoVY43+u3FPShWkhPgNI2+g8Yzfsd9lAKNMwsZ/EVN2q/3QpWajMpzPX2rf8RbNUbjIG1xLmZuZzC5Xxfs9vubpUWFKj1bciUzjUFZA0esiTo3ojTvNp5jto7TakjDJhjNy2K7xR33MJOOpJGRlW8QU8idz2x3PklsgcEUaWvj9XQYexB33ygp/YqjsxjSsivdph59zNoZQxq9dg+hh21fRv7hbS3RFvcSbqxlSofGNOw2n/0BhvQnRSlwXdGMtr95EpoUxPFJjbHpNpGlJ7yktES5HmXj1G7UHiZm2otBonRatDmZZuXgxfZBtZm8/gx3IkFxeh5jh7ejo8NNVPEB+J+y58fX3+Alm2V/nURRHB348yRKDPyM6NyQ1tNP8bi9JLWeu5nbtwMNeq3gjNmmQ2LQInTbr1R7rzeLLvoSqYOE278zo3Njfug4iz/8jWUQG4b7ika0/80NRYJhd77x8zZwxMOkY0KXM8g0t4b/gjuf5SCVuWrkr+eu0G8jV8RoCrFcF+u5f+1Cv+3567nnNypHCduzxKaKlTsGwvd91wksfewuGOZx/bPPiyRRuQr2Df+eb+v2YOL2m4QY237Rb6dnJ6OKO8jY18swZKsC3ygVqqvL6dd6JMNWXcJfl4jP2eUMrfspn3TdhKdKRarp/cxsNFEnWb5uN5sOu0v1Ltr9DDtHteLjGvOl9Uui1hb+M5CkDFUMgff3MLvJezRY7k5kfDLp6ly0mhBO2LehYd1fGLDqPApTfGnCzrMuUdhEglRnqKLxvbEZ+xaf0NzBk8TkVEN/rAnm8PjGfF+3EyN+v0Jwnsx0KU5TGmUSZULC8liIRA09EMOj4L/+najQy444zumL/eminYm8/xjBALvR2B8zLOlOCrzJgam16bIjNH/bRct0PuEqmgsLOtOmWjnKlcv/fVSjIX33BKPV+LOjy8d0WX4ZD2kLLyFObPs4GrsOI9jolklC0Dkc238mzYYlZZqU0Y0/RnTAbrQjxqRCUiB+OwZaxFOuXEPG7bwrLeY1JFQsvN7Cwl5NJV/V/MTfZk2bH7BbeJJbBT5J9NQkym0jIzp8XyBd5Sj3yTd8an/NMCIltvNsWINPJIxq0c3+D26KGek4D+6t71X4XRGu40K23HLnwR/2DKplwvYjPvmyr7QbjNhUwPpfNH5XVtLPrDxMZVNvwh9cPLKRuQN+LBznex9RbuxZIpPFVmtW/jKC8T4yjSaS3HcoV64lC69HE5M3f+7HhRXDGdBqELOtfKcpX6IXx+z70KJA+spXMtOByMPY/1yXz41hGvSxZ7dx9Xd6rB/HxlTk3Z/WcydeTN/fZ0vPFtgUkFepplEHdBoI2crAGp9RyRimzaQtnBXb9PzFv6JJ1DKWjtuPWwGibi2aoLOLWD7PlgUXih5aFz7gPewmsUhKrGm3s6oM272fseXK8Z6Un4E43gw0bmaRyMODs7GtbdKX/GOzFS4EJdxgY+cm2M3cx+U819hYAm86YvdNPeyvma+JiuLs7Pa0qpovQ+iRhOvWh6SftOPD9+3YE6yUtmMn7gLrbUcwdvIupHW/GaH4n5xB03LlePud8jRf7U5Y8nXWt2uI3Vwnrpvtap/od4Ut/fLjabZiBSOqT2XfFT/DaF/iXY4u6MP3Un4rU7X2UHaEgjTpY1ZNGMp2AAAgAElEQVS3ag1axR+uSoIurmX6kKa0WGN1i0Kz4hA7mK1inI0p7vd4p3xbVrurSDba+sIo72NnJ23OI72YGUHQudk0M+qSAVdhQMVwZUVf2n9lklWOcpVrU3uowQXWRFyijoylff1P8utftTZ0zpu9ziQ7/SRTP3yfykb55eqOZqn5+lQzXMuVE/VwJDsur2Ho2A0cvBZo/NCp2NF0DRPqmaVFyGu2gnNBCdL6WDMQLE41GclcnlSBz9su5aR/vJVvL5mCa9BkPWJrh4p89r55PDXpbNIBKaiatPg7/NamPO3WCB0oSKIMaZ3X92fjNu+iDwhmV4/PqF7RJLc2PWcf5I5hzxJTAgofdTm4bR1K72GDGW/8FmLhQJZ3kh/8wapBtfLL471PKN92M+55u58+YPeQtjQwlcfnzflZ2p1OyMlP69Q/vKSZS0l64El+XzqPHksuEW2t3+qzgXNiu1zpL4hbWybRUZJfjS+/tOPkmQm83+43rkenosbQx85bnt9mZYTe5aTDAL6ZZ/YxQueltGtox1wnN+OHkJ+kA1b6WGOKijqINmtSf3N9tR7Sz2kSw+2GMM70McS8YKJhvMbSet9g53Ajb1fXlIcHWWNbO78MyleiXOsNuCRlko3YnfBnmn9u0gXDsXLtlgw9YNaZS+1AD+ZY2AN5ERc+0eVwd00X2o8Yx4JCnYEwmg22S9WRO7gRKPbvj+fOxlH07DWAERJBN9guK375hHJ2l4hTiTbAmNaBM3HMb2ALx/0/dKdIEiXp65f5ZW6qX183odGKu5CbCcEb6PFZJSpKz+phu+YiD8V3oMKv4zS3feF3RTipbj3iusMgOn9t0pkq1Gw6wbgDa1HgB+O8axpdTOkwOzaadxmPkysZ0tasnTA9r1KTakVunR7I9d/taG8Ka3ZsuvQO/qeW0LNFjcL5qFqP2gtv5yVUJlF5UFicFCJRMTHFJ1AibME1URbS5YtiI/DUJKrYMckB/ykIWCdR3hy3n8iUvos5HJhBdpEk96+iYCJRBTeW+Kvy/pnv6eJvcmjubAb32obpu43/zJzKuSqIgDbcicW9pjNz6Xnjh3kLhpCvZQQMCGhD9jKt7VQWbbopbXst4/JsECiSRD2b6P6RUmUSZb1YLUhUllpXrHVQ5kTr2ZMo8RGzFBJjYxFGo7Vfgirrhff9lUmUdQWV7xaNgHUSJVxzFjDxl29p2Wc5Zt/7LVrQn3oik6jiwCVc9HZtXsbii0XP8BVHjhzmxUNAfE9q8ea97HcTrt3yn4xA0QhEn5jCjM3HOO2tKjqQ/OSpEZBJ1FNDKH8nqggILUiUCGNOkIpz/uxJlB/nl4+k/Qcf8EERv2azjnMnxPA9kyLy+V9/WyZR//VF9F+XwKJI1LNNaBrh9/ewzvZnFt95tjHJ0mUEZARkBGQEZASeFgGZRD0tgsgkqggIC5GosLAwQkNDLX4hISGYfsHBwZj/9u7dy8OHDwkPD5d/T4HBiRMnJJIo4yjrUXF1wNXVlRIlSiCOxX1HDifrl6wDsg7IOiDrwP+SDixdupTmzZvL/eRT2KiVK1fGyclJxrAAhmvXrqVx48bk5ORQQhCtCxcucP78ec6cOcPp06c5efIkx48f5+jRoxKAhw4d4sCBAwj2JQiUYPhNmjThk08+kX9PgYGYZXv55ZdlDJ8Cw/81HaxUqZJEosTxfy3vcn7l9lbWAVkHZB2QdaA4OvDOO+9InzooTlg5jHWdKlWqFO+//75saxSwUcuXL4+NjQ0BAQEGElUcFz7zMM/ena+IObR/2G3Zne8fVqDPITv/GXe+55AxOQoZARkBGQEZARmBvwkB2Z3v6YGUN5awjmEhdz5zglScc5lEWQf2z96VSdSfRUwOL5MoWQdkBGQEZARkBGQEHo+ATKIej09xnsokyjpKMomyjstzvyuTqOcO+QsfoUyiXvgilDMgIyAjICMgI/CMEZBJ1NMDLJMo6xjKJMo6Ls/9rkyinjvkL3yEMol64YtQzoCMgIyAjICMwDNGQCZRTw+wTKKsYyiTKOu4PPe7Mol67pC/8BEWRaLUyVGE+7vhHRBCXEYumiwl4e4ehKfoyE2Nwi84loT0bP727/C+8Ij+XRnIIiU6hPCgcJSpmaQnRPAoOJFsQP93RfE85WTEERwWQ0xyJrlkS/kJ9wsiNjWbnKQIHgbEk6HVoSuUpmzSEyMJ9wskJjUHTXI4bv7xpOdqrYQt9LJ846kQyCI5KpjwoEgSUjNIU0biHVKUDhbU18gXW1+fCrfivKxGFRdOuGhfU9VkJUbgoVCSpddbqd9q0pThhPsHS2HVSRG4ByrJ1FmrL8WJ+3mHES2WimhvL8Lj0slMVRIeEU1EQjqa552Up4hPJlFPAZ7xVZlEWcewEIk6e9+f0PCoYn8vqtCaKHUqCeF+uLi4SL8Hbu6EpkCu1MNmkxzui89DwzNTGDdPHxRxaWRE++LqEkpCdi65FunNJTMpiugQBTHpoNWoSQ51xTU0GbXGaApmxBMW8CgvXg+fQCmshZj/4ou/g0RpUqMJ9XfPw8D9kR9RaWaZzlYS8sgDN2PZeAdHk5hleK7LyUQV6Z33riibwNg0MowtZW56AtFBnsbnD3noEUEqPNEY0mnUpEf7SO/5RKej1uSbWpq0eCIDPfLidPPwIjwV9I+zNLVqMhPD8TbmQaQzSKlGLRSmgA6Y9MvF5QGurmEk5WoLEYfcjERigjxx8/IlOFGYuYX/MhOCUTxywd0vhKiUx3QdOcnEBPngYUybp69BX80lZico8PZ0wyskjqRMSy03D1ecc+skKpOHuyYzoslHNB1kz95HiUT7bML2zQ8ZeyGHpLNT+b7LEjbdCpbKD3UycWG++WXg7klYKugeVwbFSZwxjCYrlbhgdx4GKFE/lkRoyclIJNLbsm0QZegVGk9y5pMpX05SKP4RscSprJfjn0h2kUGFvsRGheIXm15kGPDi+Mx+jGg/nm2X3Li9aRyVuu4gyFRf0iLxfZRfT72FoZv5GHF/8pGkr4GBhMSlPdHQyUwIJSg0mDBTQ2AtrrvL6DRoPnOcPEhEwc3NExherwurLocQvn8kpRutxVWlJqfQu8E475zC8DrtWXY5gthDIyhR3xHnxAyJUGbE+ePv5YJHYARxafn1SpebTUasH66hKWQbOg54XN3S60Adj8LjYV7b5hsWR7JQOECbnUZSeH7f4OISTHxWTl4fo0mLIyKvHfLA0zsai0+fpkXj753fThVsB/Q6Leo4P9zdXHkUnkRatpmu5maiigvhkbFNcHV9QEiyFlO3JdKnUcUSHmCS74bHoxCUWbnokkNwe+CaVzfz27NH+AcnkKHJIjNOYfH8UUQK6VL8nhyZ0osRnaey8+J9rv5uR5Veuwm2Wgct9fXWxgL6KhKZk0Sk/yPcTe3uQx/8IpKtlLkE+T/8nx+XVo9kRNMBrLvkj8+u0fy79QZ8NFor9S2Aa+vHMvzHXjheUqDYO4qyzX/DIzPHgF16DApfU7/qgldAKHFWPnmZFuXFI3cX/CISSbVo3rRo1ClE+xjazeBEDTlm6icVRHYqiRF+uLh54hmUkDeYo4rwwOth4fZVq1aRGB2EZ6QwHkQfdYEZVaowes0dPM5vYOSY2Yzc7Ez8C1TKjyNROUlhBHg/zKtHXoLwmspArwV1HAEP3Xhg1H2/8ARSTW1LViqJYeZtiwtBCdlkG7t2jSqGMH9T3fbkkW8M5iZZURCa2ixXN3f84tRozTpkTUoUIX75/YeHtz/RTxKam0FqbHB+O/TAjZBkndEuF7ZTHKEBXkYM3HnkH0lSgQZdJlHWS8uCRCUkQC37kzzwDflrJEqjQum8k1XDW1H5axtsbOrQsOkP2G6OIT5TjD6Gc9SuIc1rVKHad+K54de8y2CmH3DFe2sXPni5Peu8lCSY25dZodzaNp0J/Qay4ZGwlRUcsX2VV22PoIjPgOxEwo/PZWinpnzxrZBZk5ZdB7LwmKHBsJ71/667T02icpLwOrSIsd2bUtvGhjrfVsOmQVNG7IwkFR16Ugg/PYc+DX+k3nffY1OjCs37TGX1xWiS1WqSA2+xd2IbvjOWSc1P3+KnSU5cChQGTyZh13awZGALagnZ3zWk9jeDcAxJIUubT4osEc0hMyUS38snOLigHZXfKIHNAmcClcYeQJOC/5n1zOjXXJL5fc2vqVOzBr1+CyVBqy+CnGWTEXmHc8sH8sOnNbGxqYtNtQq0nXOBWyEZqH2Osnxijzy9EvpV57vqVCn/JqUq2nMuOZN8WzWDxFB/XI+sZU7/7/niu4b02xtumQVxlR7DubUDaFezLJ+3GsDss7GFw0h30oi9/Tv23dpQr3ptbGp+SeOfOjNxXzDKbC06bRKh9+9zZcMQmld/m5pD1+HkkVKErOLdtk6ihPE0jZlDfudSopCTTKzfAcZXbI2DrwbVRTMSpUkl7sYmFg5uySfG+tqoZTNG74glVfP3jJSmBN/l8Ly2tJ54nAhh0BaZtTQiHuxhRt3XeK+aDXWNeijKsPviY9wMehxpMQiNPDSc1hNXsf5aWJGxPO2DlIcHWD1vKE1W3nuMKD/OzLdn5qCVnHI3I1F6HTp1LAFbh9Cs8Y98XUu0VTX4dfhCdtxM/dsMUsWpeUyfNJEFBx4iqcBjUuq1ewg9bPsy8g/vokNZkKhQnHcsY9rPk9n/6EkkKoz7e1cyraUde70LkygXx1b88k0ZKjUbw/xjQZjslpzEEFxXNaO07SnCk8QozxPqVm48oUen0KF2PerV+h6brz+h5eCFbLoRR6omm0S/q+we+5Ohbatbj2rvtWPWZW8isgRxyyDo7Hpm9WkmtUO1azSifoMxbBQjCdJfKpF7ptKlTVNq1LHBpvZX1Gs7iMk7PEjM0ZCTGUfgrWucX9OdmhVfo84kJ24Fm3KShUpxkQOzevPD5zWx+b429b6uzK/LXPCMyyZHJ7hhOC4HFzG2tyF+G5uWtO+9iJOhqWhuLqJl0x8t2rMan7/Hu+VtaDN6Dw9CnbkwsyufmPrS7z7hhyFbOOuZQKbWlxOzpjJrmCNnHz6JRFnqayESpYrA++I6JnX/lSYCA9GuNu5Mjxm7cE6wsOiL1qF/1JMgrq1bgH2X2Th5PolEBXNz02Kmt5/OIa8CJCpbSfC+iXT+qTFf1hS4fkubfhNZcz5JIjoGyMRoViqnRtek/udv0GDCTk74Gi14KUAmysATLPi+JG+88QZtVnnhl6ixaGfVvifYM6EB/1f5ewsifXXqR3xXuSxVOi1nt3OMNMglRKYrrrF/cXeqzLhuJFHXWVCjLUsPeaC48Q8jUdlK7m+ZSP/2jagj9PrrKjT4qRczjsSgIpdcdSTBh+1o8/X31KtdF5uvK9Nq+Cp2OitRqTOIeXCC30a1pqbor+rW4buP3+SXebdxi1WjIZ2A4yuZ0tNgk9X6ujGNW0xie4TFEE2BmiFmOUPxOruXDZOa82nF92m0VoFKbew5cxLx2D+fUd2aGOy8GlWp16gVY/YIO6+ovyxSA86x176nsR2qxQ81qvDrCne8lTnkCO+UwwsY2LUV1WvbYFOzIT93msyqq5aDSTKJso6vBYkSQYqzI595GIuZKOV19kzuTLtWtmzwENIySE+9xbJhBwlMzSLHSKImL9nJOTEkZvGXSWbyeWZ8WIrO67wIMGNRWR57WT58AE0G7eGRNOFQgERFHmJ6axt6jt3EGUluHArPK2xdcokYizj+ey+emkQpb7Djt4McPO+HMM0zQ27gNK0jVatN4WRWNrrkPxhcsSpdFp3nQXQWBJ1k1bCu/NJ/IUf8IlE4H2TazDNEGUfLY4/a0vjzHkzfd5+g3BDunD6P0x5XEsTkfpgrB8Z8TOn+R4lOzymC8CgJubeD+e07M2q7E471S9BsiRmJSrrPkZ0H2X7IXTL01LGeXF/cnvfKDeNgai6Z1mZC1P7c2TmZDlVbM/ZMLGhz4P5imlStx9i9bvgVbEW0auIfnWNFlyp8seAuKZn5o90QyJU105g+dipT5k5lWkdrJCqbxDMzGTxuLK1aN6B7/3wSpc3JJCHQmTueUaTm5KJTnWVB66Z0tl2Lk48KYl04t3wo9Rr0ZYN/FjmZ11ndvCmjNx1mceev6TrpWZKoFSyzO4i7pO6ZJIZcx7Flaxz9NKhuzKVJXwd2O4eREX+JzSPb0aH9BLaLioWK5PibrBp7hFC1xjiqmk1SmDde929z+7b4ueHhIzoYMSOcTZLiDncVCWTmDX/mkBodSFCggojkHDSZycQoHnBfTEcb/7KVgXi53TXKc8UrMJrkHAOJWvbrl9hdMs1cm94QI+EpxAYpCAiIMoyQ6bLJTonAy/kRURkZRPu6cnZRB+r2GMOEtU64eAcRmZJORlI0wa6PCA/3N8YXSGxmDprsBMJ93HGR8nSbB48C80fzxOhjVjQ+9+7ibHzuFRJJWIgClz/mMWZwO2qO3ozz/Qd4x6rRFZo6jcd581IcZ63klKcHd3dPp3q//UTpctAF/UbXSpUZtMYZD6XIn2XdEnO7uTmpRHnexvmOCXMfQpVpkpGjTo4kRPEI77yhR1FRsoj1uYePmAVRa8mIC8RPEUiIcXpLm51Ocqi7Mf9CpjshiZmIfrkQiZJwDcPDmG8RNvjkHH7ub5qJSuLRiS04jpzMfu8wIo5P4q2ftuCtEkYDpEU9wssngDClcPdJxufMDhxt7djrE0XcyYm82WIj7kmZEmEUJGp4t7p8Xb0THYav55Rxdq8QiXpc3fJVkRWxlW6vV6LrGmf8xCCN/0Fm9WpPpzHrOBNp2RfocnO4Ob0Slfuv5byPEq1oBw6d5dQRT5KAJL9LbB5VnQqjTiPom159Gvsa3Vmy1xV/wY1S7uE0eyz92s7GKSqVhJBjLG7WnOH7LrGiVXnazjIjUVkenFk+nA51ezLrSjxkJZFxZSbV3/2OaWfDichIw3vbJAYPtWfOkUckm6m71dOcZJw3jmbg0MFMdLqC50kHhn1ly+5oY+jo3dh+9Qv22+/ho4rj1m8LcZznyFkPN27smM53gw4ighZuWi311XmXUV8Rg1nJhG0dQssmA7Hf54bCOJaREXyLKwdXsuSSmI/Qo9dlEut9l/vOJp19hCI6xTholYs6LY5I3wcolEoUt28b65U7QXFpmCbkc9OVRAc8MOqpM853vYnK1JGrV6NUPCQkOom8SWbh8RIVgkdQAmp06LQZxDx6RLRKSbDHQ1wl/fXEPywOZVIECjeRLmfuufgiur/8gX3hHeODl4sp3Q9wz5uJFAOEyYTe9yYyNAA3Nxdu3/YiMFLB7QPrcBw/G6dHgfgdmsKHHXcQotFK8zaqSA88vBVEJGWgIREPpw04jp3OIe9ggo5MpkLbbQRkadCE7WB47er0m3ucW5GiDCPxuHWJvetv5c/yiLYo5SCjavVm4qB2fD9gEcuP+5oNBhpI1NKGZWjRrRsVv5vGAY8YUk2jVRoVXk7LWdW3Fj2HW85GChLVpVMLqn3cgYHLj+EsDVgUJFECgyB2dO2A4xkPFHe3M2HqEibvcHmyvlpV4v/MzSJnomLPsWrxQc67hEszRGmPnFg3tBM/tFjK5cwkkv1+59cSFei6yZ3Q5Bzw3cPETr/Qfco2LgUE4HL+IItXXUMMrYrZo8g9HfnirV6suBlEjNaPc3tOc+60j4SV0uM4a0bV4tMJ5x/jlRGJxwkH5vQZxLg1v7OoRQESpbzGlrUHcbocINl5GUFX2D+pI9Vr2HPanFubw5zpxvGFQ+n4/+29B1gVWbqv73NOz3P/d/r2mTN95/Scmenume6Z6elo22MHE2or5ogRs6gkEQVUUFAxg4oJVBRFTBgwYgBEUYKggmRQyRkkg2TQef+3au8tG/ZWUVqPYe3nKapYtWqFd60Kv1rf+qrbVFZcLYKaIsov2vLZbztieymf9AvLGKyjh8Gmi8RKN/aCMM6tnUfXLivwU0tTiCh1qM3bGiLqdn4+Ofn5bRZTLURUeTgnlpsxob8Jmy6nUqjWAIosFSNR2kUUNNWUcWPJR/x+lDOXkoqVb2ariT44H5Npo5l5KElORmMkqtAXh9GjmG60niOR+Uh9/XX7tVtEta5weQI39yxE5+8z8cioourkND78izk7IjJlIQTSjXM2i02N2HJdC7C7O5jy3WgW7gomocUgQAOVmdc4ZtqV90cdIuF+vRYTBvXC1FNdEqYpotSjSNtVmaSetqPzb/TYkd7IffWRSGXcplR/Di+ewdf9t3JdDlNd4D/GeOtlbuaq7hyKAxqK47m224Runcw4kQvqVjbKJOWbZOKFdVpFVF1hMC4Wetjv2MVGO0Nmq4koyUTx2Ixf8053J4IKKqkIWMogHVPme4SRISdeTspVF1aN6YqV+pWITLxMOr84EVV1DY+FDtgvOk2iXI46KvOj8bJagFdmE9U551nnHkRsShmUhXHI2pBJwyxwuZqOapCwmQ1UZvuzY8Fo9Hr/iI6ODt06D2L4uNXsSyqkojyH4EV/4r2ROwnLKlf0g4YULqyZjtEMS7ZcK6UowQ8Xo0/5/YLLimTr8gleOwO9wb34SUcHHZ2xmK89zo3Sp4ioslucXG6B4bTl7LpVSGVpIrc8zOj1lTGeyWl42Y5lZOc/8Ns/fcpfO/7IaKtNHLoVS8xZJ4w/6IKhsQFf6/Sih84azmSkkRh2hPVGExmmo0PX7/6BzvAp2J2XHsiaaKrNIsnTnIHfdqNHlx7o6HRinPUm1tgvw3Lw53z65//mN592QneEPgvO5NH0oPVjaRnxZz3x2nOU0JwcUqO9WbY7Gh42Qu5hjL/ugeHKowSkllPVqp831ZWQfsMVM92v6d1TyluHn74YzRyX84QVVpEZ6MJSkyH8vOyy4s3jvxqg9gYOPf/M+A2XiMqrI3bvVMYYGWBx7LZ0UaU4/hLuhn35RuYtMZ+FS2CG/DDZUkQ9oF7maki3v/2ATg8p7hgWzBjBV4NtleZ8laRdO4fXph1czimlNOkU5htvUF2rqMiNjT/Ta9AUbI9GUcx9Mq774LXBBf+ccipSTmK64ToV1YrrjSyilttgbW2Gof449B0uyX2wtYiqf8K5ZXkikyLPybz7X/M4mFokP1hAPlecJmFtuYjdkerXtgc8bLpHiE1Xvhy9iZNxBWoPo1L3rKf0ti/uxn34dJoX0nPtg/yz2PScip3zWW7cK+Ze3mWOrLTB2tCVQFkES8dJ150U3PX+0EJENSYcZ/PsWehM3kuk3PsbaKiJYXvfXzNjTzx3cwPYMmIa5iaOuPsHERQURNCNKKKytL+prkrwYIWBAUY2ntzMySDm+BYMuhjjEpZKKbXkxm9jQV8Ttp2KJ6O6lNjTB/DyOM6NnCzuRp5l5V75zabiPGzxt2V/TYlS9td/NUHtGaw+/QarnTeIl1Smxk8S/SVkRRxk4fDv6dezm9xnu3w9kll2+/FNK6aKSjJv7GXVwA8ZuWIzFj/o0KeHDt/++VsmbvHlRn49NFaQdtGd1ZP70Enup7r0G7SAoxlNVDdlcGRmR6y2nCVYGs6WfplXObFxPp1NvMhE4hrH9r7fY7VjK9bjxqKn8xMdP+nLWMNFOLouwWKkDt279KB752FYXMilpEEx0l6Zc5ldi8YxqvcPyuvbQIaOWsHeu4XUyeNBPiz4fRfM9CehM3ggP+nMxcHTH/+Ak3i5uBOYU0h+4mkWuETQpLTKCF37Az8OmMVq73hKqSAl8AxeW924klNM4Z1TWGwJp0566VRwGpveA5i5wI2zCcVUqr/jU1bzXw8aKTs2gX9O3saJgAOs1J+NzZrjXK9QRVaIKKd+72Pkcx2bf3TD9kgMyeWKe2Fjlh97bG0xGGHFtlYmnbKIctiB41w9howxxe7gLcobtImoXHyW2eJ1PYWcnFCOnr7E2RBVQygL+oqvHiuiWpe7KIwzq8wZ3HMRXkmZZLhPocN/WHDiXqXSDC+Xi6v0mG+zioMxqjZQJtJUC3GO6P73UFaeu0OmcqqEYm8dRdGn2G44gK+NTz96Wd06++b/qylIPKEpopojKLbKYrnmOp/eXxpz4DEjBo1xR1hnNIs+BvuVL1YbqKuMwLnnrzDwSCLMfTa6Q62wPx7NPTnVTCJPrMO802R23G3OUIioZhbqWxoiarFfBNEZ2eS2UUi1EFGUc9d/J0uHdaVXr9HYHgkkMDiG7BpQPGcoRNSs2dY4HgogIEBawrgZmaW4+TXVwM2lfP97PVb73yVbuv9VhXHQ1oCZk5dzPFlRdA0RRRHX91gzs8f3DJ1sxYYTIdyISuGehohTr/qrtf3LiqhGapL9ObF4It8M3MnNukqSnXvyB901nEgsUJrNlBHhMQ/LWZNYfE797FO82c4/NJPevaxx8rujOLFqislLiiQg4ASebgsY8ZUuFqdyqX40AvE4nm0RUU3U5YZzddUY/vS9E9capOnrmr/ymBO4LBirvHFK+yURlceRaX9h5LIjXFW9JpUPrSP7hierx37J9+sUYzKaKUoh0ttyLSKqNo+rq2cwatUhvBMSCNneUkTVlmRwdcMgdM29iC2tIfXITH4eba28cUrpVpEe7MaqcZ0Z66FuXvYCRVRlNokXdmBtv4XVJ2PkN+va66wKLSPh/BZsBnehT/+JLDsaSHBoPDmqN7V1+Zya35tBlk4cjFBcXqvTAziyZiY9x24nsqKchpDFfPkfw9kQmkVBI9QnH2H19BnMsNpPaBmaIirdjalf6LPaK5LUFuenQkSt7v8xo9cH4H9JdX2IJb24Sn5zV5ngxWbr6QyZtoJ9x7ZgOqgXs8/kUaecN6NpzpdNzFl7xv7vj+g4wI2bSuMUiMVr6znCbmUjvR+4n3CSbdYz0TU8TFJTKWWJ2xjS4Y/o74klQ3qq4A6+B3y55H+XzDaZ86n4tl4r+qvfCn2GftOJ8dYbcfMOJfqucnTtQV6YBpMAACAASURBVC33Yi/gOOpvfLn2JuVKYVIctJrp4+dit+caWZlBHFtmSq+fl3K2HP7VcJ+a64vR+ctonC6nk1dHSxF1/y63Di5j8GemHClVXYeby9VCRDWVkBG2l4U6P2LwiGsMR6b15ZsfTZUiqvlYbVu3vaywWOTAnivJTzAvURypEFHrOHg5GJ8N85k2fDYbQwupbGXOl/2Ec2vklmvEbOjJr3tu4HJOuTx6BCWEOE9jtulsxUhJQxWV2bEEBPjgf3E1o//+A8bbwkhSvTWovkfm7QgCAo7hvmUuej+MxPZ88zUx7oAhE7oNxGj5Smysp2E8ZzG7bqorCu0iqiTMDfs5Uxiw+JwsyKT5JY21Sewd9msGrLlMTNAu5vUdRe+uPRk46md+7vkj/+zZh67m+0jVGJaqIGidHmMNLVjtpzA7Ls8I57hNX1lkOwQcwLx/J2a5BhJf0OLE0tZMbQuTRvrj1zPwo9lsD0mR37ZrHPiwivK0c9h88zHfr71MqnJuXelNF+YPnchUq8OENyhE1OKffsc/etnKL7TkUVCXfvw0cxVuQZk0Fodw1NaSKXrruNjaooC2iCiFOP2y02I8onIppYSbu0wY/cPH/DRtOafvQkPhHW46DeWdbx0ILq+lrq4Ab5t+DLVwZO8NhZl2dWYQJxxn0G2kM7dqpbuQJKJ+y+efWbEzNINHulkDRHNAgqcps62dOBSa3nJuXXMU5VYBVzcZM/77f6Jnuhzn09eIiM9sfpn1sIkHlWm4j/+ISduCiC3IJcRJn2nG1qzzzVK+ZFaJqN9j5ANXl3/LQPO9+CSWUEcVKaedWLxwERbbD2vMi1OIqBOEhPvjZjqVGcaOHIoto6SFOZ9GoV/LgLaJqAYqow7jYjadPgaHuVWUTJhDnxbzOKGYq+vHYGS+kC3Nb1HkZ5EHdYXk7BzBP/65lP0xuYqRuqoC0hLCCQg4zE7H2YzuMYEVfo+bEqCOti0iqpHqOz4csZ7Ed8N2K1/UqKeh2C4O2Y7t7GkMXeYjizdopK4ygT2DfkU/hyASL7tjPnwas5Zs4YD8TH4C99WGTPmhG7JFpzJJIaI02UohGiLq0+/nsDc0gaScto1GtRRRykZLvMghW1369OpDr38OwNTjJomljTQ8VIio/t9/xXfdddHVlZapGM0/Tpx8qPQ2MxyX3n9n3NrL3MhuoCp0K7Y2izDZFf7ooVBTRCnyzQhwxnG2Lr279GbgEENWeieS2+JtgCLeq/j3lxRRtSUJBHgsxGT8OJZduoc0UTRFQ0Q1kOBlwxKLliLqXw8bKblzCLsRP2Hk7EekCmDuDS5st5TbrM/wsQxavIdLl25T0PiAqrw4bl67gr+/P/7+N4lNvqc2efLpIqq+Io3wUyswGdoPi3P58pv92twYwoIDlGmGE59WRK6GiJIEXw2+lp8yZlVLEdVUlUDQgfmM+3EMLk/SUBoiSpFmjo81MwY64BmaQTGSaUxLEdW6D2k+6DWSc9OTLUYvUUTdPcW61Y4s3HGB0KwyrUK0dbml/+/FeLPXWpc+On34+afhzD14i5TKBzSmS+YmfZhgtoGdp6W2lRZPdq6cy4SOM3HPqKep4Rqrv/oPRq2/Rmz+fZKPWGBkMp9FRxTmSRojUQUXWDexN9MstrLjsD/B0UlkyUPHChG1pMu7fPxPXfrK1wbp+mDP/rA0pXlLDjFHlzO341/47IdB/GR1UTZPkqSJ9HuciDL67AdsrigjKVeSI4Co61cVdTq1jdWzjBnZfwshldkUHDamw28sOXmvUhZZ6ke2bU6U+hHat28fs2DeZF16de6JnsFydgalU1SaRuIJW3q93x2zff6c91Mxd8ay92gsbY8SUpxPlNcyzHv/zBzvUhruZxO26Eu+mrqfK5nlsthsMRJVk03yxQ2YDejJdEd/fP38uZFapnQ+0Mqcr+IOkR5L0fmrHRcfCU6gxZwo7fV5ntBHIiqijILIgziZ6fKzvhM+8bdbzIl60rmlXUTVE7XXiAULlCKqLI07J+0V95t+/ek+dxOepyJIL1U4uCArkKMb5iiubXoTGbVsH1cCk+QR+4eUknY9hNNOhhjp69JryHSM7ffgE5Wq9pKurSLqIU11hZw2eJdBjpeJObmCUd1HMmG1NxHS4FN1CuGHrBjdqTPmF1reuOrunWaN/lDMbDwIkAcB6qgqTiPi1CFcrRX30u4j5uN02J+o3AqNEc7naR+a6uCiOX/9gxEbHieiavLI81vBN78y5URptdr5ksjpxXOwNd2Id5ZCRDnqfYtqQFouT8hK+k9ezboLiZRVxHN1lxXGYyZg5ezP5cAQInNqlKaybRdRZodSSFHq26IrTljYWTPrgOLpgvJ0svYZ8c6vTDkmlTXzAHO66KJv4siOU6pz7TC711ow/oupuKU3iygjF2n+yHNRfOpByeeWs2SmLr1+7MWwcVZsvJiEpIMf1pdTEWxDlw9HsyUom4J6KA3ZiPk0Y2Y5+pIiv2lsKaIqrjvQ/++jsfO6RUpxCHsXLsTK3J2QBM15cY9EVFo16ZdWYjFpGBOsDxIQ5qc2J+qpxX8tIrRFRFUV3OTURmOMZ5mz+Voxktm5poiqI9x1InOtW4qopvpyssJdmaPzBYb7okhXeWVIv4THGlP52vLz6KnorzxIUEgKxQ8fUJ19i+Crl5X31Vvczi59NC9UmgrztJGomuI4/HdbYTxxEisDCpFGLWuybnI14JIyzSiS8srJ1hBRD2moyuHklF8xYF0QiQV1JJ1ZwmID1TP5MPr10GHYYCGi2tK5NUSU9d974eATRYzk0rYNo1HaRJQq48bybOL3GfD5f36B3ZUiCmqfbM6nOu7eaSN0Jq9hf1AMfk5G2Cxailt485yKx4ko1fHVGSGcsB9D9y7jcFbYNKl2vbLrX0pEVRXc5bL7ImYbjMdku8K2+mFdJXl7BvPHH5dwSJrDI1NQmPNZzpjGSn/FXedBfTV5UWdwmPYtA8z3EJBWonyz2xJbQ3Eyt7aO4v/+agr7cqpI8XfEYsYoBgwYwIABFqzec032AqU46skiSvIOFnZsDZbTBqPveFmewybJmHt+KzCZMlKZ5gLWe94kMcEbt4UT6TRpH3fkxKXHZ8le+2PGrzpNSLrqwaOanJC9rJ+lR/9lV5VD1C3r0Pxf65EoaYg+hs06/5cxVtvYedQXX9/DOJkNYqhuPyY6nicssUCDS9Fpc3SHWLLMK0qZn8Kcb9nIH5h+VDGKo8jzBY5ESRmknWDNguWYOfijPv7VXN/Hb9WXpBC+cypf/6Ez9terKU2SRNRP/NCpK73ktpXaV1rGMMVkM3734OGDBqI2/0TH0Rs4d/MyHhbjsV3lxkWltYeGiJKyL7zCzvmzGD+gG/31zVi9/wbZlU8x55OLXU1p+En2GPajk84Apm1Llh90pf4i/dosokpT8HGczfhRA+gp1advVzp/1oueKhF11IQOX6zmclGVRjv/UiJKWWTKYw7jaDCIoZOXcixeElE2dP3/PqHzgAH0b8F8Bis8AkmogOK40+xYOIiupofJyLqAzRcfYnepkHyl15QWIkrKqL6Igoi9zB3Qn4EDOtN/5hYuRBXJ80tajEQVxRLmMo9//A+IKCjgrt9GrHvr0neuJ74b+/CO0rHEk86tyW5RJG8fxK87ruBcpuohRGHOZ2Y6j83BzfcNCYX0oJF/fCqd/6jPKp8EslqZU9blRRGwdjQff2DK8WoozXLH9KceLNwRQlwxVCScZKvJUHRHWOCWoBrx0S6iKiP2scZsOn3nHidFbvBmc76RTteI93ViSk8DZm+6SIJsdVhBWsgulg7tiJ67wihY0U9Kidg4kdHTl+PkmyJfv5uqbhN6eCFjOo/EWfmSqMBnIUM6/oCBy2VuFbaqmCKhZ/v7oB5uraTHhyNZfi6BDG3mAZVZZB+z4He/MsWrhYjKxN/BELt59hy+0wYRJZWsKoXIUxswGtCHAUN1GWlxiJiCBzQ8eJEiqhs/dOyiuA48Ot9GM8lwAz6SalGORL1IEaVqlPt3z+NmMRzdwaa4Jz+gviyVoIVf8d63M1nl4cUZX198D6/CpJ8uwyY5cixZKl8rEVUfjfvIzkxcdpJTHmtYuNCWuXtvUZb3ZBEFGYTtsMRw4FQmL9iC6yPHEqrSvd7rp4koyVPhmc3GzJhlhJ3nLXmedmNJKtGbh7a6FyjM+UzMbXENUzxJSV5lk656sHTSd/SyOE5smWLOZ2titVlhnFs2ms8+teBkZT3ZZ22YMm6Y8p66GJezscqRIunIJ4uoqvzb+LstwGTGRMx2hsovGaWX5XmnLRmnN0SZ5hJ2+d/m7s092JsYMHD+KdlDLDSb8w3fHM6dQvni01zc2tuE7F3A2I4j2RTbHCxGoppZqG9piKif/2jJ4ZuJpLRBQEkiS11ESbbs6ekpah7YKqm4cxTDL/4Ty7P3yK1qm4ji3hlsdPpittSKicPMsFl6nAi1If7WIqo2P46E9DzyVUbFtTnEnF6LycC+rHySEy11Ev/D2+0XUXUUJd/ixIbZzJplyGKlEwi5WpKZ5K3ldPn9cFb53SVLuvbeT+DMWlPmzbHjSGoTdZV5xF7Yx9KJnehr5UVUcVXzSEZ9Cdk5OaTILk/hwf1sUk9a8tWvhuCcWElZK9PgligfJ6IkhwVxXNhuw+wZ+sx2vdY8mbZlAs3/Fd7gwro5dP/RihOS27GHTVB0Cbu+nbHxDCdBaQLTUH6TM2tnot/DgJ23mw/XvqVNREWwZ9I49AcPZrC86NL1q4/484cf8re+xli6XiO/7j55sb5cCE2jpL6JB7d3YtBDH7ONPkRLE9Brsog8vhazEaPYrHwRqsj/BYsoJO986o4ltNdaCpXcraempzW7dm8oozBqH0ad/oTlxSqKM89i12cqS3dfJlZ1brVOTpr4XHCCeZ3Hs2L1bIaNsGPV7lCl+ZIWc74Wx9/hnP0E5kywYHf000VU9b0rHF5rhekwM7ZsWMyPX09lbUIRDcq5CLKImr2WTRdTlKYuCnM+jZGoIHt6dzTC+vBN0mUnLL7sn2/ICElE1eRT6LeIjzoMZO3NXIrqJaFeTnZyNrm55RRK5nxLDNBZFdhCYJXcCeBqXPoT3atLrrCrM64TkV7a7G3p/m3ObzBi9qy57InIJdnPmYmfT2ZbRjV1GnOtlPBq0oj22sDUb0bisNeGLz5ayuXC+4/m92iIqEfMpRM1mJVff4CJy01iCluNRNWmE3/aAb0/T2dHRjUN0uz7mhzidpvRa+SiNpnzSd4Yw25Gczfv6d4G1Uei5CKWJHJjtw2dP+7DVMN/8m+GZxXe+Z50bkWUUB1ky+f/ezBON/K4Jz0PVETjuXgqlos2cCblPqVFWYo5gJKIethEzc3lDP7LcJYdjyG1vJD0rFwypW9nSLObypKI8jCn83+NZ3cepB8Yz5c9F7EjRJp3JDk4ySDYzRyjkSNYeF5ysyP9tIsoci+zz9qYAUNWcUG6NjVVU5fpzZzv/s7i8xlkZvizfqwexos9uJglzW1T3LcM+upgfKb5xUttzkHmd+nO7NVnCFUG1yT542k3ns9GuvHIr2JNOFtG/I0xdp74JzX7IVUWssWqLf1VUa9Idg78ivFz3DgZVfJo3o7kFj4/PZ7YjByKbrkx5r+GsPRaOkXytyagvtCXbWZzmT//AGFlbRRRj0pYTsGd/Vh++FuMvBsorb3HGfNOTF99EJ+7tcju7kM8WGM6TW1OlMKc75lGogrPYz9gOnY7/Ih6NMfoUSHkOXLPI6LKUq5x7Was/NmWVo+n6olTkxNJTHohJdVKwVudSrC7Nabj9Nl8s5ySuEPM+uJ9OvbsT7+BqnvRYHS7fMkP/aZisTcOyXWH5J3PqZ/CnE9yf17kM58hBvMZP7APc+0d8YyrgKeKKCA3GM+l5uh8rcMww0FK73wtiqzxT33lPdLjrhJwR5sf0HpK0mMIj4gkWvZI94D66nskh13kfFyh8vM0klOcMEIiE0ktkvpsI1VF6cTfCCIwSd1kViPrZwp4vIiqJT/+GvuXTWSy8UKczic0O8xQuxc4x5dSIl0+yyPYazEeK/sd+GQryhp2bCsLp/RmyNILZDU9fPTpBMk1ekpGHtmSB2np9C+J49oOM7r8ZToe+aD2tRctdXmciKqjMCmcY47GzDA0YemRyKd6YCXnIrstDRms54CP9E6pqYpqaX7qN59g65dLjsqZqFyKakpuHsZl1mS6TzqotBBTFE+IKC3NpM2cr8daPyLvZrRpFKq1iKqIP8GB7fZYb9iPt7c33kf2cWjRJL7qY43n7ftUNCpElMGsedjv8lbE8fbmwuVgbkkTpx797nFxUU+G//AJnw6yY7V3Ugv7+tYiqjhkI6vWrWP9zsOKNN03sW6OAQNmOePffC96lPqruNFuEVUWgfu8vnT8/Af6zlrLPom/tPj44xOfz8OHt9in3xNDy23sOOCNt7Mdc6bZMHdrIKl1BaRc3si4z/+D/9XRmC1eJzmpOj7sNumpwRzf58IiO2c5zeP7XNkwXZdv+7sSWFnX4mGymW0t9wuTCPc+gdehdcz6vAPfTF2H64ETXInJ4l5uJCdWjOWnz7/m+/HL2KvK79wFvKML1Ly9NacoOcNIDdrJ2pFDMFzjjfepk3gvn0zPIU4cjstTXvzuk3JuPQuHDWeQ2Qker6EqyI2/SZC3J9uWTWN0ly/52WoPZy/4EpxWTYPq+zRy9prmfK0dS9Rxm/N2k7AwWsKand5473Zizew56M09STxNPGjKJ+78OS5478Z64F/pPtIImy2HuRgW2/zSQb2qbdh+vIvztomo8hhPdrusxG7TAUVf8dzDXuvJ/HPwEo6n11PdVEjIDhOsFi5pPrfkPnWFq9G5yod2aRyogAsW3zOw86d8Ot2F3WHNJ53GSFRRAlcv+Sry896Pw6JZLF6xmYtpChG1qt9HDF/pzakzzdeHgOgMCnLTCdi+kOnGxtj4JlCS6s9uw678afh24osb5BtS8aUljNObyjSbLZyUuabIc6I0RFTCYUwHT8RwmRNu3t7s3zYfo4E/M1ASUdRQXRrAtj5f0Wf6RtwOnMDbexfrVntyxj+FvLvn2GM7gc5DbPDwu8z1jGrZ5EgyjfnMaDNnJWXymJ/0/aOCC5aYLNvK7oPHFQxcljLPwIjpKyXnGnWUZYVweOFQxtnsxOvEaSUnb7wvR3I7VyVMasiPPs6mIf/FPzr9xJ+X3aJQ7TtLLURUXRnFyTeU6Ujp7cR8dB/Wn0kgvbyViKKMvLjDOAzoTi/jXRw/eQbv3euwGtebL3vMY638najHVE4Z3NKxxJPjaogoailO8sF1wt/4z//1f+gw01vp4vxJ51YdDbXX2DWkM9Ot97LH0xvvTQuZOclO9lKXWZNKxCU3jM3WyQzOnD6Fm2kfdAau4WB0DqVloXjs2IL9ih3yfq/dW1g1ZTDdxuzllvRIF7OXyb3GMtvRRXGNOujAEpOxTJi5mtNJDdTdzyDKW8m1y2/5fvwiHNyOcSlCMlPNIO7MOlaMG4f5em+8vQ5x3G4S3/XbyoXccqooJtzNBDOj2SxYdwhvdwfWmI5FZ7LqviWdW0UELx1A924WbLhwu3lUveQO1/fYo9ttIqtU1043M0b2HoidRzhan2nVmqMt/VUVvfDyOkyGDGTCgvVsOaw4L4/scmK9gz3rg/KoKYvl1IKufDF4Mbs8jsoc961fgMlCRzZdSKRc6VjiieZ8VfmkxgQr+6kXhzwcMR7ZD5ebjdyvh9vHDRg11RQbB3e8D+1i87wJ9O7St30iikJCd81hwUJbHF2Vzw7y9S2AgKgcah45lvgtzzIS1dKxhIqi5rrwsj3Wqzbi7H5MUe+da1hiNIsx8z0IuH2HyE2DeOevM/G8U4Xa6U1FvCfrpo1h+LgN+JVpiiiKfFk1tCN//uMIzHeEyJ+WaJOI4j7pgTtZOvAj3vv9l20SUYUxZ9ls9BkftbaXlqtbQOCW6QwbPoape6UhDUVZV/b8LR2MfOSPdaP02PzDWCscZZfN0rz6TZj168gX9kGa0J4z5LEiqiSYDRM68unnPzN2wWYOqs6li4FcTcp5dC+YuugQ+4544+1kyRT9Zaw4Ekl2TQY3PW0Y/Pkf+O+eFvK95Izq+JtpFGT447plE6vW7JTb99jO9SybPII+Uw4SpXz1olmdakoy47jufYx92xYx+dvf8pXhTo4cP01gYiHleWHsMuvF15//RH9jB/ar8vO9hN9j7U1ziD6+BvvxE5m3wRvvowc4YjuZjrouXJS+z1qbS2LoFfzktFxxWmyIwXgbtoeoXhIpSilElGZrSSEaI1HR+flkt3EUqrWIklwkpwTuZ/NsPfT0pEWfidPWIPktULi5L+bGXlsWTlftV6wnzbZhs+R6Ue0nTYZbNm8Kdnv8udU8x1eOUVeRz3XX8Yx3vU6+/NWzEiIOrcDWQJWuAfOW7adVH1BL/dXbbLeISj7HVnszJXcVBz30JhsyZW8MjdLb+sLLbLcwYorcNqascg9AeklFWRq3z6zVPFaKt9wTn/gUkgPccTJVpTuBKTMdkbyMS9860f4rITvqOOvkvFTHKdZzdwYQGXKeAxssNfMcNxG97eEU3X/MO7y6fDJC9jBfTnc0eno2eMaWqH0YLptbXlvYsMiJ/eFPepOVzrW9jli3Kt/YidNkRxuSq+jmXzm3fXewy9mFI5EK86Da0myubdNnzGJvEsuVw/el4Zx0WsQsOU0DLFccIlR+QVdHY+11dk8Yz6RW+c1a4cbJWLVh1uZMn7r1eBG1ilVm+7musjZ6bEoV3PV3Y72Jqn0mMs1IMmNRdzHe+tzSQ2/KPCyUpqKqpIuubsZm9iSWHQiWRzhU4ZXZUfi4mmCwT2kXELsPK5Opze1u7cLea5IftFqKUwM5aKUqS/PafPtFwkN8OLzJlTVuwQpT0YZSSmKPY6dvz5kMSfABJaEcWmGJgZ4eCq6pZIQfxdXMmoOyC3dVqSDJeylLlP15pr09qzcfxXPFOYXoflAH+edYM20i+nJ7zWXzaaV75+o0Ys5uZZ6eHvoGpqz0zaOpMoXdE35kyJqjhGQ8qS2lk6WAKxuMMJmoqp8JK9z8ae4C0vfVEvFepIf+GFUcPfTMtnIoJO3RRPV66QXFfkv0pxjgGgnq3vszAraywVXJtTSZuJNrmnlL9dl0hWTl1yQzr25nk+sW3FRuz2Suntjo6TFarvtGzoScYNuec/iFZajNdWxmqb6V7L2MJatallV9v/p28rkV7Dx6mkB1hzD1xdyLOoj1uImMUr8OPPbcUo5IF/iwwWgaE+Uyz2H90TDuyh+grOHe7YvstVCxHIWenjUHo+6h+MRROQnnXVhrpNo/mVnmKhGjKK3kLGP+LNV+PWYuUV0H7lOa7YfzI1bNcUydjhOQfB+qM4j3cZH7i57eeMbp23NK1V+l5Msi8N5si6Fcbj2MrNdwQmGrrHScE8PRuYYsdwskRjU/VQlRPrfWNecp3XMt94eTVKjN7k55kDRyXJXaxv6qPEY+tXaywlLtvDVYxLL94UpPrw08aAxn75SJTFbWo2V/raEwKYBTjlaoLgNyyre9WLHlOKcjs6nKvc7ZHYua+6n6fUuOfAefNdbMkdNfyJo1rnie3ccC2ZSpiab6DHzs9XELykc5qEhFnDfungfYrvpuXPU9iq64MmbsLq7dV738KyHyyBqWzFTjOHkO5s5B3JP9jUayz2AKrj7pPPHzPs2ouHPCGusV2zmudJuttqvVZiGhOxdgOVWV9ywWOZ1Eum1Jnym44jqdsbuiuK8c3Ws+OIeoUy642m/lXHI9FXnhnFmufh1QPmdt8OBUlNKJgXQd8N2L6WaFebskz+MPGrL+5HVuq3vgUvVXg7mYPunbcVJhGitIvXKQJeP6odf6AisXVnlurd3A1gDJPFVRVi+7Kei5RlImX7Ral7Wa3JizuC23YO7RX24uxmNFVOJRllrMbO53qv47az5WXrfhSfeCwhiCDyzTPFZKw/Ec4RnpxJ50YsWja8dUTBbs5Mrj37NJHxki0X8PK1XlUFtbHYwiNew4G5eYauY5Ve0e29xRmrfU7lvSc7n+5JV4Zzchf8O+OIT9y+bJ903pGmJgu5lDERqebRAiqhmn+paGiGrLPCj1OOrmfOoJi+1nI9BuEfVs2YnYbwAB7SIqk0uOC7Aabcr6cwmyp703oKqvbBX+1VhDVYg1I3qv41R8fosR81e20KJgby0B0V/f2qb/xSvemH+dSztsmTDpkPz9zl88g18wwceKqF8wjzc9KSGitLdwCxFVW/ewzWZ8KiElRJR2sM8aKkTUsxIT8bWLKMn83RO3JSYsWufFjScNxgmE7SbwsKGGAt/lrPdJJkd2h97uJEUCgsALIyD66wtD+9YlXJMdwXUfd3YqzC1e6foLEdX+5hEiSjvDFiJKiqISR21dCxGlHeyzhgoR9azERPzHiShBRhAQBAQBQUAQEAQUBISIan9PECJKO0MNERUfH09cXByxsbHExMTIS3R0NFFRUURGRnLr1i15iYiIIDw8nP379+Ph4SGvpW2xPB8De3t73n//fcFP9KE29wFnZ2c6dOiAtBbn3fOdd4Kb4Cb6gOgDog+82X3AwMCATp06iftkO56vPvjgA+zs7ATDVgxNTU3p0aMH5eXldJB0VlhYGKGhoYSEhBAcHExQUBCBgYFcuXKFgIAALl1SfMjLz88PX19f3N3dmTdvHlInFcvzMxg6dCjvvvuuYCj6UZv7gL6+viyipLU4957/3BPsBDvRB0QfEH3gze0D3bt356OPPhL3yXY8X7333nvyJ1/EedLyPOnVqxddu3YlNzdXIaLaasaniifM+bQP8T1rqDDne1ZiIr4w5xN9QBAQBAQBQUAQeDIBYc73ZD5t2SvM+bRT0jDnU4mjtq6FiNIOf5viKgAADwtJREFU9llDhYh6VmIivhBRog8IAoKAICAICAJPJiBE1JP5tGWvEFHaKQkRpZ3LSw8VIuqlI3/tMxQi6rVvQlEBQUAQEAQEgRdMQIio9gMWIko7QyGitHN56aFCRL105K99hkJEvfZNKCogCAgCgoAg8IIJCBHVfsBCRGlnKESUdi4vPVSIqJeO/LXPUIio174JRQUEAUFAEBAEXjABIaLaD1iIKO0MNUTUkm2+hCdnkJ2f36ZvRrWeE1WefoMrR9azfr1q2cT69RdJrK6nXlmGwvgLeF/0IeBOiRxSW5pFtLcqvmp9mmsphVRqL7dG6L3oM5x0X4+r1yVuZFY/2v+wvpqSiMNs9U+iuKpBDi+MPctpD1U+0tqVXfvCyHx0VAWJF9zZs1U9znpc9p/kUtL9R7F+yQ0hon5Jmm9HWkJEvR3tLGopCAgCgoAg8PwEhIh6fnaqI4WIUpFouW4hooqLwczhDKF308l6ThGV5uvIkgmf8b2eGTY2Niy0mo9RXz0MVpwk9F4lNUDs3qmMMTLA4thtuTQld6+wZ/p/8skAYxZa28jHzR4+gRlWOzkenU1ZyzJr/S/SdRSTuv2GDztPwdT5OvnKWI2VBSRu7sFvTE6SmFclh0bv1mfaqK70nzRXzsvKdA6GI2cxxzmAVKCJdA5N/YLBw8YxebaiPFJdVjp7cCauQmv+7Q0UIqq9BN++44WIevvaXNRYEBAEBAFB4NkICBH1bLy0xRYiShsVaCGipCht9cqnitd6JEoSUQ4L9bA4lSvn+LDhPiWhC+nzfjeWnk0is0a7iNo/568McE2j8cG/5OMqYp0x7T6Q2atPc6NUe+HVQyURZT5Ll169xzJC35pNEQoZ9TgRZbHUlu0hxXISDWV3ubnPlK6/G8DmFKhuUogoSxc/wnLUc3lx20JEvTi2b2rKQkS9qS0r6iUICAKCgCDwSxEQIqr9JIWI0s5QQ0QdCM0nNattpnySkHqaiOJhLZQeZPoHX2B1IIHk8raJKCp8WD1AF9PFnlxR6DHtNVCGyiJq2QKWOTmyyngiI832E18BbRFRNOaRHriOMe9/h+0NuN8gRNQTYYudrwQBIaJeiWYQhRAEBAFBQBB4hQkIEdX+xhEiSjtDDRE1eeQGDgcnkZTdNiH1NBHVVFNKkkd/On4xg11h2RQ1tk1EZZ0zZ6zuZBbvDialVnvh1UMVIsoet4BYwg+uxnTYCEwPxFH0GHM+9ZGo6twIfByG8mWn+fiUQv1DhYgaOnIiBhZLWbpUWrbh7nWLFzUwJUai1FtTbLeFgBBRbaEk4ggCgoAgIAi8zQSEiGp/6wsRpZ2hhoha8e1/M3WrP9cSs9pk2qdNRC2Z8A9+HG2Ora0tNtbWjB8xmHk7A7hdWk3jY+dE/ZZPB85m0WJb+bip+mMwdTjI5aRC2qCheCSiwkqozLrKMYdx9O9lwtYrd7TPiRrdjQFTLOW8LOaaM3nqDJYei0KyHHyonBM1fMw0jKxXs3q1tLhx4HQUbRgU0076KaFCRD0FkNitQUCIKA0kIkAQEAQEAUFAEGhBQIioFjie6x8horRj0xBRhyZ3YOwGP4Lisp9bRC2d/BXdJy/GwcEBh3UbcTgQTm5tI03KMmhzLOFu8D6fjVzI6rVrFcftuUx0Tvkjj37ai98cqi6ioJLCaC92TBzC10O3cmpzD/5PK8cSBuN7M8J4qSKvTW64nUug/FFywpzvEQqx8coSECLqlW0aUTBBQBAQBASBV4SAEFHtbwghorQz1BBRxl9+h733LaLSfxlzPm3ZahNRrR1LaDvuSWEtRRRQnUPSBSeG/vVrevf5mHdmerXwzqduzqeZrhBRmkxEyKtGQIioV61FRHkEAUFAEBAEXjUCQkS1v0WEiNLOUENETTU/ysWENDLa4eJc3Tuftmxfioiikep7kVxc0Z8//9s7/NvUY88sogYOHoW+oSWWloplycbdnIwRLs61takIe/kEhIh6+cxFjoKAICAICAKvFwEhotrfXkJEaWeoIaL87+STkdO2USht3vkqMiOICDlPUKrim0zasi1O9OdCwCWCkhW+y2vLcrgduE/+BtODhwoX59qOe1JYYdx5Aq/fID6/rjlaUzU1uTc45uyCi38yJdWKj+0WJfgSdD2U2LzHzbaq4K7/QQ7s3MrWrc2L2+GzXE15fL2aM372LTEn6tmZve1HCBH1tvcAUX9BQBAQBASBpxEQIupphJ6+X4go7Yw0RJTq+09tXbd2LKE9GxH6NAJCRD2NkNjfmoAQUa2JiP8FAUFAEBAEBIGWBISIasnjef4TIko7tRYiqrbuYZucSagLrBcvonKJ8d7DemNjjB+zrDgWQVJhvfYaviahQkS9Jg31ChVTiKhXqDFEUQQBQUAQEAReSQJCRLW/WYSI0s6whYiSoqgLpLZsv3gRVUpmRADebm5IJ4K25XhoKnkVkvP01/cnRNTr23b/UyUXIup/irzIVxAQBAQBQeB1ISBEVPtbSogo7Qw1RFRYWBihoaGEhIQQHBxMUFAQgYGBXLlyhYCAAC5duoS/vz9+fn74+vri7u7OvHnzMDAwEEs7GAwdOpR3331XMGwHw7etD+rr69OhQwek9dtWd1Ffcb0VfUD0AdEHRB9oSx/o3r07H330kbhPtuP56r333mPw4MGCYSuGvXr1omvXruTm5tJB0lnx8fHExcURGxtLTEyMvERHRxMVFUVkZCS3bt2Sl4iICMLDw9m/fz8eHh7yWtoWy/MxsLe35/333xf8RB9qcx9wdnaWRZS0Fufd8513gpvgJvqA6AOiD7zZfUASWp06dRL3yXY8X33wwQfY2dkJhq0Ympqa0qNHD8rLyxUiqi0mfOpxXrw5n/YhtDctVJjzvWkt+uLrI8z5XjxjkYMgIAgIAoLA601AmPO1v/2EOZ92hhrmfOoCqS3bQkRpB/usoUJEPSsxEV+IKNEHBAFBQBAQBASBJxMQIurJfNqyV4go7ZSEiNLO5aWHChH10pG/9hkKEfXaN6GogCAgCAgCgsALJiBEVPsBCxGlnaEQUdq5vPRQIaJeOvLXPkMhol77JhQVEAQEAUFAEHjBBISIaj9gIaK0MxQiSjuXlx4qRNRLR/7aZyhE1GvfhKICgoAgIAgIAi+YgBBR7QcsRJR2hhoiqm/fvszYeokbiZlt+mbU88yJKos8gvO+A7gFZ2sv1VsYKkTUW9jo7ayyEFHtBCgOFwQEAUFAEHjjCQgR1f4mFiJKO8MWIqq4GP7eoQ82J8OIzsh5YSLq3sVVGC5egsWx29pL9RaGChH1FjZ6O6ssRFQ7AYrDBQFBQBAQBN54AkJEtb+JhYjSzrCFiJKi6NkEEnQ7k6z8/OcUUffJvHmMLTN10dWVliHo6m4moLSaagq5tsMCw5//yp/+8gkff9OV0aZLcAkuhsZKqpMOYzVwAIPk43RZtD+MuELtBX/TQoWIetNa9MXXR4ioF89Y5CAICAKCgCDwehMQIqr97SdElHaGGiLqWEI+aTltE1CSC/TW5nx54QfYYDuWEQu3ExAQgP8Fbw7M7kfXOQcIzikgO/kW/psMGDJxMqOX7iU4PIakwiJK0k/i0P0bupt6cPKcPwEBziy32c/ZgHQqtZf9jQoVIuqNas6XUhkhol4KZpGJICAICAKCwGtMQIio9jeeEFHaGWqIqPT8fHLbOAqlIaLKo/FeM49p4+azPea+nOO/HtRQm+vKlE/G4nwpjbw60DDnq0gl6bAVn/xmAtvS73O/6SFQSV5aPsUl1TRqL/sbFSpE1BvVnC+lMkJEvRTMIhNBQBAQBASB15iAEFHtbzwhorQz1BBRbfnArnqcFiNRRYEcXDiaTu9/zOffd6NbN2npSrduX/DHX3VhsXcymTVaRFTJXRI9zPiP7puIbHhAg/ayvtGhQkS90c37QionRNQLwSoSFQQEAUFAEHiDCAgR1f7GFCJKO8MXIKIsmTBoCe7Xr3O9xRJHZlkt9Q8eI6LcjHnvo8VcbGiiTntZ3+hQIaLe6OZ9IZUTIuqFYBWJCgKCgCAgCLxBBISIan9jChGlneEvK6IaswneZc3ciQasulqkPUeUIspoDjO3h1IixWq6R/aNjYx896+MPpBGUXXT/3NxEYvX1tMEBKVS8diU3pwdQkS9OW35smoiRNTLIi3yEQQEAUFAEHhdCQgR1f6WEyJKO8NfVkTRRHXpbYIOLsO079d89913zctkNwKzyqgFGjNO4TRrMF9/+Hd0Js7F8XIejZWpJHrORefPX/PPbzvx3XdDMHe+RERuLZKketN/QkS96S38y9dPiKhfnqlIURAQBAQBQeDNIiBEVPvbU4go7Qx/YRElZdJEXWUhOXdjiY1VW5LvUVnfhOQygsb7lOSkcTs2loTkdHIrGuFhEw9qCkmNiyVOPi6JnJJq6h5oL/ibFipE1JvWoi++PkJEvXjGIgdBQBAQBASB15uAEFHtbz8horQzfAEiSntGIvTJBISIejIfsVeTgBBRmkxEiCAgCAgCgoAgoE5AiCh1Gs+3LUSUdm4tRFRt3cM2fWD3sd75tOchQttAQIioNkASUVoQECKqBQ7xjyAgCAgCgoAgoEFAiCgNJM8cIESUdmQtRJQURV0gtWW7hYtz7XmI0DYQECKqDZBElBYEhIhqgUP8IwgIAoKAICAIaBAQIkoDyTMHCBGlHZmGiLp48SJ+fn5cuHCB8+fPc/bsWc6cOcOpU6c4ceIEXl5eHD16FOnAQ4cOIXXO3r1788knn4ilHQz++Mc/8u///u+CYTsYvm198OOPP6ZDhw5I67et7qK+4nor+oDoA6IPiD7Qlj7wu9/9jl//+tfiPtmO56t33nmHP/zhD4JhK4YffPABP/30E0lJSXSQdFZmZiYZGRktlvT0dFRLWloa6oskpKKiosjKyhJLOxjcvXuXq1evCobtYPi29UHpPLx06ZJ8Pr5tdRf1Fddb0QdEHxB9QPSBtvSBuLg4wsLCxPNVO56vAgMDkZ5T28L7bYoTHx9PeHg4DQ0NChHVFhM+9TjCnE/7EN+zhtbU1MhK9lmPE/HfXgKNjY0kJCQgrcVPEBAEBAFBQBAQBDQJlJWVyQMEmntESFsJJCcnU11d3dbob028iooKeZBJqvD/DwSB9UzPJmV6AAAAAElFTkSuQmCC;" parent="1" vertex="1">
          <mxGeometry x="560" y="225.86" width="630" height="114.28" as="geometry" />
        </mxCell>
        <mxCell id="baAecIUNaESLLziyIisz-28" style="edgeStyle=orthogonalEdgeStyle;rounded=0;orthogonalLoop=1;jettySize=auto;html=1;" parent="1" source="baAecIUNaESLLziyIisz-21" target="baAecIUNaESLLziyIisz-25" edge="1">
          <mxGeometry relative="1" as="geometry" />
        </mxCell>
        <mxCell id="baAecIUNaESLLziyIisz-21" value="" style="sketch=0;points=[[0,0,0],[0.25,0,0],[0.5,0,0],[0.75,0,0],[1,0,0],[0,1,0],[0.25,1,0],[0.5,1,0],[0.75,1,0],[1,1,0],[0,0.25,0],[0,0.5,0],[0,0.75,0],[1,0.25,0],[1,0.5,0],[1,0.75,0]];outlineConnect=0;fontColor=#232F3E;fillColor=#E7157B;strokeColor=#ffffff;dashed=0;verticalLabelPosition=bottom;verticalAlign=top;align=center;html=1;fontSize=12;fontStyle=0;aspect=fixed;shape=mxgraph.aws4.resourceIcon;resIcon=mxgraph.aws4.eventbridge;" parent="1" vertex="1">
          <mxGeometry x="50" y="510" width="58" height="58" as="geometry" />
        </mxCell>
        <mxCell id="baAecIUNaESLLziyIisz-22" value="@Scheduled(&quot;0 0/10 * * * ?&quot;)" style="text;html=1;align=center;verticalAlign=middle;resizable=0;points=[];autosize=1;strokeColor=none;fillColor=none;" parent="1" vertex="1">
          <mxGeometry x="15" y="480" width="180" height="30" as="geometry" />
        </mxCell>
        <mxCell id="baAecIUNaESLLziyIisz-23" value="AWS Event Bridge" style="text;html=1;align=center;verticalAlign=middle;resizable=0;points=[];autosize=1;strokeColor=none;fillColor=none;" parent="1" vertex="1">
          <mxGeometry x="19" y="568" width="120" height="30" as="geometry" />
        </mxCell>
        <mxCell id="baAecIUNaESLLziyIisz-24" value="AWS Lambda" style="text;html=1;align=center;verticalAlign=middle;resizable=0;points=[];autosize=1;strokeColor=none;fillColor=none;" parent="1" vertex="1">
          <mxGeometry x="480" y="150" width="100" height="30" as="geometry" />
        </mxCell>
        <mxCell id="baAecIUNaESLLziyIisz-61" style="edgeStyle=orthogonalEdgeStyle;rounded=0;orthogonalLoop=1;jettySize=auto;html=1;exitX=1;exitY=0.5;exitDx=0;exitDy=0;exitPerimeter=0;" parent="1" source="baAecIUNaESLLziyIisz-25" target="baAecIUNaESLLziyIisz-50" edge="1">
          <mxGeometry relative="1" as="geometry" />
        </mxCell>
        <mxCell id="baAecIUNaESLLziyIisz-25" value="" style="outlineConnect=0;dashed=0;verticalLabelPosition=bottom;verticalAlign=top;align=center;html=1;shape=mxgraph.aws3.lambda_function;fillColor=#F58534;gradientColor=none;" parent="1" vertex="1">
          <mxGeometry x="229.45999999999998" y="503" width="69" height="72" as="geometry" />
        </mxCell>
        <mxCell id="baAecIUNaESLLziyIisz-36" value="" style="image;aspect=fixed;html=1;points=[];align=center;fontSize=12;image=img/lib/azure2/general/Dashboard.svg;" parent="1" vertex="1">
          <mxGeometry x="832.08" y="597.9999999999999" width="67.92" height="47.94" as="geometry" />
        </mxCell>
        <mxCell id="baAecIUNaESLLziyIisz-50" value="" style="sketch=0;points=[[0,0,0],[0.25,0,0],[0.5,0,0],[0.75,0,0],[1,0,0],[0,1,0],[0.25,1,0],[0.5,1,0],[0.75,1,0],[1,1,0],[0,0.25,0],[0,0.5,0],[0,0.75,0],[1,0.25,0],[1,0.5,0],[1,0.75,0]];outlineConnect=0;fontColor=#232F3E;fillColor=#E7157B;strokeColor=#ffffff;dashed=0;verticalLabelPosition=bottom;verticalAlign=top;align=center;html=1;fontSize=12;fontStyle=0;aspect=fixed;shape=mxgraph.aws4.resourceIcon;resIcon=mxgraph.aws4.sns;" parent="1" vertex="1">
          <mxGeometry x="421.25" y="500" width="78" height="78" as="geometry" />
        </mxCell>
        <mxCell id="baAecIUNaESLLziyIisz-55" value="AWS Lambda" style="text;html=1;align=center;verticalAlign=middle;resizable=0;points=[];autosize=1;strokeColor=none;fillColor=none;" parent="1" vertex="1">
          <mxGeometry x="213.96" y="590" width="100" height="30" as="geometry" />
        </mxCell>
        <mxCell id="baAecIUNaESLLziyIisz-56" value="AWS SNS" style="text;html=1;align=center;verticalAlign=middle;resizable=0;points=[];autosize=1;strokeColor=none;fillColor=none;" parent="1" vertex="1">
          <mxGeometry x="423" y="600" width="80" height="30" as="geometry" />
        </mxCell>
        <mxCell id="baAecIUNaESLLziyIisz-57" value="" style="outlineConnect=0;dashed=0;verticalLabelPosition=bottom;verticalAlign=top;align=center;html=1;shape=mxgraph.aws3.lambda_function;fillColor=#F58534;gradientColor=none;" parent="1" vertex="1">
          <mxGeometry x="590" y="412" width="69" height="72" as="geometry" />
        </mxCell>
        <mxCell id="baAecIUNaESLLziyIisz-58" value="" style="sketch=0;points=[[0,0,0],[0.25,0,0],[0.5,0,0],[0.75,0,0],[1,0,0],[0,1,0],[0.25,1,0],[0.5,1,0],[0.75,1,0],[1,1,0],[0,0.25,0],[0,0.5,0],[0,0.75,0],[1,0.25,0],[1,0.5,0],[1,0.75,0]];outlineConnect=0;fontColor=#232F3E;fillColor=#DD344C;strokeColor=#ffffff;dashed=0;verticalLabelPosition=bottom;verticalAlign=top;align=center;html=1;fontSize=12;fontStyle=0;aspect=fixed;shape=mxgraph.aws4.resourceIcon;resIcon=mxgraph.aws4.simple_email_service;" parent="1" vertex="1">
          <mxGeometry x="942" y="405" width="58" height="58" as="geometry" />
        </mxCell>
        <mxCell id="baAecIUNaESLLziyIisz-59" value="AWS Simple Email Service" style="text;html=1;align=center;verticalAlign=middle;resizable=0;points=[];autosize=1;strokeColor=none;fillColor=none;" parent="1" vertex="1">
          <mxGeometry x="900" y="480" width="170" height="30" as="geometry" />
        </mxCell>
        <mxCell id="baAecIUNaESLLziyIisz-62" value="Gz files&amp;nbsp;" style="text;html=1;align=center;verticalAlign=middle;resizable=0;points=[];autosize=1;strokeColor=none;fillColor=none;" parent="1" vertex="1">
          <mxGeometry x="223.46" y="160" width="70" height="30" as="geometry" />
        </mxCell>
        <mxCell id="baAecIUNaESLLziyIisz-63" value="Collect Report Context&lt;br&gt;Timeline&amp;nbsp;" style="text;html=1;align=center;verticalAlign=middle;resizable=0;points=[];autosize=1;strokeColor=none;fillColor=none;" parent="1" vertex="1">
          <mxGeometry x="209" y="463" width="140" height="40" as="geometry" />
        </mxCell>
        <mxCell id="baAecIUNaESLLziyIisz-64" value="Publish Event" style="text;html=1;align=center;verticalAlign=middle;resizable=0;points=[];autosize=1;strokeColor=none;fillColor=none;" parent="1" vertex="1">
          <mxGeometry x="308" y="510" width="100" height="30" as="geometry" />
        </mxCell>
        <mxCell id="baAecIUNaESLLziyIisz-66" style="edgeStyle=orthogonalEdgeStyle;rounded=0;orthogonalLoop=1;jettySize=auto;html=1;exitX=1;exitY=0.5;exitDx=0;exitDy=0;exitPerimeter=0;entryX=0;entryY=0.5;entryDx=0;entryDy=0;entryPerimeter=0;" parent="1" source="baAecIUNaESLLziyIisz-50" target="baAecIUNaESLLziyIisz-57" edge="1">
          <mxGeometry relative="1" as="geometry" />
        </mxCell>
        <mxCell id="baAecIUNaESLLziyIisz-69" style="edgeStyle=orthogonalEdgeStyle;rounded=0;orthogonalLoop=1;jettySize=auto;html=1;exitX=1;exitY=0.5;exitDx=0;exitDy=0;exitPerimeter=0;entryX=0;entryY=0.75;entryDx=0;entryDy=0;entryPerimeter=0;" parent="1" source="baAecIUNaESLLziyIisz-57" target="baAecIUNaESLLziyIisz-58" edge="1">
          <mxGeometry relative="1" as="geometry" />
        </mxCell>
        <mxCell id="baAecIUNaESLLziyIisz-73" value="Generate Email body and Send to SES" style="edgeLabel;html=1;align=center;verticalAlign=middle;resizable=0;points=[];" parent="baAecIUNaESLLziyIisz-69" vertex="1" connectable="0">
          <mxGeometry x="-0.3853" y="-1" relative="1" as="geometry">
            <mxPoint x="36" y="-1" as="offset" />
          </mxGeometry>
        </mxCell>
        <mxCell id="baAecIUNaESLLziyIisz-70" value="" style="outlineConnect=0;dashed=0;verticalLabelPosition=bottom;verticalAlign=top;align=center;html=1;shape=mxgraph.aws3.lambda_function;fillColor=#F58534;gradientColor=none;" parent="1" vertex="1">
          <mxGeometry x="590" y="590" width="69" height="72" as="geometry" />
        </mxCell>
        <mxCell id="baAecIUNaESLLziyIisz-74" value="DashBoard" style="text;html=1;align=center;verticalAlign=middle;resizable=0;points=[];autosize=1;strokeColor=none;fillColor=none;" parent="1" vertex="1">
          <mxGeometry x="826.0400000000001" y="660" width="80" height="30" as="geometry" />
        </mxCell>
        <mxCell id="baAecIUNaESLLziyIisz-78" style="edgeStyle=orthogonalEdgeStyle;rounded=0;orthogonalLoop=1;jettySize=auto;html=1;exitX=1;exitY=0.5;exitDx=0;exitDy=0;exitPerimeter=0;entryX=0;entryY=0.584;entryDx=0;entryDy=0;entryPerimeter=0;" parent="1" source="baAecIUNaESLLziyIisz-70" target="baAecIUNaESLLziyIisz-36" edge="1">
          <mxGeometry relative="1" as="geometry" />
        </mxCell>
        <mxCell id="baAecIUNaESLLziyIisz-79" value="Generate DashBoard Data&amp;nbsp;" style="edgeLabel;html=1;align=center;verticalAlign=middle;resizable=0;points=[];" parent="baAecIUNaESLLziyIisz-78" vertex="1" connectable="0">
          <mxGeometry x="-0.5629" y="1" relative="1" as="geometry">
            <mxPoint x="43" y="1" as="offset" />
          </mxGeometry>
        </mxCell>
        <mxCell id="baAecIUNaESLLziyIisz-80" style="edgeStyle=orthogonalEdgeStyle;rounded=0;orthogonalLoop=1;jettySize=auto;html=1;exitX=1;exitY=0.5;exitDx=0;exitDy=0;exitPerimeter=0;entryX=0;entryY=0.5;entryDx=0;entryDy=0;entryPerimeter=0;" parent="1" source="baAecIUNaESLLziyIisz-50" target="baAecIUNaESLLziyIisz-70" edge="1">
          <mxGeometry relative="1" as="geometry" />
        </mxCell>
        <mxCell id="baAecIUNaESLLziyIisz-81" value="Trigger" style="text;html=1;align=center;verticalAlign=middle;resizable=0;points=[];autosize=1;strokeColor=none;fillColor=none;" parent="1" vertex="1">
          <mxGeometry x="130" y="518" width="60" height="30" as="geometry" />
        </mxCell>
      </root>
    </mxGraphModel>
  </diagram>
</mxfile>
